<svg width="348" height="145" viewBox="0 0 348 145" fill="none" xmlns="http://www.w3.org/2000/svg">
<path d="M22.3352 8.44897H19.3589C18.9477 5.16013 15.6526 2.46856 11.6688 2.46856C6.54378 2.46856 2.88122 6.39569 2.88122 12.512C2.88122 18.6282 6.54121 22.5554 11.6688 22.5554C15.6501 22.5554 18.9451 19.8177 19.3589 16.5288H22.3352C21.8314 21.0942 17.4826 25.0188 11.6714 25.0188C4.76005 25.0188 0 20.315 0 12.512C0 4.70897 4.76005 0.0025634 11.6714 0.0025634C17.4826 0.0025634 21.8314 3.88356 22.3352 8.44897Z" fill="#D9DBD9"/>
<path d="M39.3218 22.417C44.4031 22.417 48.9344 18.5821 48.9344 12.6478V11.9173L40.6943 13.1938C35.4305 14.0628 33.968 15.7982 33.968 18.2617C33.968 20.7251 36.0268 22.4144 39.3244 22.4144M51.6768 9.81783V22.4631H48.9318V19.4947C47.2381 22.6887 43.668 24.9727 39.0905 24.9727C34.1916 24.9727 31.0817 22.2811 31.0817 18.354C31.0817 14.4268 33.4617 11.825 40.008 10.8227L48.9344 9.4974C48.8881 5.11655 46.2794 2.55828 41.8869 2.55828C37.4944 2.55828 35.523 4.74998 34.9755 7.62612H32.0943C32.4593 3.42471 35.8931 0 41.8432 0C48.2045 0 51.682 3.74513 51.682 9.81527" fill="#D9DBD9"/>
<path d="M98.7838 22.417C103.865 22.417 108.396 18.5821 108.396 12.6478V11.9173L100.156 13.1938C94.8925 14.0628 93.4301 15.7982 93.4301 18.2617C93.4301 20.7251 95.4888 22.4144 98.7864 22.4144M111.141 9.81783V22.4631H108.396V19.4947C106.703 22.6887 103.133 24.9727 98.5551 24.9727C93.6562 24.9727 90.5463 22.2811 90.5463 18.354C90.5463 14.4268 92.9263 11.825 99.4726 10.8227L108.399 9.4974C108.353 5.11655 105.744 2.55828 101.351 2.55828C96.959 2.55828 94.9876 4.74998 94.4401 7.62612H91.5564C91.9239 3.42471 95.3551 0 101.305 0C107.669 0 111.147 3.74513 111.147 9.81527" fill="#D9DBD9"/>
<path d="M79.921 7.35184H77.0834C77.0834 4.70384 74.796 2.46599 71.0434 2.46599C67.2909 2.46599 65.3196 4.33728 65.3196 6.48541C65.3196 8.31055 66.1446 9.63583 69.6221 10.4561L74.0172 11.461C78.8209 12.5555 80.4684 14.8395 80.4684 18.1258C80.4684 22.1427 77.4021 25.0188 71.4084 25.0188C64.952 25.0188 61.7495 21.5967 61.7495 17.2132H64.4482C64.4971 20.2714 66.8745 22.5067 71.4984 22.5067C75.7546 22.5067 77.6309 20.5892 77.6309 18.172C77.6309 15.9802 76.4846 14.7473 73.0533 13.9705L68.612 12.9195C63.8957 11.825 62.4306 9.54098 62.4306 6.48541C62.4358 2.92484 65.5046 0.0025634 71.0897 0.0025634C76.6748 0.0025634 79.9235 3.28885 79.9235 7.35184" fill="#D9DBD9"/>
<path d="M34.1454 68.3839C39.5917 68.3839 42.8867 64.4132 42.8867 58.3866C42.8867 52.3601 39.5917 48.3432 34.1454 48.3432C28.6991 48.3432 25.219 52.5421 25.219 58.3866C25.219 64.2312 28.8353 68.3839 34.1454 68.3839ZM45.6342 35.8364V68.3839H42.8867V65.9179C41.1492 69.0222 38.0829 70.9396 33.6416 70.9396C26.8691 70.9396 22.3352 65.8282 22.3352 58.4328C22.3352 51.0373 26.8691 45.9259 33.6416 45.9259C38.0829 45.9259 41.1492 47.7972 42.8867 50.9015V35.8364H45.6342Z" fill="#D9DBD9"/>
<path d="M58.5445 58.4328C58.5445 64.4132 62.1145 68.3403 67.4246 68.3403C72.7346 68.3403 76.2584 64.4132 76.2584 58.4328C76.2584 52.4523 72.6884 48.4816 67.4246 48.4816C62.1608 48.4816 58.5445 52.4523 58.5445 58.4328ZM79.1422 58.4328C79.1422 65.782 74.5646 70.9396 67.4246 70.9396C60.2845 70.9396 55.6607 65.7795 55.6607 58.4328C55.6607 51.086 60.2408 45.9259 67.4246 45.9259C74.6083 45.9259 79.1422 51.0835 79.1422 58.4328Z" fill="#D9DBD9"/>
<path d="M145.21 56.6922C145.202 56.7178 145.225 56.7563 145.04 56.9998L144.637 57.433C144.084 57.9329 143.393 58.3046 142.732 58.6353C140.802 59.594 138.697 60.1784 136.594 60.6168C132.176 61.537 127.614 61.7703 123.108 61.3884C123.517 55.5951 124.026 49.8095 124.627 44.0341C127.285 44.9544 129.909 45.9746 132.49 47.1051C135.471 48.4175 138.478 49.8325 141.262 51.5295C142.909 52.5318 145.827 54.3467 145.207 56.6948M137.445 46.2463C133.41 44.1751 129.243 42.3654 124.977 40.8247C125.72 34.0804 126.594 27.3541 127.593 20.6431C127.737 19.6869 127.09 18.5718 126.378 17.9694C125.884 17.5516 124.861 17.1235 124.715 18.1079C123.638 25.311 122.718 32.5347 121.941 39.7737C120.024 39.1457 118.091 38.569 116.14 38.0537C108.019 35.903 99.6397 34.7367 91.2402 34.5495C89.7366 34.5162 91.4484 38.2972 92.9288 38.3306C102.657 38.5484 112.324 40.1454 121.6 43.0344C120.993 49.0276 120.489 55.026 120.088 61.0346C118.302 60.7706 116.531 60.4143 114.791 59.9605C113.853 59.7145 113.776 60.7296 113.938 61.3909C114.146 62.2343 114.902 63.4134 115.814 63.6493C117.153 63.9979 118.505 64.2927 119.87 64.5362C119.232 75.0897 118.906 85.6612 118.901 96.2352C118.896 103.567 119.05 110.895 119.348 118.222C119.387 119.162 120.114 120.321 120.947 120.772C121.728 121.195 122.286 120.846 122.247 119.962C121.502 101.636 121.715 83.2798 122.88 64.9797C127.763 65.559 132.736 65.4488 137.561 64.5388C139.941 64.0902 142.341 63.4622 144.549 62.4522C145.783 61.8857 147.374 61.0782 147.934 59.7503C149.062 57.0818 147.081 53.6213 145.366 51.709C143.187 49.2814 140.316 47.7177 137.448 46.2438" fill="#D9DBD9"/>
<path d="M171.711 58.9301C169.904 61.6985 166.558 63.1981 163.304 63.152C161.726 63.1315 160.173 62.7059 158.837 61.86C158.166 61.4345 157.788 61.1115 157.4 60.6117C157.459 60.6886 157.652 60.8885 157.385 60.5732L157.328 60.5117L157.31 60.4707L157.151 60.122L157.035 59.776C156.334 57.2049 158.097 54.216 160.695 53.0137C162.422 52.2498 164.204 51.55 166.075 51.2347C167.668 50.963 168.897 51.0835 170.246 51.9832C170.778 52.337 171.277 52.7651 171.65 53.1906C172.058 53.6597 172.346 54.0929 172.505 54.5133C173.068 56.0206 172.552 57.6304 171.711 58.9249M171.868 50.1376C170.197 48.5406 168.103 47.2358 165.723 47.3153C163.212 47.3973 160.703 48.4124 158.436 49.4121C155.213 50.9066 153.517 54.4774 154.092 57.9329C154.83 62.3471 158.598 65.9692 163.003 66.7382C167.051 67.4457 171.313 66.0256 173.891 62.7752C177.134 58.6865 175.322 53.4392 171.868 50.1376Z" fill="#D9DBD9"/>
<path d="M197.123 48.6611C197.164 48.7867 197.197 48.9456 197.148 48.7046L197.143 48.6918L197.123 48.6611Z" fill="#D9DBD9"/>
<path d="M197.105 48.6098V48.6047L197.095 48.5893L197.105 48.6098ZM200.323 66.9253C196.247 68.953 191.026 68.3864 187.392 65.659C183.889 63.0315 183.354 58.666 185.074 54.785C186.75 51.0091 191.006 47.0512 195.38 47.687C195.666 47.728 195.956 47.8177 196.223 47.9254C196.365 47.9818 196.319 47.951 196.627 48.1509L196.681 48.1868L196.717 48.215L196.979 48.4534L197.018 48.5021L197.123 48.6662L197.11 48.6252L197.115 48.6303L197.146 48.697L197.151 48.7046V48.7098L197.285 48.9994V49.0046L197.308 49.0789L197.398 49.4352L197.467 50.1248C197.473 50.2427 197.467 50.4836 197.416 50.8118C196.799 54.9235 191.918 55.9975 188.407 56.0257C186.873 56.0385 188.621 59.8221 190.093 59.8067C194.273 59.7708 199.205 58.343 200.223 53.734C201.001 50.2196 198.92 45.9567 195.653 44.4315C190.926 42.2244 185.362 46.3796 183.087 50.2965C179.969 55.6643 180.931 62.2804 185.135 66.7843C189.497 71.4574 196.694 73.4645 202.585 70.532C203.872 69.8912 201.726 66.2306 200.328 66.9253" fill="#D9DBD9"/>
<path d="M235.73 27.2464C241.063 27.0618 246.391 26.7722 251.714 26.3902C253.298 26.2774 251.486 22.5041 250.028 22.6092C236.941 23.5474 223.815 23.8935 210.699 23.6423C210.907 20.0637 211.223 16.4929 211.652 12.9324C211.768 11.9634 211.164 10.8714 210.437 10.2587C209.961 9.85628 208.892 9.4 208.771 10.3972C208.242 14.778 207.887 19.1742 207.687 23.5756C203.176 23.4577 198.67 23.2731 194.167 23.0117C188.839 22.7041 183.519 22.2965 178.206 21.794C177.255 21.7043 177.687 23.35 177.864 23.7602C178.219 24.5856 178.941 25.4879 179.895 25.5776C189.096 26.4466 198.321 27.0234 207.553 27.3054C207.175 42.7601 208.805 58.2354 212.416 73.2979C212.616 74.1413 213.377 75.3538 214.292 75.5588C215.243 75.7742 215.31 74.8155 215.145 74.1285C211.48 58.8326 209.941 43.0805 210.522 27.3848C218.924 27.5848 227.333 27.5412 235.733 27.249" fill="#D9DBD9"/>
<path d="M316.756 61.0423C308.981 61.8267 301.212 62.7367 293.398 63.0674C284.67 63.4365 276.098 62.7316 267.411 62.0061C258.394 61.2551 249.275 60.8167 240.277 62.0061C238.185 62.283 236.116 62.6803 234.049 63.1033C232.368 63.4468 230.616 63.7851 228.891 63.6416C227.593 63.5339 225.951 63.0571 225.575 61.6549C225.164 60.1272 225.809 58.138 226.889 57.0101C228.87 54.9414 232.667 55.4977 235.185 55.8847C238.275 56.3641 241.349 57.2664 244.482 57.41C245.962 57.4766 244.274 53.6956 242.796 53.6289C239.773 53.4905 236.81 52.5805 233.823 52.1447C231.142 51.75 227.84 51.3014 225.398 52.8061C222.311 54.7056 221.998 59.1992 223.347 62.2163C225.005 65.9358 228.5 67.7251 232.471 67.4047C234.486 67.2432 236.452 66.71 238.434 66.346C240.863 65.8999 243.315 65.5872 245.777 65.3821C250.63 64.9746 255.508 64.9874 260.371 65.2053C270.097 65.6487 279.74 67.0458 289.489 66.9894C299.186 66.933 308.814 65.8 318.448 64.8259C320.049 64.6644 318.209 60.8987 316.759 61.0449" fill="#D9DBD9"/>
<path d="M348 57.9047C348 60.0631 346.244 61.8139 344.08 61.8139C341.916 61.8139 340.161 60.0631 340.161 57.9047C340.161 55.7463 341.916 53.9955 344.08 53.9955C346.244 53.9955 348 55.7463 348 57.9047Z" fill="#D9DBD9"/>
<path d="M155.087 109.197C153.838 109.197 152.761 108.921 151.855 108.37C150.955 107.813 150.26 107.036 149.77 106.041C149.286 105.039 149.044 103.875 149.044 102.547C149.044 101.219 149.286 100.049 149.77 99.036C150.26 98.0177 150.94 97.2244 151.813 96.6562C152.69 96.0823 153.714 95.7954 154.884 95.7954C155.56 95.7954 156.226 95.9079 156.884 96.133C157.543 96.358 158.142 96.7237 158.682 97.2301C159.222 97.7308 159.653 98.3947 159.973 99.2217C160.294 100.049 160.454 101.067 160.454 102.277V103.121H150.462V101.399H158.429C158.429 100.668 158.283 100.015 157.99 99.4411C157.703 98.8673 157.292 98.4144 156.758 98.0824C156.229 97.7505 155.605 97.5845 154.884 97.5845C154.091 97.5845 153.405 97.7814 152.825 98.1752C152.251 98.5635 151.81 99.0698 151.5 99.6943C151.191 100.319 151.036 100.988 151.036 101.703V102.851C151.036 103.83 151.205 104.659 151.542 105.34C151.886 106.015 152.361 106.53 152.969 106.885C153.576 107.233 154.282 107.408 155.087 107.408C155.61 107.408 156.083 107.335 156.505 107.188C156.932 107.036 157.301 106.811 157.61 106.513C157.92 106.209 158.159 105.832 158.328 105.382L160.252 105.922C160.049 106.575 159.709 107.149 159.231 107.644C158.752 108.134 158.162 108.516 157.458 108.792C156.755 109.062 155.965 109.197 155.087 109.197Z" fill="#D9DBD9"/>
<path d="M165.476 101.129V108.927H163.484V95.9642H165.408V97.9896H165.577C165.881 97.3313 166.342 96.8025 166.961 96.403C167.58 95.9979 168.379 95.7954 169.358 95.7954C170.235 95.7954 171.003 95.9754 171.662 96.3355C172.32 96.6899 172.832 97.2301 173.198 97.9558C173.563 98.676 173.746 99.5874 173.746 100.69V108.927H171.754V100.825C171.754 99.8068 171.49 99.0135 170.961 98.4453C170.432 97.8714 169.706 97.5845 168.784 97.5845C168.148 97.5845 167.58 97.7223 167.079 97.998C166.584 98.2737 166.193 98.676 165.906 99.2048C165.619 99.7337 165.476 100.375 165.476 101.129Z" fill="#D9DBD9"/>
<path d="M183.023 95.9642V97.652H176.305V95.9642H183.023ZM178.263 92.8585H180.255V105.214C180.255 105.776 180.336 106.198 180.5 106.479C180.668 106.755 180.882 106.941 181.141 107.036C181.405 107.126 181.684 107.171 181.976 107.171C182.196 107.171 182.376 107.16 182.517 107.138C182.657 107.11 182.77 107.087 182.854 107.07L183.259 108.859C183.124 108.91 182.936 108.961 182.694 109.011C182.452 109.067 182.145 109.096 181.774 109.096C181.211 109.096 180.66 108.975 180.12 108.733C179.585 108.491 179.141 108.122 178.786 107.627C178.438 107.132 178.263 106.508 178.263 105.754V92.8585Z" fill="#D9DBD9"/>
<path d="M186.019 108.927V95.9642H187.943V97.9221H188.078C188.314 97.2807 188.742 96.7603 189.361 96.3608C189.98 95.9614 190.677 95.7616 191.454 95.7616C191.6 95.7616 191.783 95.7644 192.002 95.7701C192.222 95.7757 192.388 95.7841 192.5 95.7954V97.8208C192.433 97.8039 192.278 97.7786 192.036 97.7448C191.8 97.7055 191.549 97.6858 191.285 97.6858C190.655 97.6858 190.092 97.818 189.597 98.0824C189.108 98.3412 188.719 98.7013 188.432 99.1626C188.151 99.6184 188.01 100.139 188.01 100.724V108.927H186.019Z" fill="#D9DBD9"/>
<path d="M199.901 109.197C198.652 109.197 197.575 108.921 196.669 108.37C195.769 107.813 195.074 107.036 194.585 106.041C194.101 105.039 193.859 103.875 193.859 102.547C193.859 101.219 194.101 100.049 194.585 99.036C195.074 98.0177 195.755 97.2244 196.627 96.6562C197.505 96.0823 198.529 95.7954 199.699 95.7954C200.374 95.7954 201.041 95.9079 201.699 96.133C202.357 96.358 202.956 96.7237 203.496 97.2301C204.037 97.7308 204.467 98.3947 204.788 99.2217C205.108 100.049 205.269 101.067 205.269 102.277V103.121H195.277V101.399H203.243C203.243 100.668 203.097 100.015 202.804 99.4411C202.517 98.8673 202.107 98.4144 201.572 98.0824C201.043 97.7505 200.419 97.5845 199.699 97.5845C198.905 97.5845 198.219 97.7814 197.64 98.1752C197.066 98.5635 196.624 99.0698 196.315 99.6943C196.005 100.319 195.85 100.988 195.85 101.703V102.851C195.85 103.83 196.019 104.659 196.357 105.34C196.7 106.015 197.175 106.53 197.783 106.885C198.391 107.233 199.097 107.408 199.901 107.408C200.425 107.408 200.897 107.335 201.319 107.188C201.747 107.036 202.115 106.811 202.425 106.513C202.734 106.209 202.973 105.832 203.142 105.382L205.066 105.922C204.864 106.575 204.523 107.149 204.045 107.644C203.567 108.134 202.976 108.516 202.273 108.792C201.569 109.062 200.779 109.197 199.901 109.197Z" fill="#D9DBD9"/>
<path d="M220.417 109.197C219.168 109.197 218.091 108.921 217.185 108.37C216.285 107.813 215.59 107.036 215.1 106.041C214.617 105.039 214.375 103.875 214.375 102.547C214.375 101.219 214.617 100.049 215.1 99.036C215.59 98.0177 216.271 97.2244 217.143 96.6562C218.02 96.0823 219.044 95.7954 220.215 95.7954C220.89 95.7954 221.556 95.9079 222.215 96.133C222.873 96.358 223.472 96.7237 224.012 97.2301C224.552 97.7308 224.983 98.3947 225.303 99.2217C225.624 100.049 225.784 101.067 225.784 102.277V103.121H215.792V101.399H223.759C223.759 100.668 223.613 100.015 223.32 99.4411C223.033 98.8673 222.623 98.4144 222.088 98.0824C221.559 97.7505 220.935 97.5845 220.215 97.5845C219.421 97.5845 218.735 97.7814 218.155 98.1752C217.581 98.5635 217.14 99.0698 216.83 99.6943C216.521 100.319 216.366 100.988 216.366 101.703V102.851C216.366 103.83 216.535 104.659 216.873 105.34C217.216 106.015 217.691 106.53 218.299 106.885C218.906 107.233 219.613 107.408 220.417 107.408C220.94 107.408 221.413 107.335 221.835 107.188C222.262 107.036 222.631 106.811 222.94 106.513C223.25 106.209 223.489 105.832 223.658 105.382L225.582 105.922C225.379 106.575 225.039 107.149 224.561 107.644C224.083 108.134 223.492 108.516 222.788 108.792C222.085 109.062 221.295 109.197 220.417 109.197Z" fill="#D9DBD9"/>
<path d="M246.098 95.9642L241.304 108.927H239.279L234.485 95.9642H236.646L240.224 106.294H240.359L243.937 95.9642H246.098Z" fill="#D9DBD9"/>
<path d="M248.726 108.927V95.9642H250.718V108.927H248.726ZM249.739 93.8037C249.351 93.8037 249.016 93.6715 248.735 93.4071C248.459 93.1427 248.321 92.8248 248.321 92.4535C248.321 92.0821 248.459 91.7643 248.735 91.4998C249.016 91.2354 249.351 91.1032 249.739 91.1032C250.127 91.1032 250.459 91.2354 250.735 91.4998C251.016 91.7643 251.157 92.0821 251.157 92.4535C251.157 92.8248 251.016 93.1427 250.735 93.4071C250.459 93.6715 250.127 93.8037 249.739 93.8037Z" fill="#D9DBD9"/>
<path d="M264.966 95.9642L260.172 108.927H258.147L253.353 95.9642H255.514L259.092 106.294H259.227L262.805 95.9642H264.966Z" fill="#D9DBD9"/>
<path d="M271.014 109.231C270.193 109.231 269.448 109.076 268.778 108.766C268.109 108.451 267.577 107.999 267.183 107.408C266.789 106.811 266.592 106.091 266.592 105.247C266.592 104.505 266.739 103.903 267.031 103.441C267.324 102.974 267.715 102.609 268.204 102.344C268.694 102.08 269.234 101.883 269.824 101.753C270.421 101.618 271.02 101.512 271.622 101.433C272.41 101.332 273.048 101.256 273.538 101.205C274.033 101.149 274.393 101.056 274.618 100.926C274.849 100.797 274.964 100.572 274.964 100.251V100.184C274.964 99.3511 274.736 98.7041 274.28 98.2428C273.83 97.7814 273.147 97.5507 272.23 97.5507C271.279 97.5507 270.533 97.7589 269.993 98.1752C269.453 98.5916 269.073 99.036 268.854 99.5086L266.964 98.8335C267.301 98.0458 267.751 97.4326 268.314 96.9938C268.882 96.5493 269.501 96.2399 270.171 96.0654C270.846 95.8854 271.51 95.7954 272.162 95.7954C272.578 95.7954 273.057 95.846 273.597 95.9473C274.143 96.0429 274.669 96.2427 275.175 96.5465C275.687 96.8503 276.112 97.3088 276.449 97.9221C276.787 98.5353 276.956 99.3567 276.956 100.386V108.927H274.964V107.171H274.863C274.728 107.453 274.503 107.754 274.188 108.074C273.873 108.395 273.453 108.668 272.93 108.893C272.407 109.118 271.768 109.231 271.014 109.231ZM271.318 107.442C272.106 107.442 272.77 107.287 273.31 106.977C273.856 106.668 274.266 106.268 274.542 105.779C274.823 105.29 274.964 104.775 274.964 104.235V102.412C274.88 102.513 274.694 102.606 274.407 102.69C274.126 102.769 273.799 102.839 273.428 102.901C273.062 102.957 272.705 103.008 272.356 103.053C272.013 103.093 271.735 103.126 271.521 103.154C271.003 103.222 270.519 103.332 270.069 103.484C269.625 103.63 269.265 103.852 268.989 104.15C268.719 104.443 268.584 104.842 268.584 105.349C268.584 106.041 268.84 106.564 269.352 106.918C269.87 107.267 270.525 107.442 271.318 107.442Z" fill="#D9DBD9"/>
<path d="M291.089 109.231C290.268 109.231 289.522 109.076 288.853 108.766C288.183 108.451 287.652 107.999 287.258 107.408C286.864 106.811 286.667 106.091 286.667 105.247C286.667 104.505 286.813 103.903 287.106 103.441C287.398 102.974 287.789 102.609 288.279 102.344C288.768 102.08 289.309 101.883 289.899 101.753C290.496 101.618 291.095 101.512 291.697 101.433C292.485 101.332 293.123 101.256 293.613 101.205C294.108 101.149 294.468 101.056 294.693 100.926C294.923 100.797 295.039 100.572 295.039 100.251V100.184C295.039 99.3511 294.811 98.7041 294.355 98.2428C293.905 97.7814 293.222 97.5507 292.304 97.5507C291.354 97.5507 290.608 97.7589 290.068 98.1752C289.528 98.5916 289.148 99.036 288.929 99.5086L287.038 98.8335C287.376 98.0458 287.826 97.4326 288.389 96.9938C288.957 96.5493 289.576 96.2399 290.245 96.0654C290.92 95.8854 291.584 95.7954 292.237 95.7954C292.653 95.7954 293.132 95.846 293.672 95.9473C294.217 96.0429 294.743 96.2427 295.25 96.5465C295.762 96.8503 296.187 97.3088 296.524 97.9221C296.862 98.5353 297.03 99.3567 297.03 100.386V108.927H295.039V107.171H294.938C294.802 107.453 294.577 107.754 294.262 108.074C293.947 108.395 293.528 108.668 293.005 108.893C292.482 109.118 291.843 109.231 291.089 109.231ZM291.393 107.442C292.181 107.442 292.845 107.287 293.385 106.977C293.93 106.668 294.341 106.268 294.617 105.779C294.898 105.29 295.039 104.775 295.039 104.235V102.412C294.954 102.513 294.769 102.606 294.482 102.69C294.2 102.769 293.874 102.839 293.503 102.901C293.137 102.957 292.78 103.008 292.431 103.053C292.088 103.093 291.809 103.126 291.596 103.154C291.078 103.222 290.594 103.332 290.144 103.484C289.7 103.63 289.339 103.852 289.064 104.15C288.794 104.443 288.659 104.842 288.659 105.349C288.659 106.041 288.915 106.564 289.427 106.918C289.944 107.267 290.6 107.442 291.393 107.442Z" fill="#D9DBD9"/>
<path d="M142.171 144.912C142.06 144.889 141.928 144.845 141.839 144.779C141.662 144.668 141.552 144.47 141.552 144.204V144.182C141.552 142.989 144.204 135.716 146.989 128.687C149.708 121.857 152.559 115.248 153.311 114.63C153.399 114.541 153.687 114.453 153.974 114.431H154.46C154.637 114.475 154.792 114.541 154.88 114.696C154.902 114.74 154.924 114.784 154.924 114.851V114.917C154.924 115.005 154.88 115.138 154.792 115.271C154.726 115.403 154.637 115.536 154.505 115.691C152.692 118.011 150.747 123.117 149.421 126.61C149.664 126.3 149.951 125.969 150.238 125.593C151.056 124.554 152.051 123.361 153.024 122.189C154.748 120.133 156.781 118.719 158.218 118.343C158.483 118.277 158.726 118.232 158.947 118.232C159.168 118.232 159.367 118.277 159.544 118.343C159.92 118.52 160.163 118.851 160.207 119.36L160.229 119.603C160.229 120.377 159.831 121.57 158.881 123.228C159.942 122.83 161.003 122.476 162.064 122.145C163.125 121.813 164.208 121.504 165.335 121.216L165.667 121.172C165.799 121.172 165.91 121.194 165.976 121.239C166.043 121.283 166.109 121.327 166.131 121.415L166.153 121.526C166.153 121.57 166.131 121.636 166.109 121.681C166.043 121.791 165.888 121.924 165.623 122.034C164.54 122.432 163.456 122.786 162.351 123.139C161.047 123.559 159.743 123.979 158.439 124.488L157.931 124.709C157.732 124.974 157.533 125.195 157.378 125.416C157.135 125.703 156.892 125.947 156.715 126.146C156.096 126.919 155.035 127.98 153.93 128.577C153.576 128.754 153.289 128.842 153.046 128.842C152.935 128.842 152.825 128.82 152.736 128.798C152.537 128.754 152.383 128.621 152.294 128.466C152.206 128.29 152.162 128.091 152.162 127.892C152.184 127.383 152.449 126.787 152.979 126.234C153.2 126.035 153.444 125.836 153.709 125.637C153.974 125.438 154.283 125.239 154.615 125.04C154.858 124.886 155.146 124.753 155.411 124.598C155.654 124.466 155.919 124.333 156.184 124.223C157.886 121.924 158.704 120.465 158.881 119.669L158.925 119.404C158.925 119.316 158.903 119.249 158.859 119.227L158.726 119.205C158.616 119.205 158.439 119.249 158.218 119.36C157.245 119.78 155.565 121.15 153.665 123.228C150.658 126.499 148.625 129.616 147.056 132.998C145.464 136.402 144.315 140.027 143.033 144.337C142.966 144.602 142.767 144.779 142.546 144.845C142.414 144.912 142.303 144.912 142.171 144.912Z" fill="#D9DBD9"/>
<path d="M164.982 128.356C164.075 128.356 163.368 127.538 163.368 125.991C163.368 124.134 164.451 121.791 164.982 120.509C165.203 119.912 165.468 119.559 166.197 119.559C166.485 119.559 166.794 119.603 167.081 119.713C167.303 119.161 168.518 118.608 169.646 118.586C170.618 118.586 171.458 119.05 171.458 120.288C171.458 120.664 171.37 121.128 171.193 121.681H171.657C172.939 121.681 174.707 121.526 176.873 121.194L177.006 121.172C177.338 121.172 177.514 121.393 177.514 121.614C177.514 121.835 177.315 122.078 176.94 122.145C174.707 122.498 172.873 122.631 171.48 122.631H170.795C169.668 124.996 166.927 128.356 164.982 128.356ZM169.977 121.57C170.088 121.239 170.154 120.951 170.154 120.686C170.154 120.155 169.889 119.912 169.424 119.912C168.982 119.912 168.474 120.155 168.165 120.354L168.142 120.487C168.142 120.774 168.363 121.349 169.977 121.57ZM165.291 127.207C166.573 127.207 168.739 124.156 169.601 122.521C168.032 122.3 167.369 121.835 167.081 121.371C166.286 122.587 164.871 125.593 164.871 126.654C164.871 127.052 165.048 127.207 165.291 127.207Z" fill="#D9DBD9"/>
<path d="M177.47 128.886C176.321 128.886 175.569 128.511 175.127 127.892C174.774 127.405 174.597 126.787 174.597 126.101V125.969C174.597 125.217 174.774 124.399 175.061 123.559C175.945 121.04 177.934 118.431 179.725 117.989C179.813 117.967 179.902 117.945 179.99 117.945H180.233C180.432 117.967 180.631 118.056 180.786 118.188C180.94 118.321 181.051 118.498 181.095 118.719C181.117 118.829 181.139 118.962 181.139 119.095V119.249C180.985 120.443 180.587 121.57 179.813 122.432C179.15 123.206 178.222 123.78 176.962 124.068C176.652 124.598 176.343 125.328 176.277 126.013L176.255 126.3C176.255 126.676 176.365 127.008 176.63 127.229C176.873 127.45 177.227 127.538 177.647 127.538C177.979 127.538 178.354 127.494 178.774 127.383C179.791 127.14 181.029 126.543 182.355 125.703C183.726 124.819 184.897 124.002 185.892 123.272C186.886 122.521 187.682 121.88 188.323 121.305C188.699 120.995 189.053 120.863 189.318 120.863H189.384C189.495 120.863 189.605 120.907 189.671 120.973C189.76 121.062 189.804 121.172 189.804 121.283C189.782 121.504 189.627 121.813 189.229 122.145C187.682 123.471 185.759 125.062 183.748 126.367C181.736 127.693 179.681 128.71 177.912 128.864L177.47 128.886ZM177.647 122.764C178.752 122.388 179.46 121.548 179.835 120.774C179.968 120.465 180.056 120.178 180.101 119.934C180.123 119.824 180.123 119.736 180.123 119.647C180.123 119.537 180.123 119.47 180.078 119.404C179.791 119.669 179.106 120.708 178.443 121.659C178.155 122.034 177.89 122.432 177.647 122.764Z" fill="#D9DBD9"/>
<path d="M184.3 132.202C183.217 132.202 182.598 131.694 182.598 130.743C182.598 130.5 182.642 130.191 182.753 129.859C183.505 127.45 186.29 125.527 188.389 124.333C188.301 124.024 188.213 123.515 188.213 123.029C188.213 122.764 188.235 122.498 188.323 122.3L187.925 122.476L187.748 122.521C187.572 122.521 187.461 122.41 187.461 122.255C187.461 122.034 187.726 121.659 188.566 121.283C188.831 120.288 189.915 119.205 190.644 118.498C191.263 117.901 191.904 117.37 192.39 117.149C192.567 117.061 192.7 117.017 192.832 116.995H192.854C193.208 116.995 193.341 117.282 193.341 117.636C193.341 117.812 193.319 118.011 193.252 118.21C193.053 119.072 192.434 119.802 191.705 120.421C190.976 121.018 190.113 121.504 189.406 121.857C189.384 122.034 189.362 122.189 189.362 122.344C189.362 122.543 189.384 122.72 189.406 122.896C189.472 123.184 189.561 123.471 189.671 123.758C190.556 123.25 191.639 122.786 192.7 122.366C193.783 121.946 194.844 121.57 195.772 121.261L195.949 121.239C196.17 121.239 196.28 121.371 196.28 121.526C196.28 121.659 196.192 121.813 195.949 121.924C194.777 122.322 193.606 122.808 192.479 123.316C191.572 123.736 190.71 124.2 190.003 124.643C190.379 125.394 190.556 126.123 190.556 126.809C190.556 129.638 187.682 131.87 184.654 132.18L184.3 132.202ZM184.212 131.185C184.3 131.185 184.411 131.185 184.543 131.163C186.488 130.832 189.097 129.085 189.097 126.941C189.097 126.433 188.986 125.902 188.699 125.328C187.041 126.367 184.3 128.245 183.659 130.168C183.593 130.367 183.549 130.522 183.549 130.655C183.549 131.03 183.792 131.185 184.212 131.185Z" fill="#D9DBD9"/>
<path d="M199.021 116.309C198.889 116.309 198.756 116.287 198.646 116.221C198.491 116.111 198.402 115.934 198.402 115.668V115.536C198.491 115.094 198.8 114.254 199.198 113.723C199.331 113.546 199.463 113.392 199.618 113.303C199.706 113.237 199.817 113.215 199.928 113.215C200.016 113.215 200.082 113.237 200.171 113.281C200.281 113.37 200.414 113.502 200.502 113.701C200.546 113.812 200.591 113.944 200.613 114.077C200.635 114.21 200.635 114.342 200.635 114.497C200.613 114.541 200.613 114.585 200.613 114.63L200.591 114.762C200.48 115.514 199.95 116.022 199.463 116.221C199.309 116.287 199.154 116.309 199.021 116.309ZM195.905 128.754C194.556 128.754 193.672 128.091 193.672 126.455C193.672 125.925 193.761 125.284 193.96 124.532C194.269 123.383 194.755 122.145 195.418 120.885C195.883 119.934 196.369 119.117 197.54 118.873L197.806 118.829L198.049 118.873C198.226 118.94 198.336 119.05 198.38 119.249C198.402 119.316 198.402 119.382 198.402 119.47C198.402 119.78 198.292 120.2 197.96 120.752C197.231 122.012 196.612 123.537 196.214 124.819C196.037 125.394 195.949 125.858 195.949 126.256C195.949 127.118 196.391 127.494 197.12 127.494C199.021 127.494 202.889 124.996 206.161 122.034L206.934 121.482C207.155 121.327 207.376 121.283 207.531 121.283C207.62 121.283 207.686 121.283 207.752 121.305C207.841 121.349 207.907 121.371 207.951 121.437C208.017 121.482 208.04 121.548 208.062 121.636V121.703C208.062 121.791 208.017 121.902 207.907 121.99C204.636 125.261 199.021 128.754 195.905 128.754Z" fill="#D9DBD9"/>
<path d="M211.819 129.881C211.2 129.881 210.736 129.616 210.449 129.041C210.338 128.776 210.272 128.422 210.272 128.024C210.272 126.72 210.78 124.908 210.957 124.289C210.979 124.156 211.134 123.714 211.134 123.648C211.046 123.67 210.957 123.825 210.869 123.891C210.316 124.421 209.764 125.085 209.233 125.637C208.46 126.499 207.133 127.98 206.183 128.511C205.896 128.665 205.652 128.754 205.431 128.754C204.768 128.754 204.437 128.046 204.437 127.03C204.437 124.797 206.006 120.995 209.366 119.05C210.029 118.652 210.559 118.453 211.001 118.453C211.665 118.453 212.062 118.962 212.261 120.023C212.416 119.691 214.118 117.614 214.273 117.437C214.428 117.26 214.626 117.194 214.781 117.194C215.069 117.194 215.312 117.393 215.312 117.768C215.312 117.879 215.29 118.034 215.223 118.21C215.201 118.255 215.179 118.321 215.135 118.365C214.781 119.072 214.383 119.78 214.03 120.509C213.764 121.084 211.841 125.261 211.841 127.339C211.841 128.024 212.04 128.489 212.637 128.489C212.748 128.489 212.88 128.466 213.035 128.422C215.599 127.494 219.379 123.604 221.412 121.681C221.655 121.415 221.965 121.172 222.23 120.907C222.385 120.752 222.672 120.598 222.915 120.598C223.114 120.598 223.269 120.708 223.269 120.995V121.04C223.114 121.681 215.312 129.881 211.819 129.881ZM205.785 126.941C205.94 126.941 206.426 126.588 207.421 125.637C207.929 125.129 211.863 120.863 211.863 120.553C211.797 120.62 211.709 120.642 211.62 120.642C211.377 120.642 211.112 120.377 211.09 120.377L211.068 120.443C211.001 120.531 210.67 120.708 210.559 120.796C209.344 121.791 208.437 122.874 207.531 124.09C206.868 124.974 205.719 126.543 205.719 126.875C205.719 126.919 205.741 126.941 205.785 126.941Z" fill="#D9DBD9"/>
<path d="M233.51 131.124C232.429 131.124 231.476 130.851 230.649 130.305C229.822 129.754 229.175 128.977 228.708 127.976C228.241 126.969 228.007 125.779 228.007 124.406C228.007 123.045 228.241 121.863 228.708 120.862C229.175 119.86 229.825 119.087 230.657 118.541C231.49 117.995 232.452 117.722 233.543 117.722C234.387 117.722 235.054 117.863 235.544 118.144C236.039 118.42 236.416 118.735 236.674 119.089C236.939 119.438 237.144 119.725 237.29 119.95H237.459V113.57H239.451V130.854H237.527V128.862H237.29C237.144 129.098 236.936 129.396 236.666 129.757C236.396 130.111 236.01 130.429 235.51 130.71C235.009 130.986 234.342 131.124 233.51 131.124ZM233.78 129.335C234.579 129.335 235.254 129.126 235.805 128.71C236.356 128.288 236.776 127.706 237.063 126.963C237.35 126.215 237.493 125.351 237.493 124.372C237.493 123.405 237.352 122.558 237.071 121.832C236.79 121.101 236.373 120.532 235.822 120.127C235.271 119.717 234.59 119.511 233.78 119.511C232.936 119.511 232.233 119.728 231.67 120.161C231.113 120.589 230.694 121.171 230.412 121.908C230.137 122.639 229.999 123.461 229.999 124.372C229.999 125.295 230.14 126.133 230.421 126.887C230.708 127.635 231.13 128.232 231.687 128.676C232.249 129.115 232.947 129.335 233.78 129.335Z" fill="#D9DBD9"/>
<path d="M247.19 131.157C246.368 131.157 245.623 131.003 244.953 130.693C244.284 130.378 243.752 129.925 243.358 129.335C242.964 128.738 242.767 128.018 242.767 127.174C242.767 126.431 242.914 125.829 243.206 125.368C243.499 124.901 243.89 124.535 244.379 124.271C244.869 124.007 245.409 123.81 246 123.68C246.596 123.545 247.195 123.438 247.797 123.36C248.585 123.258 249.223 123.182 249.713 123.132C250.208 123.075 250.568 122.983 250.793 122.853C251.024 122.724 251.139 122.499 251.139 122.178V122.111C251.139 121.278 250.911 120.631 250.456 120.17C250.006 119.708 249.322 119.478 248.405 119.478C247.454 119.478 246.709 119.686 246.168 120.102C245.628 120.518 245.249 120.963 245.029 121.435L243.139 120.76C243.476 119.973 243.926 119.359 244.489 118.921C245.057 118.476 245.676 118.167 246.346 117.992C247.021 117.812 247.685 117.722 248.337 117.722C248.754 117.722 249.232 117.773 249.772 117.874C250.318 117.97 250.844 118.169 251.35 118.473C251.862 118.777 252.287 119.236 252.624 119.849C252.962 120.462 253.131 121.284 253.131 122.313V130.854H251.139V129.098H251.038C250.903 129.38 250.678 129.681 250.363 130.001C250.048 130.322 249.629 130.595 249.105 130.82C248.582 131.045 247.944 131.157 247.19 131.157ZM247.493 129.368C248.281 129.368 248.945 129.214 249.485 128.904C250.031 128.595 250.442 128.195 250.717 127.706C250.999 127.216 251.139 126.702 251.139 126.161V124.339C251.055 124.44 250.869 124.533 250.582 124.617C250.301 124.696 249.975 124.766 249.603 124.828C249.238 124.884 248.88 124.935 248.531 124.98C248.188 125.019 247.91 125.053 247.696 125.081C247.178 125.149 246.695 125.258 246.244 125.41C245.8 125.557 245.44 125.779 245.164 126.077C244.894 126.37 244.759 126.769 244.759 127.275C244.759 127.967 245.015 128.491 245.527 128.845C246.045 129.194 246.7 129.368 247.493 129.368Z" fill="#D9DBD9"/>
<path d="M274.05 117.891L269.256 130.854H267.231L262.437 117.891H264.598L268.176 128.221H268.311L271.889 117.891H274.05Z" fill="#D9DBD9"/>
<path d="M276.678 130.854V117.891H278.67V130.854H276.678ZM277.691 115.731C277.303 115.731 276.968 115.598 276.687 115.334C276.411 115.069 276.273 114.752 276.273 114.38C276.273 114.009 276.411 113.691 276.687 113.427C276.968 113.162 277.303 113.03 277.691 113.03C278.079 113.03 278.411 113.162 278.687 113.427C278.968 113.691 279.109 114.009 279.109 114.38C279.109 114.752 278.968 115.069 278.687 115.334C278.411 115.598 278.079 115.731 277.691 115.731Z" fill="#D9DBD9"/>
<path d="M287.213 131.124C286.132 131.124 285.179 130.851 284.352 130.305C283.525 129.754 282.878 128.977 282.411 127.976C281.944 126.969 281.71 125.779 281.71 124.406C281.71 123.045 281.944 121.863 282.411 120.862C282.878 119.86 283.528 119.087 284.36 118.541C285.193 117.995 286.155 117.722 287.246 117.722C288.09 117.722 288.757 117.863 289.247 118.144C289.742 118.42 290.119 118.735 290.377 119.089C290.642 119.438 290.847 119.725 290.993 119.95H291.162V113.57H293.154V130.854H291.23V128.862H290.993C290.847 129.098 290.639 129.396 290.369 129.757C290.099 130.111 289.713 130.429 289.213 130.71C288.712 130.986 288.045 131.124 287.213 131.124ZM287.483 129.335C288.282 129.335 288.957 129.126 289.508 128.71C290.059 128.288 290.479 127.706 290.766 126.963C291.053 126.215 291.196 125.351 291.196 124.372C291.196 123.405 291.055 122.558 290.774 121.832C290.493 121.101 290.076 120.532 289.525 120.127C288.974 119.717 288.293 119.511 287.483 119.511C286.639 119.511 285.936 119.728 285.373 120.161C284.816 120.589 284.397 121.171 284.115 121.908C283.84 122.639 283.702 123.461 283.702 124.372C283.702 125.295 283.843 126.133 284.124 126.887C284.411 127.635 284.833 128.232 285.39 128.676C285.952 129.115 286.65 129.335 287.483 129.335Z" fill="#D9DBD9"/>
<path d="M300.893 131.157C300.071 131.157 299.326 131.003 298.656 130.693C297.987 130.378 297.455 129.925 297.061 129.335C296.667 128.738 296.47 128.018 296.47 127.174C296.47 126.431 296.617 125.829 296.909 125.368C297.202 124.901 297.593 124.535 298.082 124.271C298.572 124.007 299.112 123.81 299.703 123.68C300.299 123.545 300.898 123.438 301.5 123.36C302.288 123.258 302.926 123.182 303.416 123.132C303.911 123.075 304.271 122.983 304.496 122.853C304.727 122.724 304.842 122.499 304.842 122.178V122.111C304.842 121.278 304.614 120.631 304.159 120.17C303.709 119.708 303.025 119.478 302.108 119.478C301.157 119.478 300.412 119.686 299.871 120.102C299.331 120.518 298.952 120.963 298.732 121.435L296.842 120.76C297.179 119.973 297.629 119.359 298.192 118.921C298.76 118.476 299.379 118.167 300.049 117.992C300.724 117.812 301.388 117.722 302.04 117.722C302.457 117.722 302.935 117.773 303.475 117.874C304.021 117.97 304.547 118.169 305.053 118.473C305.565 118.777 305.99 119.236 306.327 119.849C306.665 120.462 306.834 121.284 306.834 122.313V130.854H304.842V129.098H304.741C304.606 129.38 304.381 129.681 304.066 130.001C303.751 130.322 303.332 130.595 302.808 130.82C302.285 131.045 301.647 131.157 300.893 131.157ZM301.196 129.368C301.984 129.368 302.648 129.214 303.188 128.904C303.734 128.595 304.145 128.195 304.42 127.706C304.702 127.216 304.842 126.702 304.842 126.161V124.339C304.758 124.44 304.572 124.533 304.285 124.617C304.004 124.696 303.678 124.766 303.306 124.828C302.941 124.884 302.583 124.935 302.234 124.98C301.891 125.019 301.613 125.053 301.399 125.081C300.881 125.149 300.398 125.258 299.947 125.41C299.503 125.557 299.143 125.779 298.867 126.077C298.597 126.37 298.462 126.769 298.462 127.275C298.462 127.967 298.718 128.491 299.23 128.845C299.748 129.194 300.403 129.368 301.196 129.368Z" fill="#D9DBD9"/>
</svg>
