<svg width="264" height="156" viewBox="0 0 264 156" fill="none" xmlns="http://www.w3.org/2000/svg">
<path d="M23.5761 111.782C23.5761 114.359 23.1107 116.587 22.1801 118.464C21.2495 120.341 19.9728 121.789 18.3502 122.807C16.7275 123.825 14.8742 124.334 12.7902 124.334C10.7062 124.334 8.85283 123.825 7.23017 122.807C5.60751 121.789 4.33086 120.341 3.40022 118.464C2.46957 116.587 2.00425 114.359 2.00425 111.782C2.00425 109.205 2.46957 106.978 3.40022 105.101C4.33086 103.224 5.60751 101.776 7.23017 100.758C8.85283 99.7397 10.7062 99.2306 12.7902 99.2306C14.8742 99.2306 16.7275 99.7397 18.3502 100.758C19.9728 101.776 21.2495 103.224 22.1801 105.101C23.1107 106.978 23.5761 109.205 23.5761 111.782ZM20.7126 111.782C20.7126 109.667 20.3586 107.881 19.6507 106.425C18.9507 104.97 18.0002 103.868 16.7991 103.12C15.606 102.373 14.2696 101.999 12.7902 101.999C11.3107 101.999 9.97039 102.373 8.76931 103.12C7.57618 103.868 6.62565 104.97 5.91772 106.425C5.21775 107.881 4.86777 109.667 4.86777 111.782C4.86777 113.898 5.21775 115.684 5.91772 117.139C6.62565 118.595 7.57618 119.697 8.76931 120.444C9.97039 121.192 11.3107 121.566 12.7902 121.566C14.2696 121.566 15.606 121.192 16.7991 120.444C18.0002 119.697 18.9507 118.595 19.6507 117.139C20.3586 115.684 20.7126 113.898 20.7126 111.782Z" fill="white"/>
<path d="M30.9854 112.975V124H28.1696V105.674H30.89V108.537H31.1286C31.5581 107.606 32.2104 106.859 33.0853 106.294C33.9603 105.721 35.0898 105.435 36.4738 105.435C37.7147 105.435 38.8004 105.689 39.7311 106.198C40.6617 106.7 41.3855 107.463 41.9026 108.489C42.4196 109.507 42.6781 110.796 42.6781 112.355V124H39.8623V112.546C39.8623 111.106 39.4885 109.985 38.7408 109.181C37.9931 108.37 36.967 107.964 35.6625 107.964C34.7637 107.964 33.9603 108.159 33.2524 108.549C32.5524 108.939 31.9996 109.507 31.5939 110.255C31.1882 111.003 30.9854 111.91 30.9854 112.975Z" fill="white"/>
<path d="M54.7436 124.382C53.2164 124.382 51.8682 123.996 50.6989 123.224C49.5297 122.445 48.6149 121.347 47.9547 119.931C47.2945 118.508 46.9644 116.825 46.9644 114.884C46.9644 112.96 47.2945 111.289 47.9547 109.873C48.6149 108.457 49.5336 107.364 50.7109 106.592C51.8881 105.821 53.2483 105.435 54.7914 105.435C55.9845 105.435 56.9271 105.634 57.6191 106.031C58.3191 106.421 58.852 106.867 59.2179 107.368C59.5917 107.861 59.8821 108.267 60.0889 108.585H60.3275V99.5647H63.1433V124H60.423V121.184H60.0889C59.8821 121.518 59.5878 121.94 59.206 122.449C58.8242 122.95 58.2793 123.399 57.5714 123.797C56.8634 124.187 55.9209 124.382 54.7436 124.382ZM55.1254 121.852C56.2549 121.852 57.2095 121.558 57.989 120.969C58.7685 120.373 59.3611 119.55 59.7667 118.5C60.1724 117.442 60.3752 116.221 60.3752 114.837C60.3752 113.469 60.1764 112.272 59.7787 111.245C59.3809 110.211 58.7923 109.408 58.0128 108.835C57.2333 108.255 56.2709 107.964 55.1254 107.964C53.9323 107.964 52.938 108.271 52.1426 108.883C51.3552 109.488 50.7626 110.311 50.3649 111.353C49.9751 112.387 49.7802 113.548 49.7802 114.837C49.7802 116.141 49.9791 117.326 50.3768 118.392C50.7825 119.45 51.379 120.293 52.1665 120.922C52.9619 121.542 53.9482 121.852 55.1254 121.852Z" fill="white"/>
<path d="M76.3751 124.382C74.6093 124.382 73.086 123.992 71.8054 123.213C70.5327 122.425 69.5504 121.327 68.8584 119.919C68.1743 118.504 67.8323 116.857 67.8323 114.98C67.8323 113.103 68.1743 111.448 68.8584 110.017C69.5504 108.577 70.5129 107.455 71.7458 106.652C72.9866 105.841 74.4343 105.435 76.0888 105.435C77.0433 105.435 77.9858 105.594 78.9165 105.912C79.8471 106.23 80.6943 106.747 81.4579 107.463C82.2215 108.171 82.83 109.11 83.2833 110.279C83.7367 111.448 83.9634 112.888 83.9634 114.598V115.791H69.8368V113.357H81.0999C81.0999 112.323 80.8931 111.401 80.4795 110.589C80.0738 109.778 79.4932 109.138 78.7375 108.668C77.9898 108.199 77.1069 107.964 76.0888 107.964C74.9672 107.964 73.9968 108.243 73.1775 108.8C72.3662 109.348 71.7418 110.064 71.3043 110.947C70.8668 111.83 70.6481 112.777 70.6481 113.787V115.409C70.6481 116.793 70.8867 117.967 71.364 118.929C71.8492 119.884 72.5213 120.612 73.3804 121.113C74.2394 121.606 75.2377 121.852 76.3751 121.852C77.1149 121.852 77.783 121.749 78.3796 121.542C78.9841 121.327 79.5051 121.009 79.9426 120.588C80.3801 120.158 80.7181 119.625 80.9567 118.989L83.6771 119.752C83.3907 120.675 82.9095 121.486 82.2334 122.186C81.5573 122.878 80.7221 123.419 79.7278 123.809C78.7335 124.191 77.616 124.382 76.3751 124.382Z" fill="white"/>
<path d="M103.089 124.43C101.928 124.43 100.874 124.211 99.9275 123.773C98.981 123.328 98.2293 122.688 97.6725 121.852C97.1157 121.009 96.8373 119.991 96.8373 118.798C96.8373 117.748 97.0441 116.897 97.4577 116.245C97.8714 115.584 98.4242 115.067 99.1162 114.694C99.8082 114.32 100.572 114.041 101.407 113.858C102.25 113.667 103.097 113.516 103.948 113.405C105.062 113.262 105.965 113.154 106.657 113.083C107.357 113.003 107.866 112.872 108.184 112.689C108.51 112.506 108.673 112.188 108.673 111.735V111.639C108.673 110.462 108.351 109.547 107.707 108.895C107.07 108.243 106.104 107.917 104.807 107.917C103.463 107.917 102.409 108.211 101.646 108.8C100.882 109.388 100.345 110.016 100.035 110.685L97.3623 109.73C97.8395 108.617 98.4759 107.75 99.2713 107.129C100.075 106.501 100.95 106.063 101.896 105.817C102.851 105.562 103.789 105.435 104.712 105.435C105.301 105.435 105.977 105.506 106.74 105.65C107.512 105.785 108.256 106.067 108.971 106.497C109.695 106.926 110.296 107.575 110.773 108.442C111.25 109.309 111.489 110.47 111.489 111.926V124H108.673V121.518H108.53C108.339 121.916 108.021 122.342 107.576 122.795C107.13 123.248 106.537 123.634 105.798 123.952C105.058 124.27 104.155 124.43 103.089 124.43ZM103.519 121.9C104.632 121.9 105.571 121.681 106.335 121.244C107.106 120.806 107.687 120.242 108.077 119.55C108.474 118.858 108.673 118.13 108.673 117.366V114.789C108.554 114.932 108.291 115.063 107.886 115.183C107.488 115.294 107.027 115.394 106.502 115.481C105.985 115.561 105.48 115.632 104.986 115.696C104.501 115.751 104.107 115.799 103.805 115.839C103.073 115.934 102.389 116.09 101.753 116.304C101.125 116.511 100.616 116.825 100.226 117.247C99.844 117.66 99.6531 118.225 99.6531 118.941C99.6531 119.919 100.015 120.659 100.739 121.16C101.471 121.654 102.397 121.9 103.519 121.9Z" fill="white"/>
<path d="M138.956 124.336C137.971 124.336 137.209 124.022 136.671 123.395C136.156 122.746 135.899 121.939 135.899 120.976C135.899 120.439 135.943 119.811 136.033 119.095C136.145 118.355 136.313 117.471 136.537 116.44L137.108 113.82C137.175 113.506 137.265 113.114 137.377 112.644C137.489 112.173 137.59 111.681 137.679 111.165C137.769 110.65 137.814 110.202 137.814 109.821C137.814 109.373 137.713 108.937 137.511 108.511C137.332 108.063 136.918 107.839 136.268 107.839C135.574 107.839 134.88 108.097 134.185 108.612C133.491 109.127 132.841 109.788 132.236 110.594C131.654 111.401 131.15 112.24 130.725 113.114C130.321 113.965 130.053 114.727 129.918 115.399L128.104 124H124.979L127.801 110.493C127.869 110.18 127.913 109.877 127.936 109.586C127.981 109.273 128.003 109.071 128.003 108.981C128.003 108.309 127.768 107.884 127.297 107.705C126.849 107.503 126.301 107.402 125.651 107.402H125.382L125.685 105.991H131.9L130.993 110.225H131.329C132.248 108.746 133.177 107.626 134.118 106.865C135.081 106.081 136.19 105.689 137.444 105.689C138.34 105.689 139.046 105.868 139.561 106.226C140.076 106.562 140.446 107.01 140.67 107.57C140.916 108.13 141.039 108.746 141.039 109.418C141.039 109.978 140.961 110.594 140.804 111.266C140.67 111.916 140.547 112.532 140.435 113.114L139.561 117.079C139.427 117.706 139.315 118.322 139.225 118.927C139.158 119.531 139.124 120.091 139.124 120.607C139.124 121.122 139.225 121.525 139.427 121.816C139.651 122.085 139.942 122.219 140.3 122.219C140.659 122.219 141.006 122.152 141.342 122.018C141.7 121.883 142.07 121.693 142.45 121.447L143.055 122.421C142.518 122.869 141.913 123.306 141.241 123.731C140.591 124.134 139.83 124.336 138.956 124.336Z" fill="white"/>
<path d="M149.393 124.336C148.407 124.336 147.59 124.067 146.94 123.53C146.291 122.992 145.809 122.264 145.496 121.346C145.204 120.405 145.059 119.352 145.059 118.187C145.059 117.135 145.193 116.037 145.462 114.895C145.753 113.73 146.179 112.61 146.739 111.535C147.299 110.437 147.982 109.452 148.788 108.578C149.595 107.682 150.524 106.977 151.577 106.462C152.63 105.924 153.794 105.655 155.071 105.655C155.609 105.655 156.113 105.711 156.583 105.823C157.076 105.913 157.524 106.047 157.927 106.226C158.353 106.406 158.711 106.618 159.002 106.865L160.481 106.025H161.556L159.271 116.776C159.226 117.023 159.159 117.381 159.069 117.851C158.98 118.322 158.901 118.803 158.834 119.296C158.789 119.789 158.767 120.192 158.767 120.506C158.767 121.066 158.857 121.491 159.036 121.782C159.237 122.074 159.517 122.219 159.876 122.219C160.257 122.219 160.649 122.141 161.052 121.984C161.455 121.805 161.869 121.592 162.295 121.346L162.9 122.32C162.586 122.611 162.16 122.914 161.623 123.227C161.085 123.541 160.514 123.798 159.909 124C159.305 124.224 158.722 124.336 158.162 124.336C157.356 124.336 156.717 124.09 156.247 123.597C155.777 123.104 155.542 122.421 155.542 121.547C155.542 121.099 155.564 120.696 155.609 120.338C155.676 119.957 155.766 119.487 155.878 118.927H155.676C155.161 120.069 154.578 121.043 153.929 121.85C153.302 122.656 152.607 123.272 151.846 123.698C151.107 124.123 150.289 124.336 149.393 124.336ZM150.603 122.219C151.185 122.219 151.779 121.995 152.383 121.547C153.01 121.099 153.593 120.495 154.13 119.733C154.69 118.971 155.183 118.12 155.609 117.179C156.034 116.239 156.348 115.287 156.549 114.324L157.793 108.377C157.546 107.973 157.188 107.671 156.717 107.469C156.247 107.268 155.754 107.167 155.239 107.167C154.343 107.167 153.537 107.425 152.82 107.94C152.103 108.433 151.476 109.093 150.939 109.922C150.401 110.751 149.942 111.658 149.561 112.644C149.203 113.629 148.934 114.626 148.755 115.634C148.575 116.62 148.486 117.515 148.486 118.322C148.486 119.711 148.687 120.707 149.091 121.312C149.494 121.917 149.998 122.219 150.603 122.219Z" fill="white"/>
<path d="M169.22 124.336C168.413 124.336 167.741 124.19 167.204 123.899C166.666 123.608 166.252 123.171 165.961 122.589C165.692 122.006 165.557 121.279 165.557 120.405C165.557 120.002 165.591 119.543 165.658 119.027C165.725 118.49 165.804 118.008 165.893 117.583L167.943 107.906H165.389L165.692 106.562C166.162 106.562 166.632 106.484 167.103 106.327C167.573 106.148 168.032 105.879 168.48 105.521C168.928 105.14 169.343 104.658 169.724 104.076C170.127 103.471 170.496 102.732 170.832 101.859H172.378L171.504 105.991H175.57L175.167 107.906H171.101L169.052 117.482C168.94 118.042 168.839 118.579 168.749 119.095C168.682 119.587 168.648 120.013 168.648 120.371C168.648 121.021 168.805 121.491 169.119 121.782C169.432 122.074 169.869 122.219 170.429 122.219C170.9 122.219 171.381 122.152 171.874 122.018C172.389 121.861 172.826 121.682 173.184 121.48L173.755 122.723C173.083 123.194 172.367 123.586 171.605 123.899C170.866 124.19 170.071 124.336 169.22 124.336Z" fill="white"/>
<path d="M190.762 124.336C190.179 124.336 189.675 124.19 189.25 123.899C188.824 123.608 188.499 123.227 188.275 122.757C188.052 122.264 187.939 121.726 187.939 121.144C187.939 120.898 187.951 120.595 187.973 120.237C188.018 119.879 188.063 119.52 188.107 119.162H187.839C187.212 120.17 186.596 121.066 185.991 121.85C185.386 122.611 184.714 123.216 183.975 123.664C183.236 124.09 182.362 124.302 181.354 124.302C180.481 124.302 179.775 124.134 179.237 123.798C178.722 123.44 178.342 122.981 178.095 122.421C177.871 121.838 177.759 121.223 177.759 120.573C177.759 120.013 177.826 119.397 177.961 118.725C178.095 118.053 178.23 117.437 178.364 116.877L179.674 110.997C179.741 110.684 179.809 110.292 179.876 109.821C179.943 109.351 179.977 109.071 179.977 108.981C179.977 108.309 179.741 107.884 179.271 107.705C178.823 107.503 178.274 107.402 177.625 107.402H177.356L177.658 105.991H183.908L181.69 116.037C181.556 116.642 181.41 117.347 181.253 118.154C181.097 118.96 181.018 119.61 181.018 120.103C181.018 120.663 181.13 121.144 181.354 121.547C181.578 121.95 182.015 122.152 182.665 122.152C183.269 122.152 183.896 121.928 184.546 121.48C185.196 121.01 185.823 120.394 186.428 119.632C187.032 118.871 187.559 118.031 188.007 117.112C188.455 116.194 188.779 115.276 188.981 114.357L190.728 105.991H193.987L191.669 116.776C191.624 117.023 191.557 117.381 191.467 117.851C191.378 118.322 191.299 118.803 191.232 119.296C191.187 119.789 191.165 120.192 191.165 120.506C191.165 121.066 191.255 121.491 191.434 121.782C191.635 122.074 191.915 122.219 192.274 122.219C192.655 122.219 193.002 122.163 193.315 122.051C193.629 121.917 193.998 121.726 194.424 121.48L195.029 122.454C194.536 122.88 193.909 123.306 193.147 123.731C192.408 124.134 191.613 124.336 190.762 124.336Z" fill="white"/>
<path d="M199.855 110.493C199.922 110.18 199.967 109.877 199.989 109.586C200.034 109.273 200.056 109.071 200.056 108.981C200.056 108.309 199.765 107.884 199.183 107.705C198.623 107.503 198.018 107.402 197.368 107.402H197.1L197.402 105.991H203.349L202.643 110.829H202.979C203.405 109.911 203.864 109.06 204.357 108.276C204.85 107.492 205.443 106.865 206.138 106.394C206.832 105.902 207.683 105.655 208.691 105.655C209.632 105.655 210.326 105.879 210.774 106.327C211.222 106.753 211.446 107.302 211.446 107.973C211.446 108.757 211.222 109.385 210.774 109.855C210.349 110.303 209.643 110.527 208.658 110.527C208.658 109.721 208.568 109.082 208.389 108.612C208.21 108.119 207.851 107.873 207.314 107.873C206.731 107.873 206.138 108.175 205.533 108.78C204.95 109.385 204.39 110.191 203.853 111.199C203.338 112.184 202.867 113.271 202.442 114.458C202.016 115.623 201.68 116.765 201.434 117.885L200.157 124H197.032L199.855 110.493Z" fill="white"/>
<path d="M218.611 124.336C217.424 124.336 216.326 124.078 215.318 123.563C214.333 123.048 213.537 122.286 212.933 121.279C212.35 120.248 212.059 118.949 212.059 117.381C212.059 116.396 212.193 115.365 212.462 114.29C212.753 113.192 213.168 112.14 213.705 111.132C214.243 110.101 214.915 109.172 215.721 108.343C216.528 107.514 217.457 106.865 218.51 106.394C219.585 105.902 220.772 105.655 222.071 105.655C223.483 105.655 224.58 106.002 225.364 106.697C226.148 107.369 226.54 108.309 226.54 109.519C226.54 110.684 226.115 111.781 225.263 112.812C224.435 113.842 223.281 114.671 221.803 115.298C220.347 115.925 218.678 116.239 216.796 116.239H215.621C215.598 116.485 215.576 116.732 215.553 116.978C215.553 117.202 215.553 117.426 215.553 117.65C215.553 119.083 215.867 120.203 216.494 121.01C217.121 121.816 218.04 122.219 219.249 122.219C220.324 122.219 221.276 121.962 222.105 121.447C222.956 120.931 223.617 120.383 224.087 119.8C224.311 119.957 224.423 120.237 224.423 120.64C224.423 121.133 224.211 121.671 223.785 122.253C223.382 122.813 222.755 123.306 221.903 123.731C221.052 124.134 219.955 124.336 218.611 124.336ZM216.259 114.693C217.58 114.693 218.745 114.48 219.753 114.055C220.784 113.607 221.59 113.002 222.172 112.24C222.777 111.457 223.079 110.549 223.079 109.519C223.079 108.757 222.911 108.197 222.575 107.839C222.239 107.458 221.758 107.268 221.131 107.268C220.504 107.268 219.91 107.492 219.35 107.94C218.79 108.365 218.286 108.948 217.838 109.687C217.39 110.404 216.998 111.199 216.662 112.073C216.349 112.946 216.102 113.82 215.923 114.693H216.259Z" fill="white"/>
<path d="M227.15 124L227.419 122.656L238.843 107.906H234.576C233.993 107.906 233.512 108.007 233.131 108.209C232.773 108.41 232.47 108.713 232.224 109.116C231.977 109.519 231.709 110.023 231.417 110.628L231.35 110.762H229.939L231.283 105.991H243.042L242.774 107.369L231.317 122.085H237.297C237.812 122.085 238.238 121.962 238.574 121.715C238.932 121.447 239.235 121.099 239.481 120.674C239.727 120.248 239.951 119.8 240.153 119.33L240.489 118.557H241.9L240.59 124H227.15Z" fill="white"/>
<path d="M250.123 124.336C249.138 124.336 248.32 124.067 247.67 123.53C247.021 122.992 246.539 122.264 246.226 121.346C245.935 120.405 245.789 119.352 245.789 118.187C245.789 117.135 245.923 116.037 246.192 114.895C246.483 113.73 246.909 112.61 247.469 111.535C248.029 110.437 248.712 109.452 249.518 108.578C250.325 107.682 251.254 106.977 252.307 106.462C253.36 105.924 254.525 105.655 255.801 105.655C256.339 105.655 256.843 105.711 257.313 105.823C257.806 105.913 258.254 106.047 258.657 106.226C259.083 106.406 259.441 106.618 259.732 106.865L261.211 106.025H262.286L260.001 116.776C259.956 117.023 259.889 117.381 259.8 117.851C259.71 118.322 259.632 118.803 259.564 119.296C259.52 119.789 259.497 120.192 259.497 120.506C259.497 121.066 259.587 121.491 259.766 121.782C259.968 122.074 260.248 122.219 260.606 122.219C260.987 122.219 261.379 122.141 261.782 121.984C262.185 121.805 262.599 121.592 263.025 121.346L263.63 122.32C263.316 122.611 262.891 122.914 262.353 123.227C261.815 123.541 261.244 123.798 260.639 124C260.035 124.224 259.452 124.336 258.892 124.336C258.086 124.336 257.448 124.09 256.977 123.597C256.507 123.104 256.272 122.421 256.272 121.547C256.272 121.099 256.294 120.696 256.339 120.338C256.406 119.957 256.496 119.487 256.608 118.927H256.406C255.891 120.069 255.309 121.043 254.659 121.85C254.032 122.656 253.337 123.272 252.576 123.698C251.837 124.123 251.019 124.336 250.123 124.336ZM251.333 122.219C251.915 122.219 252.509 121.995 253.113 121.547C253.741 121.099 254.323 120.495 254.861 119.733C255.421 118.971 255.913 118.12 256.339 117.179C256.764 116.239 257.078 115.287 257.28 114.324L258.523 108.377C258.276 107.973 257.918 107.671 257.448 107.469C256.977 107.268 256.484 107.167 255.969 107.167C255.073 107.167 254.267 107.425 253.55 107.94C252.833 108.433 252.206 109.093 251.669 109.922C251.131 110.751 250.672 111.658 250.291 112.644C249.933 113.629 249.664 114.626 249.485 115.634C249.306 116.62 249.216 117.515 249.216 118.322C249.216 119.711 249.418 120.707 249.821 121.312C250.224 121.917 250.728 122.219 251.333 122.219Z" fill="white"/>
<path d="M15.5582 140.778L13.0288 141.494C12.8697 141.072 12.6351 140.663 12.3248 140.265C12.0226 139.859 11.609 139.525 11.084 139.263C10.559 139 9.88687 138.869 9.06759 138.869C7.94605 138.869 7.01143 139.127 6.26373 139.644C5.52399 140.153 5.15412 140.802 5.15412 141.589C5.15412 142.289 5.40865 142.842 5.91772 143.248C6.42679 143.653 7.22221 143.991 8.30399 144.262L11.0243 144.93C12.6629 145.328 13.8839 145.936 14.6872 146.755C15.4906 147.567 15.8923 148.613 15.8923 149.893C15.8923 150.943 15.59 151.882 14.9855 152.709C14.389 153.536 13.5538 154.189 12.4799 154.666C11.4061 155.143 10.1573 155.382 8.73351 155.382C6.86427 155.382 5.31718 154.976 4.09223 154.165C2.86728 153.353 2.09175 152.168 1.76562 150.609L4.43824 149.941C4.69277 150.927 5.174 151.667 5.88193 152.16C6.59781 152.654 7.53243 152.9 8.68579 152.9C9.99823 152.9 11.0402 152.622 11.8118 152.065C12.5913 151.5 12.9811 150.824 12.9811 150.037C12.9811 149.4 12.7583 148.867 12.3129 148.438C11.8675 148 11.1834 147.674 10.2607 147.459L7.2063 146.744C5.52797 146.346 4.29506 145.729 3.5076 144.894C2.72808 144.051 2.33833 142.997 2.33833 141.732C2.33833 140.698 2.62866 139.784 3.20931 138.988C3.79793 138.193 4.59732 137.568 5.60751 137.115C6.62565 136.662 7.77901 136.435 9.06759 136.435C10.8812 136.435 12.305 136.833 13.339 137.628C14.381 138.423 15.1207 139.473 15.5582 140.778Z" fill="white"/>
<path d="M27.8147 155.382C26.0488 155.382 24.5256 154.992 23.245 154.213C21.9723 153.425 20.99 152.327 20.2979 150.919C19.6139 149.504 19.2718 147.857 19.2718 145.98C19.2718 144.103 19.6139 142.448 20.2979 141.016C20.99 139.577 21.9524 138.455 23.1853 137.652C24.4262 136.841 25.8738 136.435 27.5283 136.435C28.4828 136.435 29.4254 136.594 30.356 136.912C31.2867 137.23 32.1338 137.747 32.8974 138.463C33.661 139.171 34.2695 140.11 34.7229 141.279C35.1763 142.448 35.403 143.888 35.403 145.598V146.791H21.2763V144.357H32.5395C32.5395 143.323 32.3327 142.401 31.919 141.589C31.5134 140.778 30.9327 140.138 30.1771 139.668C29.4294 139.199 28.5465 138.964 27.5283 138.964C26.4068 138.964 25.4364 139.243 24.6171 139.8C23.8057 140.348 23.1813 141.064 22.7439 141.947C22.3064 142.83 22.0876 143.777 22.0876 144.787V146.409C22.0876 147.793 22.3263 148.967 22.8035 149.929C23.2887 150.884 23.9609 151.612 24.8199 152.113C25.679 152.606 26.6772 152.852 27.8147 152.852C28.5544 152.852 29.2226 152.749 29.8191 152.542C30.4236 152.327 30.9447 152.009 31.3821 151.588C31.8196 151.158 32.1577 150.625 32.3963 149.989L35.1166 150.752C34.8303 151.675 34.3491 152.486 33.6729 153.186C32.9968 153.878 32.1616 154.419 31.1674 154.809C30.1731 155.191 29.0555 155.382 27.8147 155.382Z" fill="white"/>
<path d="M57.106 136.674V139.06H47.6087V136.674H57.106ZM50.3768 132.283H53.1926V149.75C53.1926 150.546 53.3079 151.142 53.5386 151.54C53.7772 151.93 54.0795 152.192 54.4454 152.327C54.8192 152.455 55.2129 152.518 55.6266 152.518C55.9368 152.518 56.1913 152.502 56.3902 152.471C56.589 152.431 56.7481 152.399 56.8674 152.375L57.4401 154.905C57.2492 154.976 56.9828 155.048 56.6407 155.119C56.2987 155.199 55.8652 155.239 55.3402 155.239C54.5448 155.239 53.7653 155.068 53.0017 154.726C52.246 154.384 51.6176 153.863 51.1165 153.163C50.6234 152.463 50.3768 151.58 50.3768 150.514V132.283Z" fill="white"/>
<path d="M68.5899 155.382C66.9355 155.382 65.4838 154.988 64.235 154.201C62.9941 153.413 62.0237 152.311 61.3238 150.896C60.6317 149.48 60.2857 147.825 60.2857 145.932C60.2857 144.023 60.6317 142.357 61.3238 140.933C62.0237 139.509 62.9941 138.404 64.235 137.616C65.4838 136.829 66.9355 136.435 68.5899 136.435C70.2444 136.435 71.6921 136.829 72.9329 137.616C74.1817 138.404 75.1522 139.509 75.8442 140.933C76.5441 142.357 76.8941 144.023 76.8941 145.932C76.8941 147.825 76.5441 149.48 75.8442 150.896C75.1522 152.311 74.1817 153.413 72.9329 154.201C71.6921 154.988 70.2444 155.382 68.5899 155.382ZM68.5899 152.852C69.8467 152.852 70.8807 152.53 71.6921 151.886C72.5034 151.242 73.1039 150.395 73.4937 149.345C73.8835 148.295 74.0783 147.157 74.0783 145.932C74.0783 144.707 73.8835 143.566 73.4937 142.508C73.1039 141.45 72.5034 140.595 71.6921 139.943C70.8807 139.29 69.8467 138.964 68.5899 138.964C67.3332 138.964 66.2991 139.29 65.4878 139.943C64.6765 140.595 64.0759 141.45 63.6862 142.508C63.2964 143.566 63.1015 144.707 63.1015 145.932C63.1015 147.157 63.2964 148.295 63.6862 149.345C64.0759 150.395 64.6765 151.242 65.4878 151.886C66.2991 152.53 67.3332 152.852 68.5899 152.852Z" fill="white"/>
<path d="M81.1924 155V136.674H83.9127V139.442H84.1036C84.4377 138.535 85.0422 137.799 85.9172 137.234C86.7922 136.67 87.7785 136.387 88.8762 136.387C89.083 136.387 89.3415 136.391 89.6517 136.399C89.9619 136.407 90.1966 136.419 90.3556 136.435V139.298C90.2602 139.275 90.0414 139.239 89.6994 139.191C89.3653 139.135 89.0114 139.107 88.6375 139.107C87.7467 139.107 86.9512 139.294 86.2513 139.668C85.5593 140.034 85.0104 140.543 84.6047 141.195C84.207 141.84 84.0082 142.576 84.0082 143.403V155H81.1924Z" fill="white"/>
<path d="M96.5092 143.975V155H93.6934V136.674H96.4138V139.537H96.6524C97.0819 138.606 97.7342 137.859 98.6091 137.294C99.4841 136.721 100.614 136.435 101.998 136.435C103.238 136.435 104.324 136.689 105.255 137.198C106.186 137.7 106.909 138.463 107.426 139.489C107.943 140.507 108.202 141.796 108.202 143.355V155H105.386V143.546C105.386 142.106 105.012 140.985 104.265 140.181C103.517 139.37 102.491 138.964 101.186 138.964C100.287 138.964 99.4841 139.159 98.7762 139.549C98.0762 139.939 97.5234 140.507 97.1177 141.255C96.712 142.003 96.5092 142.91 96.5092 143.975Z" fill="white"/>
<path d="M118.74 155.43C117.579 155.43 116.525 155.211 115.578 154.773C114.632 154.328 113.88 153.688 113.323 152.852C112.767 152.009 112.488 150.991 112.488 149.798C112.488 148.748 112.695 147.897 113.109 147.245C113.522 146.584 114.075 146.067 114.767 145.694C115.459 145.32 116.223 145.041 117.058 144.858C117.901 144.667 118.748 144.516 119.599 144.405C120.713 144.262 121.616 144.154 122.308 144.083C123.008 144.003 123.517 143.872 123.835 143.689C124.161 143.506 124.324 143.188 124.324 142.735V142.639C124.324 141.462 124.002 140.547 123.358 139.895C122.721 139.243 121.755 138.917 120.458 138.917C119.114 138.917 118.06 139.211 117.297 139.8C116.533 140.388 115.996 141.017 115.686 141.685L113.013 140.73C113.49 139.617 114.127 138.75 114.922 138.129C115.726 137.501 116.601 137.063 117.547 136.817C118.502 136.562 119.44 136.435 120.363 136.435C120.952 136.435 121.628 136.506 122.391 136.65C123.163 136.785 123.906 137.067 124.622 137.497C125.346 137.926 125.947 138.575 126.424 139.442C126.901 140.309 127.14 141.47 127.14 142.926V155H124.324V152.518H124.181C123.99 152.916 123.672 153.342 123.226 153.795C122.781 154.248 122.188 154.634 121.449 154.952C120.709 155.27 119.806 155.43 118.74 155.43ZM119.17 152.9C120.283 152.9 121.222 152.681 121.986 152.244C122.757 151.806 123.338 151.242 123.728 150.55C124.125 149.858 124.324 149.13 124.324 148.366V145.789C124.205 145.932 123.942 146.063 123.537 146.183C123.139 146.294 122.678 146.394 122.153 146.481C121.636 146.561 121.13 146.632 120.637 146.696C120.152 146.751 119.758 146.799 119.456 146.839C118.724 146.934 118.04 147.09 117.404 147.304C116.776 147.511 116.266 147.825 115.877 148.247C115.495 148.66 115.304 149.225 115.304 149.941C115.304 150.919 115.666 151.659 116.39 152.16C117.122 152.654 118.048 152.9 119.17 152.9Z" fill="white"/>
<path d="M149.46 155.358C147.583 155.358 145.969 154.96 144.616 154.165C143.272 153.361 142.238 152.248 141.514 150.824C140.798 149.4 140.44 147.762 140.44 145.908C140.44 144.031 140.802 142.385 141.526 140.969C142.258 139.545 143.296 138.435 144.64 137.64C145.984 136.837 147.583 136.435 149.437 136.435C151.035 136.435 152.435 136.725 153.636 137.306C154.837 137.887 155.788 138.702 156.488 139.752C157.188 140.802 157.574 142.035 157.645 143.45H152.849C152.714 142.536 152.356 141.8 151.775 141.243C151.202 140.678 150.451 140.396 149.52 140.396C148.733 140.396 148.045 140.611 147.456 141.04C146.875 141.462 146.422 142.078 146.096 142.89C145.77 143.701 145.607 144.683 145.607 145.837C145.607 147.006 145.766 148 146.084 148.82C146.41 149.639 146.867 150.263 147.456 150.693C148.045 151.122 148.733 151.337 149.52 151.337C150.101 151.337 150.622 151.218 151.083 150.979C151.552 150.741 151.938 150.395 152.24 149.941C152.551 149.48 152.753 148.927 152.849 148.283H157.645C157.566 149.683 157.184 150.916 156.5 151.981C155.824 153.039 154.889 153.867 153.696 154.463C152.503 155.06 151.091 155.358 149.46 155.358Z" fill="white"/>
<path d="M166.125 155.346C164.956 155.346 163.914 155.143 162.999 154.738C162.085 154.324 161.361 153.715 160.828 152.912C160.303 152.101 160.04 151.091 160.04 149.881C160.04 148.863 160.227 148.008 160.601 147.316C160.975 146.624 161.484 146.067 162.128 145.646C162.773 145.224 163.505 144.906 164.324 144.691C165.151 144.477 166.018 144.325 166.925 144.238C167.991 144.127 168.85 144.023 169.502 143.928C170.154 143.824 170.628 143.673 170.922 143.474C171.216 143.275 171.363 142.981 171.363 142.591V142.52C171.363 141.764 171.125 141.18 170.647 140.766C170.178 140.352 169.51 140.146 168.643 140.146C167.728 140.146 167 140.348 166.46 140.754C165.919 141.152 165.561 141.653 165.386 142.257L160.685 141.876C160.923 140.762 161.393 139.8 162.093 138.988C162.793 138.169 163.695 137.541 164.801 137.103C165.915 136.658 167.203 136.435 168.667 136.435C169.685 136.435 170.659 136.554 171.59 136.793C172.529 137.031 173.36 137.401 174.084 137.902C174.815 138.404 175.392 139.048 175.814 139.835C176.235 140.615 176.446 141.549 176.446 142.639V155H171.626V152.459H171.483C171.188 153.031 170.795 153.536 170.301 153.974C169.808 154.403 169.216 154.741 168.524 154.988C167.832 155.227 167.032 155.346 166.125 155.346ZM167.581 151.838C168.329 151.838 168.989 151.691 169.562 151.397C170.134 151.094 170.584 150.689 170.91 150.18C171.236 149.671 171.399 149.094 171.399 148.45V146.505C171.24 146.608 171.021 146.704 170.743 146.791C170.472 146.871 170.166 146.946 169.824 147.018C169.482 147.082 169.14 147.141 168.798 147.197C168.456 147.245 168.146 147.288 167.867 147.328C167.271 147.416 166.75 147.555 166.304 147.746C165.859 147.937 165.513 148.195 165.266 148.521C165.02 148.839 164.897 149.237 164.897 149.714C164.897 150.406 165.147 150.935 165.648 151.301C166.157 151.659 166.802 151.838 167.581 151.838Z" fill="white"/>
<path d="M195.638 141.899L190.984 142.186C190.905 141.788 190.734 141.43 190.471 141.112C190.209 140.786 189.863 140.527 189.433 140.336C189.012 140.138 188.507 140.038 187.918 140.038C187.131 140.038 186.466 140.205 185.925 140.539C185.385 140.865 185.114 141.303 185.114 141.852C185.114 142.289 185.289 142.659 185.639 142.961C185.989 143.264 186.59 143.506 187.441 143.689L190.758 144.357C192.539 144.723 193.868 145.312 194.743 146.123C195.618 146.934 196.055 148 196.055 149.321C196.055 150.522 195.701 151.576 194.993 152.482C194.293 153.389 193.331 154.097 192.106 154.606C190.889 155.107 189.485 155.358 187.894 155.358C185.468 155.358 183.535 154.853 182.096 153.843C180.664 152.825 179.825 151.44 179.578 149.691L184.577 149.428C184.728 150.168 185.094 150.733 185.675 151.122C186.256 151.504 186.999 151.695 187.906 151.695C188.797 151.695 189.513 151.524 190.054 151.182C190.603 150.832 190.881 150.383 190.889 149.834C190.881 149.372 190.686 148.995 190.304 148.7C189.922 148.398 189.334 148.167 188.538 148.008L185.365 147.376C183.575 147.018 182.243 146.398 181.368 145.515C180.501 144.632 180.067 143.506 180.067 142.138C180.067 140.961 180.385 139.947 181.022 139.096C181.666 138.244 182.569 137.588 183.73 137.127C184.899 136.666 186.267 136.435 187.834 136.435C190.149 136.435 191.971 136.924 193.299 137.902C194.635 138.881 195.415 140.213 195.638 141.899Z" fill="white"/>
<path d="M204.482 155.346C203.312 155.346 202.27 155.143 201.356 154.738C200.441 154.324 199.717 153.715 199.184 152.912C198.659 152.101 198.397 151.091 198.397 149.881C198.397 148.863 198.584 148.008 198.957 147.316C199.331 146.624 199.84 146.067 200.485 145.646C201.129 145.224 201.861 144.906 202.68 144.691C203.507 144.477 204.374 144.325 205.281 144.238C206.347 144.127 207.206 144.023 207.858 143.928C208.51 143.824 208.984 143.673 209.278 143.474C209.572 143.275 209.719 142.981 209.719 142.591V142.52C209.719 141.764 209.481 141.18 209.004 140.766C208.534 140.352 207.866 140.146 206.999 140.146C206.084 140.146 205.357 140.348 204.816 140.754C204.275 141.152 203.917 141.653 203.742 142.257L199.041 141.876C199.28 140.762 199.749 139.8 200.449 138.988C201.149 138.169 202.052 137.541 203.157 137.103C204.271 136.658 205.559 136.435 207.023 136.435C208.041 136.435 209.016 136.554 209.946 136.793C210.885 137.031 211.716 137.401 212.44 137.902C213.172 138.404 213.748 139.048 214.17 139.835C214.591 140.615 214.802 141.549 214.802 142.639V155H209.982V152.459H209.839C209.545 153.031 209.151 153.536 208.658 153.974C208.164 154.403 207.572 154.741 206.88 154.988C206.188 155.227 205.388 155.346 204.482 155.346ZM205.937 151.838C206.685 151.838 207.345 151.691 207.918 151.397C208.491 151.094 208.94 150.689 209.266 150.18C209.592 149.671 209.755 149.094 209.755 148.45V146.505C209.596 146.608 209.377 146.704 209.099 146.791C208.829 146.871 208.522 146.946 208.18 147.018C207.838 147.082 207.496 147.141 207.154 147.197C206.812 147.245 206.502 147.288 206.224 147.328C205.627 147.416 205.106 147.555 204.661 147.746C204.215 147.937 203.869 148.195 203.623 148.521C203.376 148.839 203.253 149.237 203.253 149.714C203.253 150.406 203.503 150.935 204.004 151.301C204.513 151.659 205.158 151.838 205.937 151.838Z" fill="white"/>
<path d="M221.716 155.31C220.929 155.31 220.253 155.032 219.688 154.475C219.131 153.91 218.853 153.234 218.853 152.447C218.853 151.667 219.131 150.999 219.688 150.442C220.253 149.885 220.929 149.607 221.716 149.607C222.48 149.607 223.148 149.885 223.721 150.442C224.294 150.999 224.58 151.667 224.58 152.447C224.58 152.972 224.445 153.453 224.174 153.89C223.912 154.32 223.566 154.666 223.136 154.928C222.707 155.183 222.233 155.31 221.716 155.31Z" fill="white"/>
<path d="M87.1033 30.5994C86.8871 29.848 86.5834 29.1841 86.1923 28.6076C85.8011 28.0209 85.3225 27.5268 84.7563 27.1253C84.2004 26.7136 83.5622 26.3996 82.8417 26.1834C82.1314 25.9673 81.344 25.8592 80.4793 25.8592C78.8632 25.8592 77.4426 26.2606 76.2177 27.0636C75.003 27.8665 74.056 29.0348 73.3766 30.5686C72.6973 32.092 72.3576 33.9552 72.3576 36.158C72.3576 38.3609 72.6921 40.2343 73.3612 41.7784C74.0303 43.3224 74.9773 44.5011 76.2023 45.3143C77.4272 46.1172 78.8735 46.5186 80.541 46.5186C82.0542 46.5186 83.3461 46.251 84.4166 45.7157C85.4975 45.1701 86.3209 44.4033 86.8871 43.4151C87.4635 42.4269 87.7518 41.2585 87.7518 39.9101L89.1105 40.1108H80.9579V35.0772H94.1905V39.0608C94.1905 41.8401 93.6037 44.2283 92.4302 46.2252C91.2568 48.2119 89.6407 49.7457 87.5819 50.8265C85.5232 51.8971 83.1659 52.4323 80.5102 52.4323C77.5456 52.4323 74.9413 51.7787 72.6973 50.4714C70.4532 49.1538 68.7033 47.2855 67.4475 44.8665C66.2019 42.4372 65.5792 39.5549 65.5792 36.2198C65.5792 33.6567 65.9497 31.3715 66.6909 29.3642C67.4423 27.3466 68.4923 25.6379 69.8408 24.2379C71.1892 22.838 72.759 21.7726 74.5501 21.0417C76.3412 20.3109 78.2816 19.9455 80.3712 19.9455C82.1623 19.9455 83.8299 20.208 85.3739 20.7329C86.918 21.2476 88.287 21.9785 89.4811 22.9255C90.6855 23.8725 91.6685 24.9997 92.4302 26.307C93.192 27.604 93.6809 29.0348 93.8971 30.5994H87.1033ZM118.745 20.3778H125.431V40.9137C125.431 43.2195 124.88 45.237 123.778 46.9664C122.687 48.6957 121.159 50.0442 119.193 51.0118C117.226 51.9691 114.936 52.4478 112.322 52.4478C109.697 52.4478 107.401 51.9691 105.435 51.0118C103.469 50.0442 101.94 48.6957 100.849 46.9664C99.7581 45.237 99.2125 43.2195 99.2125 40.9137V20.3778H105.898V40.3424C105.898 41.5468 106.161 42.6173 106.686 43.554C107.221 44.4908 107.972 45.2268 108.94 45.762C109.908 46.2973 111.035 46.5649 112.322 46.5649C113.619 46.5649 114.746 46.2973 115.703 45.762C116.671 45.2268 117.417 44.4908 117.942 43.554C118.477 42.6173 118.745 41.5468 118.745 40.3424V20.3778ZM136.382 52H129.217L140.134 20.3778H148.75L159.651 52H152.486L144.565 27.604H144.318L136.382 52ZM135.934 39.5704H152.857V44.7893H135.934V39.5704ZM170.142 20.3778V52H163.457V20.3778H170.142ZM195.175 20.3778H201.861V40.9137C201.861 43.2195 201.31 45.237 200.209 46.9664C199.118 48.6957 197.589 50.0442 195.623 51.0118C193.657 51.9691 191.367 52.4478 188.752 52.4478C186.127 52.4478 183.832 51.9691 181.866 51.0118C179.9 50.0442 178.371 48.6957 177.28 46.9664C176.189 45.237 175.643 43.2195 175.643 40.9137V20.3778H182.329V40.3424C182.329 41.5468 182.591 42.6173 183.116 43.554C183.652 44.4908 184.403 45.2268 185.371 45.762C186.338 46.2973 187.465 46.5649 188.752 46.5649C190.049 46.5649 191.176 46.2973 192.134 45.762C193.101 45.2268 193.847 44.4908 194.372 43.554C194.908 42.6173 195.175 41.5468 195.175 40.3424V20.3778ZM186.39 17.3206L189.663 10.2951H195.747L191.037 17.3206H186.39Z" fill="white"/>
<path d="M4.47091 51.998C4.603 47.7383 9.06375 45.6208 12.4982 44.3486C14.6727 34.9164 16.6216 25.3604 16.9397 15.6376C16.7811 15.1105 16.5261 15.2231 16.205 15.5629C15.7 16.0991 14.8739 17.6528 14.5122 18.36C13.558 20.2278 12.7959 22.3341 12.294 24.3656C11.731 24.4014 11.3104 23.8815 11.033 23.4353C9.7608 21.3925 10.4457 18.1716 11.3327 16.0787C11.5563 15.5516 11.8733 15.0675 12.0908 14.5404C12.0156 14.4647 10.5503 15.4001 10.3725 15.5209C7.45117 17.5166 5.13545 20.2943 3.19975 23.2367C2.3899 22.5357 2.53114 21.3096 2.79228 20.3721C3.61432 17.4286 7.18901 14.1658 9.72219 12.6143L13.6139 10.4466C9.3066 8.52658 4.61824 7.80197 0 7.018C0.63812 6.40802 1.47743 6.06312 2.333 5.88811C4.44144 5.45518 6.75412 5.73459 8.84122 6.19719C11.0513 6.68743 13.1231 7.57886 15.1808 8.4969L15.3433 8.25025C13.9543 5.33544 11.8255 2.82592 9.5525 0.569197C11.3195 -0.751064 13.68 0.485273 15.1858 1.64792C16.8807 2.9559 18.3053 4.93015 19.0014 6.96581C19.1548 7.00777 19.169 6.92589 19.2554 6.86551C19.7289 6.53391 20.2949 5.81647 20.8395 5.39071C22.7112 3.92716 26.0593 2.29168 28.3516 3.53415C28.5071 3.6191 29.2225 4.07352 29.0578 4.30175C27.2776 5.23105 25.5604 6.41416 24.0809 7.78457C26.0766 7.16026 28.1881 6.65058 30.3016 6.89314C30.9143 6.96376 31.7627 7.20427 32.2088 7.63413L24.8938 10.1917C26.1782 10.5305 27.4138 11.0207 28.5427 11.7351C30.2812 12.8343 32.3165 14.8229 31.7008 17.0991C30.709 16.6201 29.7397 16.0777 28.7215 15.6488C28.308 15.4748 27.7643 15.1883 27.3325 15.2057C29.0101 16.4522 30.9112 17.8564 31.2943 20.0671L25.3358 16.8074L21.6412 15.2589C22.6644 17.7224 23.5048 20.586 23.265 23.29C23.1979 24.0463 22.9276 25.0708 22.3535 25.5938C21.4786 22.2982 20.6038 18.9607 19.1507 15.8719C18.9058 17.8922 18.6559 19.931 18.4913 21.9615C18.032 27.6202 17.8115 33.5839 17.9822 39.2651C18.0218 40.5987 18.1377 41.9629 18.2982 43.2894C21.9146 43.0519 25.6163 43.3641 29.0578 44.5288V31.4797C27.5743 30.5862 26.0004 31.9126 24.5341 31.843C23.7934 31.8082 22.9957 31.3507 22.2743 31.2504C21.0519 31.0805 19.99 31.5974 18.853 31.9433C18.5258 30.7059 19.6192 29.2946 20.5204 28.5106C23.8828 25.5886 30.1177 25.2008 34.2614 26.2385C37.0465 26.9365 40.4322 28.5823 40.8428 31.7857L40.6334 31.9003C39.6722 31.5216 38.8339 31.1829 37.769 31.3517C37.4052 31.4091 36.9968 31.6772 36.6188 31.7284C35.3862 31.8952 34.6587 31.2003 33.5775 31.2177C32.6437 31.233 31.8217 31.8317 30.835 31.844C30.705 31.8461 30.4083 31.6526 30.3818 31.888C30.3798 31.9085 30.4824 32.1285 30.4855 32.2923C30.5729 36.4537 30.4113 40.6284 30.4733 44.7908C30.4641 44.9187 30.4967 44.9985 30.58 45.0927C30.6633 45.1868 32.3887 45.9647 32.7463 46.1857C34.9848 47.5715 35.7581 48.6298 38.5849 49.209C44.3067 50.3809 50.4552 50.736 56.2237 51.8096L57 52H4.47091V51.998Z" fill="white"/>
</svg>
