<svg width="262" height="156" viewBox="0 0 262 156" fill="none" xmlns="http://www.w3.org/2000/svg">
<path d="M21.8104 111.782C21.8104 114.359 21.3451 116.587 20.4145 118.464C19.4838 120.341 18.2072 121.789 16.5845 122.807C14.9619 123.825 13.1085 124.334 11.0245 124.334C8.94053 124.334 7.0872 123.825 5.46454 122.807C3.84188 121.789 2.56523 120.341 1.63459 118.464C0.703948 116.587 0.238626 114.359 0.238626 111.782C0.238626 109.205 0.703948 106.978 1.63459 105.101C2.56523 103.224 3.84188 101.776 5.46454 100.758C7.0872 99.7397 8.94053 99.2306 11.0245 99.2306C13.1085 99.2306 14.9619 99.7397 16.5845 100.758C18.2072 101.776 19.4838 103.224 20.4145 105.101C21.3451 106.978 21.8104 109.205 21.8104 111.782ZM18.9469 111.782C18.9469 109.667 18.593 107.881 17.885 106.425C17.1851 104.97 16.2345 103.868 15.0335 103.12C13.8403 102.373 12.504 101.999 11.0245 101.999C9.54505 101.999 8.20477 102.373 7.00368 103.12C5.81055 103.868 4.86002 104.97 4.1521 106.425C3.45213 107.881 3.10214 109.667 3.10214 111.782C3.10214 113.898 3.45213 115.684 4.1521 117.139C4.86002 118.595 5.81055 119.697 7.00368 120.444C8.20477 121.192 9.54505 121.566 11.0245 121.566C12.504 121.566 13.8403 121.192 15.0335 120.444C16.2345 119.697 17.1851 118.595 17.885 117.139C18.593 115.684 18.9469 113.898 18.9469 111.782Z" fill="white"/>
<path d="M29.2198 112.975V124H26.404V105.674H29.1243V108.537H29.363C29.7925 107.606 30.4447 106.859 31.3197 106.294C32.1947 105.721 33.3242 105.435 34.7082 105.435C35.9491 105.435 37.0348 105.689 37.9654 106.198C38.8961 106.7 39.6199 107.463 40.1369 108.489C40.654 109.507 40.9125 110.796 40.9125 112.355V124H38.0967V112.546C38.0967 111.106 37.7228 109.985 36.9751 109.181C36.2275 108.37 35.2014 107.964 33.8969 107.964C32.998 107.964 32.1947 108.159 31.4867 108.549C30.7868 108.939 30.234 109.507 29.8283 110.255C29.4226 111.003 29.2198 111.91 29.2198 112.975Z" fill="white"/>
<path d="M52.978 124.382C51.4508 124.382 50.1026 123.996 48.9333 123.224C47.764 122.445 46.8493 121.347 46.1891 119.931C45.5289 118.508 45.1988 116.825 45.1988 114.884C45.1988 112.96 45.5289 111.289 46.1891 109.873C46.8493 108.457 47.768 107.364 48.9452 106.592C50.1225 105.821 51.4826 105.435 53.0257 105.435C54.2189 105.435 55.1615 105.634 55.8535 106.031C56.5534 106.421 57.0864 106.867 57.4523 107.368C57.8261 107.861 58.1164 108.267 58.3232 108.585H58.5619V99.5647H61.3777V124H58.6573V121.184H58.3232C58.1164 121.518 57.8221 121.94 57.4403 122.449C57.0585 122.95 56.5137 123.399 55.8057 123.797C55.0978 124.187 54.1552 124.382 52.978 124.382ZM53.3598 121.852C54.4893 121.852 55.4438 121.558 56.2233 120.969C57.0029 120.373 57.5954 119.55 58.0011 118.5C58.4068 117.442 58.6096 116.221 58.6096 114.837C58.6096 113.469 58.4107 112.272 58.013 111.245C57.6153 110.211 57.0267 109.408 56.2472 108.835C55.4677 108.255 54.5052 107.964 53.3598 107.964C52.1667 107.964 51.1724 108.271 50.377 108.883C49.5895 109.488 48.9969 110.311 48.5992 111.353C48.2095 112.387 48.0146 113.548 48.0146 114.837C48.0146 116.141 48.2134 117.326 48.6112 118.392C49.0168 119.45 49.6134 120.293 50.4009 120.922C51.1963 121.542 52.1826 121.852 53.3598 121.852Z" fill="white"/>
<path d="M74.6095 124.382C72.8437 124.382 71.3204 123.992 70.0398 123.213C68.7671 122.425 67.7848 121.327 67.0928 119.919C66.4087 118.504 66.0667 116.857 66.0667 114.98C66.0667 113.103 66.4087 111.448 67.0928 110.017C67.7848 108.577 68.7472 107.455 69.9801 106.652C71.221 105.841 72.6687 105.435 74.3231 105.435C75.2776 105.435 76.2202 105.594 77.1509 105.912C78.0815 106.23 78.9286 106.747 79.6922 107.463C80.4558 108.171 81.0643 109.11 81.5177 110.279C81.9711 111.448 82.1978 112.888 82.1978 114.598V115.791H68.0711V113.357H79.3343C79.3343 112.323 79.1275 111.401 78.7139 110.589C78.3082 109.778 77.7275 109.138 76.9719 108.668C76.2242 108.199 75.3413 107.964 74.3231 107.964C73.2016 107.964 72.2312 108.243 71.4119 108.8C70.6006 109.348 69.9762 110.064 69.5387 110.947C69.1012 111.83 68.8825 112.777 68.8825 113.787V115.409C68.8825 116.793 69.1211 117.967 69.5983 118.929C70.0835 119.884 70.7557 120.612 71.6147 121.113C72.4738 121.606 73.472 121.852 74.6095 121.852C75.3492 121.852 76.0174 121.749 76.614 121.542C77.2185 121.327 77.7395 121.009 78.177 120.588C78.6144 120.158 78.9525 119.625 79.1911 118.989L81.9115 119.752C81.6251 120.675 81.1439 121.486 80.4678 122.186C79.7917 122.878 78.9565 123.419 77.9622 123.809C76.9679 124.191 75.8503 124.382 74.6095 124.382Z" fill="white"/>
<path d="M101.324 124.43C100.162 124.43 99.1085 124.211 98.1619 123.773C97.2154 123.328 96.4637 122.688 95.9069 121.852C95.3501 121.009 95.0717 119.991 95.0717 118.798C95.0717 117.748 95.2785 116.897 95.6921 116.245C96.1057 115.584 96.6586 115.067 97.3506 114.694C98.0426 114.32 98.8062 114.041 99.6414 113.858C100.485 113.667 101.332 113.516 102.183 113.405C103.296 113.262 104.199 113.154 104.891 113.083C105.591 113.003 106.1 112.872 106.418 112.689C106.745 112.506 106.908 112.188 106.908 111.735V111.639C106.908 110.462 106.585 109.547 105.941 108.895C105.305 108.243 104.338 107.917 103.042 107.917C101.698 107.917 100.644 108.211 99.88 108.8C99.1164 109.388 98.5795 110.016 98.2693 110.685L95.5967 109.73C96.0739 108.617 96.7103 107.75 97.5057 107.129C98.3091 106.501 99.184 106.063 100.131 105.817C101.085 105.562 102.024 105.435 102.946 105.435C103.535 105.435 104.211 105.506 104.975 105.65C105.746 105.785 106.49 106.067 107.206 106.497C107.93 106.926 108.53 107.575 109.007 108.442C109.485 109.309 109.723 110.47 109.723 111.926V124H106.908V121.518H106.764C106.573 121.916 106.255 122.342 105.81 122.795C105.364 123.248 104.772 123.634 104.032 123.952C103.292 124.27 102.39 124.43 101.324 124.43ZM101.753 121.9C102.867 121.9 103.805 121.681 104.569 121.244C105.341 120.806 105.921 120.242 106.311 119.55C106.709 118.858 106.908 118.13 106.908 117.366V114.789C106.788 114.932 106.526 115.063 106.12 115.183C105.722 115.294 105.261 115.394 104.736 115.481C104.219 115.561 103.714 115.632 103.221 115.696C102.736 115.751 102.342 115.799 102.04 115.839C101.308 115.934 100.624 116.09 99.9874 116.304C99.359 116.511 98.8499 116.825 98.4602 117.247C98.0784 117.66 97.8875 118.225 97.8875 118.941C97.8875 119.919 98.2494 120.659 98.9732 121.16C99.705 121.654 100.632 121.9 101.753 121.9Z" fill="white"/>
<path d="M137.191 124.336C136.205 124.336 135.443 124.022 134.906 123.395C134.391 122.746 134.133 121.939 134.133 120.976C134.133 120.439 134.178 119.811 134.267 119.095C134.379 118.355 134.547 117.471 134.771 116.44L135.343 113.82C135.41 113.506 135.499 113.114 135.611 112.644C135.723 112.173 135.824 111.681 135.914 111.165C136.003 110.65 136.048 110.202 136.048 109.821C136.048 109.373 135.947 108.937 135.746 108.511C135.567 108.063 135.152 107.839 134.503 107.839C133.808 107.839 133.114 108.097 132.42 108.612C131.725 109.127 131.076 109.788 130.471 110.594C129.888 111.401 129.384 112.24 128.959 113.114C128.556 113.965 128.287 114.727 128.153 115.399L126.338 124H123.214L126.036 110.493C126.103 110.18 126.148 109.877 126.17 109.586C126.215 109.273 126.237 109.071 126.237 108.981C126.237 108.309 126.002 107.884 125.532 107.705C125.084 107.503 124.535 107.402 123.886 107.402H123.617L123.919 105.991H130.135L129.228 110.225H129.564C130.482 108.746 131.412 107.626 132.352 106.865C133.316 106.081 134.424 105.689 135.679 105.689C136.575 105.689 137.28 105.868 137.795 106.226C138.31 106.562 138.68 107.01 138.904 107.57C139.15 108.13 139.274 108.746 139.274 109.418C139.274 109.978 139.195 110.594 139.038 111.266C138.904 111.916 138.781 112.532 138.669 113.114L137.795 117.079C137.661 117.706 137.549 118.322 137.459 118.927C137.392 119.531 137.359 120.091 137.359 120.607C137.359 121.122 137.459 121.525 137.661 121.816C137.885 122.085 138.176 122.219 138.535 122.219C138.893 122.219 139.24 122.152 139.576 122.018C139.934 121.883 140.304 121.693 140.685 121.447L141.29 122.421C140.752 122.869 140.147 123.306 139.475 123.731C138.826 124.134 138.064 124.336 137.191 124.336Z" fill="white"/>
<path d="M147.627 124.336C146.642 124.336 145.824 124.067 145.175 123.53C144.525 122.992 144.044 122.264 143.73 121.346C143.439 120.405 143.293 119.352 143.293 118.187C143.293 117.135 143.428 116.037 143.696 114.895C143.988 113.73 144.413 112.61 144.973 111.535C145.533 110.437 146.216 109.452 147.023 108.578C147.829 107.682 148.759 106.977 149.811 106.462C150.864 105.924 152.029 105.655 153.306 105.655C153.843 105.655 154.347 105.711 154.817 105.823C155.31 105.913 155.758 106.047 156.161 106.226C156.587 106.406 156.945 106.618 157.237 106.865L158.715 106.025H159.79L157.505 116.776C157.461 117.023 157.393 117.381 157.304 117.851C157.214 118.322 157.136 118.803 157.069 119.296C157.024 119.789 157.001 120.192 157.001 120.506C157.001 121.066 157.091 121.491 157.27 121.782C157.472 122.074 157.752 122.219 158.11 122.219C158.491 122.219 158.883 122.141 159.286 121.984C159.689 121.805 160.104 121.592 160.529 121.346L161.134 122.32C160.82 122.611 160.395 122.914 159.857 123.227C159.32 123.541 158.749 123.798 158.144 124C157.539 124.224 156.957 124.336 156.397 124.336C155.59 124.336 154.952 124.09 154.481 123.597C154.011 123.104 153.776 122.421 153.776 121.547C153.776 121.099 153.798 120.696 153.843 120.338C153.91 119.957 154 119.487 154.112 118.927H153.91C153.395 120.069 152.813 121.043 152.163 121.85C151.536 122.656 150.842 123.272 150.08 123.698C149.341 124.123 148.523 124.336 147.627 124.336ZM148.837 122.219C149.419 122.219 150.013 121.995 150.618 121.547C151.245 121.099 151.827 120.495 152.365 119.733C152.925 118.971 153.418 118.12 153.843 117.179C154.269 116.239 154.582 115.287 154.784 114.324L156.027 108.377C155.781 107.973 155.422 107.671 154.952 107.469C154.481 107.268 153.989 107.167 153.474 107.167C152.578 107.167 151.771 107.425 151.054 107.94C150.338 108.433 149.71 109.093 149.173 109.922C148.635 110.751 148.176 111.658 147.795 112.644C147.437 113.629 147.168 114.626 146.989 115.634C146.81 116.62 146.72 117.515 146.72 118.322C146.72 119.711 146.922 120.707 147.325 121.312C147.728 121.917 148.232 122.219 148.837 122.219Z" fill="white"/>
<path d="M167.454 124.336C166.648 124.336 165.976 124.19 165.438 123.899C164.9 123.608 164.486 123.171 164.195 122.589C163.926 122.006 163.792 121.279 163.792 120.405C163.792 120.002 163.825 119.543 163.893 119.027C163.96 118.49 164.038 118.008 164.128 117.583L166.177 107.906H163.624L163.926 106.562C164.396 106.562 164.867 106.484 165.337 106.327C165.808 106.148 166.267 105.879 166.715 105.521C167.163 105.14 167.577 104.658 167.958 104.076C168.361 103.471 168.731 102.732 169.067 101.859H170.612L169.739 105.991H173.804L173.401 107.906H169.335L167.286 117.482C167.174 118.042 167.073 118.579 166.984 119.095C166.916 119.587 166.883 120.013 166.883 120.371C166.883 121.021 167.04 121.491 167.353 121.782C167.667 122.074 168.104 122.219 168.663 122.219C169.134 122.219 169.615 122.152 170.108 122.018C170.623 121.861 171.06 121.682 171.419 121.48L171.99 122.723C171.318 123.194 170.601 123.586 169.839 123.899C169.1 124.19 168.305 124.336 167.454 124.336Z" fill="white"/>
<path d="M188.996 124.336C188.414 124.336 187.91 124.19 187.484 123.899C187.059 123.608 186.734 123.227 186.51 122.757C186.286 122.264 186.174 121.726 186.174 121.144C186.174 120.898 186.185 120.595 186.207 120.237C186.252 119.879 186.297 119.52 186.342 119.162H186.073C185.446 120.17 184.83 121.066 184.225 121.85C183.62 122.611 182.948 123.216 182.209 123.664C181.47 124.09 180.597 124.302 179.589 124.302C178.715 124.302 178.009 124.134 177.472 123.798C176.957 123.44 176.576 122.981 176.329 122.421C176.106 121.838 175.994 121.223 175.994 120.573C175.994 120.013 176.061 119.397 176.195 118.725C176.329 118.053 176.464 117.437 176.598 116.877L177.909 110.997C177.976 110.684 178.043 110.292 178.11 109.821C178.177 109.351 178.211 109.071 178.211 108.981C178.211 108.309 177.976 107.884 177.505 107.705C177.057 107.503 176.509 107.402 175.859 107.402H175.59L175.893 105.991H182.142L179.925 116.037C179.79 116.642 179.645 117.347 179.488 118.154C179.331 118.96 179.253 119.61 179.253 120.103C179.253 120.663 179.365 121.144 179.589 121.547C179.813 121.95 180.249 122.152 180.899 122.152C181.504 122.152 182.131 121.928 182.78 121.48C183.43 121.01 184.057 120.394 184.662 119.632C185.267 118.871 185.793 118.031 186.241 117.112C186.689 116.194 187.014 115.276 187.215 114.357L188.963 105.991H192.222L189.903 116.776C189.859 117.023 189.791 117.381 189.702 117.851C189.612 118.322 189.534 118.803 189.467 119.296C189.422 119.789 189.399 120.192 189.399 120.506C189.399 121.066 189.489 121.491 189.668 121.782C189.87 122.074 190.15 122.219 190.508 122.219C190.889 122.219 191.236 122.163 191.55 122.051C191.863 121.917 192.233 121.726 192.658 121.48L193.263 122.454C192.77 122.88 192.143 123.306 191.382 123.731C190.642 124.134 189.847 124.336 188.996 124.336Z" fill="white"/>
<path d="M198.089 110.493C198.156 110.18 198.201 109.877 198.223 109.586C198.268 109.273 198.291 109.071 198.291 108.981C198.291 108.309 197.999 107.884 197.417 107.705C196.857 107.503 196.252 107.402 195.603 107.402H195.334L195.636 105.991H201.583L200.878 110.829H201.214C201.639 109.911 202.098 109.06 202.591 108.276C203.084 107.492 203.678 106.865 204.372 106.394C205.066 105.902 205.918 105.655 206.925 105.655C207.866 105.655 208.561 105.879 209.009 106.327C209.457 106.753 209.681 107.302 209.681 107.973C209.681 108.757 209.457 109.385 209.009 109.855C208.583 110.303 207.877 110.527 206.892 110.527C206.892 109.721 206.802 109.082 206.623 108.612C206.444 108.119 206.086 107.873 205.548 107.873C204.966 107.873 204.372 108.175 203.767 108.78C203.185 109.385 202.625 110.191 202.087 111.199C201.572 112.184 201.102 113.271 200.676 114.458C200.251 115.623 199.915 116.765 199.668 117.885L198.391 124H195.267L198.089 110.493Z" fill="white"/>
<path d="M216.845 124.336C215.658 124.336 214.56 124.078 213.553 123.563C212.567 123.048 211.772 122.286 211.167 121.279C210.585 120.248 210.293 118.949 210.293 117.381C210.293 116.396 210.428 115.365 210.697 114.29C210.988 113.192 211.402 112.14 211.94 111.132C212.477 110.101 213.149 109.172 213.956 108.343C214.762 107.514 215.692 106.865 216.744 106.394C217.82 105.902 219.007 105.655 220.306 105.655C221.717 105.655 222.815 106.002 223.599 106.697C224.382 107.369 224.774 108.309 224.774 109.519C224.774 110.684 224.349 111.781 223.498 112.812C222.669 113.842 221.515 114.671 220.037 115.298C218.581 115.925 216.912 116.239 215.031 116.239H213.855C213.833 116.485 213.81 116.732 213.788 116.978C213.788 117.202 213.788 117.426 213.788 117.65C213.788 119.083 214.101 120.203 214.728 121.01C215.356 121.816 216.274 122.219 217.484 122.219C218.559 122.219 219.511 121.962 220.339 121.447C221.191 120.931 221.851 120.383 222.322 119.8C222.546 119.957 222.658 120.237 222.658 120.64C222.658 121.133 222.445 121.671 222.019 122.253C221.616 122.813 220.989 123.306 220.138 123.731C219.287 124.134 218.189 124.336 216.845 124.336ZM214.493 114.693C215.815 114.693 216.98 114.48 217.988 114.055C219.018 113.607 219.824 113.002 220.407 112.24C221.011 111.457 221.314 110.549 221.314 109.519C221.314 108.757 221.146 108.197 220.81 107.839C220.474 107.458 219.992 107.268 219.365 107.268C218.738 107.268 218.144 107.492 217.584 107.94C217.024 108.365 216.52 108.948 216.072 109.687C215.624 110.404 215.232 111.199 214.896 112.073C214.583 112.946 214.336 113.82 214.157 114.693H214.493Z" fill="white"/>
<path d="M225.385 124L225.654 122.656L237.077 107.906H232.81C232.228 107.906 231.746 108.007 231.365 108.209C231.007 108.41 230.705 108.713 230.458 109.116C230.212 109.519 229.943 110.023 229.652 110.628L229.585 110.762H228.173L229.517 105.991H241.277L241.008 107.369L229.551 122.085H235.532C236.047 122.085 236.472 121.962 236.808 121.715C237.167 121.447 237.469 121.099 237.715 120.674C237.962 120.248 238.186 119.8 238.387 119.33L238.723 118.557H240.135L238.824 124H225.385Z" fill="white"/>
<path d="M248.358 124.336C247.372 124.336 246.554 124.067 245.905 123.53C245.255 122.992 244.774 122.264 244.46 121.346C244.169 120.405 244.023 119.352 244.023 118.187C244.023 117.135 244.158 116.037 244.426 114.895C244.718 113.73 245.143 112.61 245.703 111.535C246.263 110.437 246.946 109.452 247.753 108.578C248.559 107.682 249.489 106.977 250.541 106.462C251.594 105.924 252.759 105.655 254.036 105.655C254.573 105.655 255.077 105.711 255.548 105.823C256.04 105.913 256.488 106.047 256.892 106.226C257.317 106.406 257.676 106.618 257.967 106.865L259.445 106.025H260.52L258.236 116.776C258.191 117.023 258.124 117.381 258.034 117.851C257.944 118.322 257.866 118.803 257.799 119.296C257.754 119.789 257.732 120.192 257.732 120.506C257.732 121.066 257.821 121.491 258 121.782C258.202 122.074 258.482 122.219 258.84 122.219C259.221 122.219 259.613 122.141 260.016 121.984C260.419 121.805 260.834 121.592 261.259 121.346L261.864 122.32C261.551 122.611 261.125 122.914 260.587 123.227C260.05 123.541 259.479 123.798 258.874 124C258.269 124.224 257.687 124.336 257.127 124.336C256.32 124.336 255.682 124.09 255.212 123.597C254.741 123.104 254.506 122.421 254.506 121.547C254.506 121.099 254.528 120.696 254.573 120.338C254.64 119.957 254.73 119.487 254.842 118.927H254.64C254.125 120.069 253.543 121.043 252.893 121.85C252.266 122.656 251.572 123.272 250.81 123.698C250.071 124.123 249.253 124.336 248.358 124.336ZM249.567 122.219C250.149 122.219 250.743 121.995 251.348 121.547C251.975 121.099 252.557 120.495 253.095 119.733C253.655 118.971 254.148 118.12 254.573 117.179C254.999 116.239 255.312 115.287 255.514 114.324L256.757 108.377C256.511 107.973 256.152 107.671 255.682 107.469C255.212 107.268 254.719 107.167 254.204 107.167C253.308 107.167 252.501 107.425 251.785 107.94C251.068 108.433 250.441 109.093 249.903 109.922C249.365 110.751 248.906 111.658 248.526 112.644C248.167 113.629 247.898 114.626 247.719 115.634C247.54 116.62 247.45 117.515 247.45 118.322C247.45 119.711 247.652 120.707 248.055 121.312C248.458 121.917 248.962 122.219 249.567 122.219Z" fill="white"/>
<path d="M13.7926 140.778L11.2632 141.494C11.1041 141.072 10.8694 140.663 10.5592 140.265C10.257 139.859 9.84334 139.525 9.31836 139.263C8.79338 139 8.12125 138.869 7.30197 138.869C6.18042 138.869 5.2458 139.127 4.49811 139.644C3.75836 140.153 3.38849 140.802 3.38849 141.589C3.38849 142.289 3.64303 142.842 4.1521 143.248C4.66117 143.653 5.45659 143.991 6.53836 144.262L9.2587 144.93C10.8973 145.328 12.1182 145.936 12.9216 146.755C13.725 147.567 14.1267 148.613 14.1267 149.893C14.1267 150.943 13.8244 151.882 13.2199 152.709C12.6233 153.536 11.7881 154.189 10.7143 154.666C9.6405 155.143 8.39169 155.382 6.96789 155.382C5.09865 155.382 3.55155 154.976 2.32661 154.165C1.10166 153.353 0.326123 152.168 0 150.609L2.67261 149.941C2.92715 150.927 3.40838 151.667 4.1163 152.16C4.83218 152.654 5.7668 152.9 6.92016 152.9C8.23261 152.9 9.27461 152.622 10.0462 152.065C10.8257 151.5 11.2154 150.824 11.2154 150.037C11.2154 149.4 10.9927 148.867 10.5473 148.438C10.1018 148 9.41778 147.674 8.4951 147.459L5.44068 146.744C3.76234 146.346 2.52944 145.729 1.74197 144.894C0.962459 144.051 0.572703 142.997 0.572703 141.732C0.572703 140.698 0.863032 139.784 1.44369 138.988C2.0323 138.193 2.8317 137.568 3.84188 137.115C4.86002 136.662 6.01338 136.435 7.30197 136.435C9.11553 136.435 10.5393 136.833 11.5734 137.628C12.6154 138.423 13.3551 139.473 13.7926 140.778Z" fill="white"/>
<path d="M26.049 155.382C24.2832 155.382 22.76 154.992 21.4793 154.213C20.2067 153.425 19.2243 152.327 18.5323 150.919C17.8483 149.504 17.5062 147.857 17.5062 145.98C17.5062 144.103 17.8483 142.448 18.5323 141.016C19.2243 139.577 20.1868 138.455 21.4197 137.652C22.6605 136.841 24.1082 136.435 25.7627 136.435C26.7172 136.435 27.6598 136.594 28.5904 136.912C29.5211 137.23 30.3682 137.747 31.1318 138.463C31.8954 139.171 32.5039 140.11 32.9573 141.279C33.4107 142.448 33.6374 143.888 33.6374 145.598V146.791H19.5107V144.357H30.7738C30.7738 143.323 30.567 142.401 30.1534 141.589C29.7478 140.778 29.1671 140.138 28.4114 139.668C27.6637 139.199 26.7808 138.964 25.7627 138.964C24.6411 138.964 23.6707 139.243 22.8515 139.8C22.0401 140.348 21.4157 141.064 20.9782 141.947C20.5408 142.83 20.322 143.777 20.322 144.787V146.409C20.322 147.793 20.5606 148.967 21.0379 149.929C21.5231 150.884 22.1952 151.612 23.0543 152.113C23.9133 152.606 24.9116 152.852 26.049 152.852C26.7888 152.852 27.4569 152.749 28.0535 152.542C28.658 152.327 29.179 152.009 29.6165 151.588C30.054 151.158 30.392 150.625 30.6307 149.989L33.351 150.752C33.0647 151.675 32.5834 152.486 31.9073 153.186C31.2312 153.878 30.396 154.419 29.4017 154.809C28.4075 155.191 27.2899 155.382 26.049 155.382Z" fill="white"/>
<path d="M55.3404 136.674V139.06H45.8431V136.674H55.3404ZM48.6112 132.283H51.427V149.75C51.427 150.546 51.5423 151.142 51.773 151.54C52.0116 151.93 52.3138 152.192 52.6797 152.327C53.0536 152.455 53.4473 152.518 53.8609 152.518C54.1712 152.518 54.4257 152.502 54.6245 152.471C54.8234 152.431 54.9825 152.399 55.1018 152.375L55.6745 154.905C55.4836 154.976 55.2171 155.048 54.8751 155.119C54.5331 155.199 54.0996 155.239 53.5746 155.239C52.7792 155.239 51.9997 155.068 51.236 154.726C50.4804 154.384 49.852 153.863 49.3509 153.163C48.8577 152.463 48.6112 151.58 48.6112 150.514V132.283Z" fill="white"/>
<path d="M66.8243 155.382C65.1698 155.382 63.7182 154.988 62.4694 154.201C61.2285 153.413 60.2581 152.311 59.5581 150.896C58.8661 149.48 58.5201 147.825 58.5201 145.932C58.5201 144.023 58.8661 142.357 59.5581 140.933C60.2581 139.509 61.2285 138.404 62.4694 137.616C63.7182 136.829 65.1698 136.435 66.8243 136.435C68.4788 136.435 69.9265 136.829 71.1673 137.616C72.4161 138.404 73.3865 139.509 74.0786 140.933C74.7785 142.357 75.1285 144.023 75.1285 145.932C75.1285 147.825 74.7785 149.48 74.0786 150.896C73.3865 152.311 72.4161 153.413 71.1673 154.201C69.9265 154.988 68.4788 155.382 66.8243 155.382ZM66.8243 152.852C68.0811 152.852 69.1151 152.53 69.9265 151.886C70.7378 151.242 71.3383 150.395 71.7281 149.345C72.1178 148.295 72.3127 147.157 72.3127 145.932C72.3127 144.707 72.1178 143.566 71.7281 142.508C71.3383 141.45 70.7378 140.595 69.9265 139.943C69.1151 139.29 68.0811 138.964 66.8243 138.964C65.5675 138.964 64.5335 139.29 63.7222 139.943C62.9108 140.595 62.3103 141.45 61.9205 142.508C61.5308 143.566 61.3359 144.707 61.3359 145.932C61.3359 147.157 61.5308 148.295 61.9205 149.345C62.3103 150.395 62.9108 151.242 63.7222 151.886C64.5335 152.53 65.5675 152.852 66.8243 152.852Z" fill="white"/>
<path d="M79.4268 155V136.674H82.1471V139.442H82.338C82.6721 138.535 83.2766 137.799 84.1516 137.234C85.0265 136.67 86.0128 136.387 87.1105 136.387C87.3173 136.387 87.5758 136.391 87.8861 136.399C88.1963 136.407 88.4309 136.419 88.59 136.435V139.298C88.4946 139.275 88.2758 139.239 87.9338 139.191C87.5997 139.135 87.2458 139.107 86.8719 139.107C85.981 139.107 85.1856 139.294 84.4856 139.668C83.7936 140.034 83.2448 140.543 82.8391 141.195C82.4414 141.84 82.2426 142.576 82.2426 143.403V155H79.4268Z" fill="white"/>
<path d="M94.7436 143.975V155H91.9278V136.674H94.6481V139.537H94.8868C95.3163 138.606 95.9685 137.859 96.8435 137.294C97.7185 136.721 98.848 136.435 100.232 136.435C101.473 136.435 102.559 136.689 103.489 137.198C104.42 137.7 105.144 138.463 105.661 139.489C106.178 140.507 106.436 141.796 106.436 143.355V155H103.62V143.546C103.62 142.106 103.247 140.985 102.499 140.181C101.751 139.37 100.725 138.964 99.4207 138.964C98.5218 138.964 97.7185 139.159 97.0105 139.549C96.3106 139.939 95.7578 140.507 95.3521 141.255C94.9464 142.003 94.7436 142.91 94.7436 143.975Z" fill="white"/>
<path d="M116.975 155.43C115.813 155.43 114.759 155.211 113.813 154.773C112.866 154.328 112.115 153.688 111.558 152.852C111.001 152.009 110.723 150.991 110.723 149.798C110.723 148.748 110.929 147.897 111.343 147.245C111.757 146.584 112.309 146.067 113.001 145.694C113.693 145.32 114.457 145.041 115.292 144.858C116.135 144.667 116.983 144.516 117.834 144.405C118.947 144.262 119.85 144.154 120.542 144.083C121.242 144.003 121.751 143.872 122.069 143.689C122.395 143.506 122.558 143.188 122.558 142.735V142.639C122.558 141.462 122.236 140.547 121.592 139.895C120.956 139.243 119.989 138.917 118.693 138.917C117.348 138.917 116.295 139.211 115.531 139.8C114.767 140.388 114.23 141.017 113.92 141.685L111.248 140.73C111.725 139.617 112.361 138.75 113.157 138.129C113.96 137.501 114.835 137.063 115.781 136.817C116.736 136.562 117.675 136.435 118.597 136.435C119.186 136.435 119.862 136.506 120.626 136.65C121.397 136.785 122.141 137.067 122.857 137.497C123.581 137.926 124.181 138.575 124.658 139.442C125.136 140.309 125.374 141.47 125.374 142.926V155H122.558V152.518H122.415C122.224 152.916 121.906 153.342 121.461 153.795C121.015 154.248 120.423 154.634 119.683 154.952C118.943 155.27 118.04 155.43 116.975 155.43ZM117.404 152.9C118.518 152.9 119.456 152.681 120.22 152.244C120.991 151.806 121.572 151.242 121.962 150.55C122.36 149.858 122.558 149.13 122.558 148.366V145.789C122.439 145.932 122.177 146.063 121.771 146.183C121.373 146.294 120.912 146.394 120.387 146.481C119.87 146.561 119.365 146.632 118.872 146.696C118.386 146.751 117.993 146.799 117.69 146.839C116.959 146.934 116.275 147.09 115.638 147.304C115.01 147.511 114.501 147.825 114.111 148.247C113.729 148.66 113.538 149.225 113.538 149.941C113.538 150.919 113.9 151.659 114.624 152.16C115.356 152.654 116.283 152.9 117.404 152.9Z" fill="white"/>
<path d="M147.695 155.358C145.818 155.358 144.203 154.96 142.851 154.165C141.506 153.361 140.472 152.248 139.749 150.824C139.033 149.4 138.675 147.762 138.675 145.908C138.675 144.031 139.037 142.385 139.76 140.969C140.492 139.545 141.53 138.435 142.875 137.64C144.219 136.837 145.818 136.435 147.671 136.435C149.27 136.435 150.67 136.725 151.871 137.306C153.072 137.887 154.022 138.702 154.722 139.752C155.422 140.802 155.808 142.035 155.88 143.45H151.083C150.948 142.536 150.59 141.8 150.009 141.243C149.437 140.678 148.685 140.396 147.754 140.396C146.967 140.396 146.279 140.611 145.69 141.04C145.11 141.462 144.656 142.078 144.33 142.89C144.004 143.701 143.841 144.683 143.841 145.837C143.841 147.006 144 148 144.318 148.82C144.644 149.639 145.102 150.263 145.69 150.693C146.279 151.122 146.967 151.337 147.754 151.337C148.335 151.337 148.856 151.218 149.317 150.979C149.787 150.741 150.173 150.395 150.475 149.941C150.785 149.48 150.988 148.927 151.083 148.283H155.88C155.8 149.683 155.418 150.916 154.734 151.981C154.058 153.039 153.124 153.867 151.93 154.463C150.737 155.06 149.325 155.358 147.695 155.358Z" fill="white"/>
<path d="M164.36 155.346C163.191 155.346 162.149 155.143 161.234 154.738C160.319 154.324 159.595 153.715 159.062 152.912C158.537 152.101 158.275 151.091 158.275 149.881C158.275 148.863 158.462 148.008 158.836 147.316C159.209 146.624 159.719 146.067 160.363 145.646C161.007 145.224 161.739 144.906 162.558 144.691C163.385 144.477 164.252 144.325 165.159 144.238C166.225 144.127 167.084 144.023 167.736 143.928C168.389 143.824 168.862 143.673 169.156 143.474C169.451 143.275 169.598 142.981 169.598 142.591V142.52C169.598 141.764 169.359 141.18 168.882 140.766C168.413 140.352 167.744 140.146 166.877 140.146C165.963 140.146 165.235 140.348 164.694 140.754C164.153 141.152 163.795 141.653 163.62 142.257L158.919 141.876C159.158 140.762 159.627 139.8 160.327 138.988C161.027 138.169 161.93 137.541 163.035 137.103C164.149 136.658 165.438 136.435 166.901 136.435C167.919 136.435 168.894 136.554 169.824 136.793C170.763 137.031 171.594 137.401 172.318 137.902C173.05 138.404 173.626 139.048 174.048 139.835C174.47 140.615 174.68 141.549 174.68 142.639V155H169.86V152.459H169.717C169.423 153.031 169.029 153.536 168.536 153.974C168.043 154.403 167.45 154.741 166.758 154.988C166.066 155.227 165.267 155.346 164.36 155.346ZM165.815 151.838C166.563 151.838 167.223 151.691 167.796 151.397C168.369 151.094 168.818 150.689 169.144 150.18C169.47 149.671 169.633 149.094 169.633 148.45V146.505C169.474 146.608 169.256 146.704 168.977 146.791C168.707 146.871 168.401 146.946 168.059 147.018C167.717 147.082 167.374 147.141 167.032 147.197C166.69 147.245 166.38 147.288 166.102 147.328C165.505 147.416 164.984 147.555 164.539 147.746C164.093 147.937 163.747 148.195 163.501 148.521C163.254 148.839 163.131 149.237 163.131 149.714C163.131 150.406 163.381 150.935 163.883 151.301C164.392 151.659 165.036 151.838 165.815 151.838Z" fill="white"/>
<path d="M193.872 141.899L189.219 142.186C189.139 141.788 188.968 141.43 188.706 141.112C188.443 140.786 188.097 140.527 187.668 140.336C187.246 140.138 186.741 140.038 186.152 140.038C185.365 140.038 184.701 140.205 184.16 140.539C183.619 140.865 183.349 141.303 183.349 141.852C183.349 142.289 183.524 142.659 183.873 142.961C184.223 143.264 184.824 143.506 185.675 143.689L188.992 144.357C190.774 144.723 192.102 145.312 192.977 146.123C193.852 146.934 194.29 148 194.29 149.321C194.29 150.522 193.936 151.576 193.228 152.482C192.528 153.389 191.565 154.097 190.34 154.606C189.123 155.107 187.719 155.358 186.129 155.358C183.702 155.358 181.77 154.853 180.33 153.843C178.898 152.825 178.059 151.44 177.812 149.691L182.812 149.428C182.963 150.168 183.329 150.733 183.909 151.122C184.49 151.504 185.234 151.695 186.14 151.695C187.031 151.695 187.747 151.524 188.288 151.182C188.837 150.832 189.115 150.383 189.123 149.834C189.115 149.372 188.92 148.995 188.539 148.7C188.157 148.398 187.568 148.167 186.773 148.008L183.599 147.376C181.809 147.018 180.477 146.398 179.602 145.515C178.735 144.632 178.302 143.506 178.302 142.138C178.302 140.961 178.62 139.947 179.256 139.096C179.9 138.244 180.803 137.588 181.964 137.127C183.134 136.666 184.502 136.435 186.069 136.435C188.384 136.435 190.205 136.924 191.533 137.902C192.87 138.881 193.649 140.213 193.872 141.899Z" fill="white"/>
<path d="M202.716 155.346C201.547 155.346 200.505 155.143 199.59 154.738C198.675 154.324 197.951 153.715 197.419 152.912C196.894 152.101 196.631 151.091 196.631 149.881C196.631 148.863 196.818 148.008 197.192 147.316C197.566 146.624 198.075 146.067 198.719 145.646C199.363 145.224 200.095 144.906 200.914 144.691C201.742 144.477 202.609 144.325 203.515 144.238C204.581 144.127 205.44 144.023 206.093 143.928C206.745 143.824 207.218 143.673 207.512 143.474C207.807 143.275 207.954 142.981 207.954 142.591V142.52C207.954 141.764 207.715 141.18 207.238 140.766C206.769 140.352 206.101 140.146 205.234 140.146C204.319 140.146 203.591 140.348 203.05 140.754C202.509 141.152 202.151 141.653 201.976 142.257L197.275 141.876C197.514 140.762 197.983 139.8 198.683 138.988C199.383 138.169 200.286 137.541 201.392 137.103C202.505 136.658 203.794 136.435 205.257 136.435C206.276 136.435 207.25 136.554 208.181 136.793C209.119 137.031 209.95 137.401 210.674 137.902C211.406 138.404 211.983 139.048 212.404 139.835C212.826 140.615 213.037 141.549 213.037 142.639V155H208.216V152.459H208.073C207.779 153.031 207.385 153.536 206.892 153.974C206.399 154.403 205.806 154.741 205.114 154.988C204.422 155.227 203.623 155.346 202.716 155.346ZM204.172 151.838C204.919 151.838 205.58 151.691 206.152 151.397C206.725 151.094 207.174 150.689 207.5 150.18C207.827 149.671 207.99 149.094 207.99 148.45V146.505C207.831 146.608 207.612 146.704 207.333 146.791C207.063 146.871 206.757 146.946 206.415 147.018C206.073 147.082 205.731 147.141 205.389 147.197C205.047 147.245 204.736 147.288 204.458 147.328C203.861 147.416 203.34 147.555 202.895 147.746C202.45 147.937 202.104 148.195 201.857 148.521C201.61 148.839 201.487 149.237 201.487 149.714C201.487 150.406 201.738 150.935 202.239 151.301C202.748 151.659 203.392 151.838 204.172 151.838Z" fill="white"/>
<path d="M219.951 155.31C219.163 155.31 218.487 155.032 217.922 154.475C217.366 153.91 217.087 153.234 217.087 152.447C217.087 151.667 217.366 150.999 217.922 150.442C218.487 149.885 219.163 149.607 219.951 149.607C220.714 149.607 221.383 149.885 221.955 150.442C222.528 150.999 222.814 151.667 222.814 152.447C222.814 152.972 222.679 153.453 222.409 153.89C222.146 154.32 221.8 154.666 221.371 154.928C220.941 155.183 220.468 155.31 219.951 155.31Z" fill="white"/>
<path d="M115.103 30.5994C114.887 29.848 114.583 29.1841 114.192 28.6076C113.801 28.0209 113.322 27.5268 112.756 27.1253C112.2 26.7136 111.562 26.3996 110.842 26.1834C110.131 25.9673 109.344 25.8592 108.479 25.8592C106.863 25.8592 105.443 26.2606 104.218 27.0636C103.003 27.8665 102.056 29.0348 101.377 30.5686C100.697 32.092 100.358 33.9552 100.358 36.158C100.358 38.3609 100.692 40.2343 101.361 41.7784C102.03 43.3224 102.977 44.5011 104.202 45.3143C105.427 46.1172 106.873 46.5186 108.541 46.5186C110.054 46.5186 111.346 46.251 112.417 45.7157C113.497 45.1701 114.321 44.4033 114.887 43.4151C115.464 42.4269 115.752 41.2585 115.752 39.9101L117.111 40.1108H108.958V35.0772H122.19V39.0608C122.19 41.8401 121.604 44.2283 120.43 46.2252C119.257 48.2119 117.641 49.7457 115.582 50.8265C113.523 51.8971 111.166 52.4323 108.51 52.4323C105.546 52.4323 102.941 51.7787 100.697 50.4714C98.4532 49.1538 96.7033 47.2855 95.4475 44.8665C94.2019 42.4372 93.5792 39.5549 93.5792 36.2198C93.5792 33.6567 93.9497 31.3715 94.6909 29.3642C95.4423 27.3466 96.4923 25.6379 97.8408 24.2379C99.1892 22.838 100.759 21.7726 102.55 21.0417C104.341 20.3109 106.282 19.9455 108.371 19.9455C110.162 19.9455 111.83 20.208 113.374 20.7329C114.918 21.2476 116.287 21.9785 117.481 22.9255C118.685 23.8725 119.669 24.9997 120.43 26.307C121.192 27.604 121.681 29.0348 121.897 30.5994H115.103ZM146.745 20.3778H153.431V40.9137C153.431 43.2195 152.88 45.237 151.778 46.9664C150.687 48.6957 149.159 50.0442 147.193 51.0118C145.226 51.9691 142.936 52.4478 140.322 52.4478C137.697 52.4478 135.401 51.9691 133.435 51.0118C131.469 50.0442 129.94 48.6957 128.849 46.9664C127.758 45.237 127.212 43.2195 127.212 40.9137V20.3778H133.898V40.3424C133.898 41.5468 134.161 42.6173 134.686 43.554C135.221 44.4908 135.972 45.2268 136.94 45.762C137.908 46.2973 139.035 46.5649 140.322 46.5649C141.619 46.5649 142.746 46.2973 143.703 45.762C144.671 45.2268 145.417 44.4908 145.942 43.554C146.477 42.6173 146.745 41.5468 146.745 40.3424V20.3778ZM164.382 52H157.217L168.134 20.3778H176.75L187.651 52H180.486L172.565 27.604H172.318L164.382 52ZM163.934 39.5704H180.857V44.7893H163.934V39.5704ZM198.142 20.3778V52H191.457V20.3778H198.142ZM223.175 20.3778H229.861V40.9137C229.861 43.2195 229.31 45.237 228.209 46.9664C227.118 48.6957 225.589 50.0442 223.623 51.0118C221.657 51.9691 219.367 52.4478 216.752 52.4478C214.127 52.4478 211.832 51.9691 209.866 51.0118C207.9 50.0442 206.371 48.6957 205.28 46.9664C204.189 45.237 203.643 43.2195 203.643 40.9137V20.3778H210.329V40.3424C210.329 41.5468 210.591 42.6173 211.116 43.554C211.652 44.4908 212.403 45.2268 213.371 45.762C214.338 46.2973 215.465 46.5649 216.752 46.5649C218.049 46.5649 219.176 46.2973 220.134 45.762C221.101 45.2268 221.847 44.4908 222.372 43.554C222.908 42.6173 223.175 41.5468 223.175 40.3424V20.3778ZM214.39 17.3206L217.663 10.2951H223.747L219.037 17.3206H214.39Z" fill="white"/>
<path d="M32.4709 51.998C32.603 47.7383 37.0637 45.6208 40.4982 44.3486C42.6727 34.9164 44.6216 25.3604 44.9397 15.6376C44.7811 15.1105 44.5261 15.2231 44.205 15.5629C43.7 16.0991 42.8739 17.6528 42.5122 18.36C41.558 20.2278 40.7959 22.3341 40.294 24.3656C39.731 24.4014 39.3104 23.8815 39.033 23.4353C37.7608 21.3925 38.4457 18.1716 39.3327 16.0787C39.5563 15.5516 39.8733 15.0675 40.0908 14.5404C40.0156 14.4647 38.5503 15.4001 38.3725 15.5209C35.4512 17.5166 33.1354 20.2943 31.1997 23.2367C30.3899 22.5357 30.5311 21.3096 30.7923 20.3721C31.6143 17.4286 35.189 14.1658 37.7222 12.6143L41.6139 10.4466C37.3066 8.52658 32.6182 7.80197 28 7.018C28.6381 6.40802 29.4774 6.06312 30.333 5.88811C32.4414 5.45518 34.7541 5.73459 36.8412 6.19719C39.0513 6.68743 41.1231 7.57886 43.1808 8.4969L43.3433 8.25025C41.9543 5.33544 39.8255 2.82592 37.5525 0.569197C39.3195 -0.751064 41.68 0.485273 43.1858 1.64792C44.8807 2.9559 46.3053 4.93015 47.0014 6.96581C47.1548 7.00777 47.169 6.92589 47.2554 6.86551C47.7289 6.53391 48.2949 5.81647 48.8395 5.39071C50.7112 3.92716 54.0593 2.29168 56.3516 3.53415C56.5071 3.6191 57.2225 4.07352 57.0578 4.30175C55.2776 5.23105 53.5604 6.41416 52.0809 7.78457C54.0766 7.16026 56.1881 6.65058 58.3016 6.89314C58.9143 6.96376 59.7627 7.20427 60.2088 7.63413L52.8938 10.1917C54.1782 10.5305 55.4138 11.0207 56.5427 11.7351C58.2812 12.8343 60.3165 14.8229 59.7008 17.0991C58.709 16.6201 57.7397 16.0777 56.7215 15.6488C56.308 15.4748 55.7643 15.1883 55.3325 15.2057C57.0101 16.4522 58.9112 17.8564 59.2943 20.0671L53.3358 16.8074L49.6412 15.2589C50.6644 17.7224 51.5048 20.586 51.265 23.29C51.1979 24.0463 50.9276 25.0708 50.3535 25.5938C49.4786 22.2982 48.6038 18.9607 47.1507 15.8719C46.9058 17.8922 46.6559 19.931 46.4913 21.9615C46.032 27.6202 45.8115 33.5839 45.9822 39.2651C46.0218 40.5987 46.1377 41.9629 46.2982 43.2894C49.9146 43.0519 53.6163 43.3641 57.0578 44.5288V31.4797C55.5743 30.5862 54.0004 31.9126 52.5341 31.843C51.7934 31.8082 50.9957 31.3507 50.2743 31.2504C49.0519 31.0805 47.99 31.5974 46.853 31.9433C46.5258 30.7059 47.6192 29.2946 48.5204 28.5106C51.8828 25.5886 58.1177 25.2008 62.2614 26.2385C65.0465 26.9365 68.4322 28.5823 68.8428 31.7857L68.6334 31.9003C67.6722 31.5216 66.8339 31.1829 65.769 31.3517C65.4052 31.4091 64.9968 31.6772 64.6188 31.7284C63.3862 31.8952 62.6587 31.2003 61.5775 31.2177C60.6437 31.233 59.8217 31.8317 58.835 31.844C58.705 31.8461 58.4083 31.6526 58.3818 31.888C58.3798 31.9085 58.4824 32.1285 58.4855 32.2923C58.5729 36.4537 58.4113 40.6284 58.4733 44.7908C58.4641 44.9187 58.4967 44.9985 58.58 45.0927C58.6633 45.1868 60.3887 45.9647 60.7463 46.1857C62.9848 47.5715 63.7581 48.6298 66.5849 49.209C72.3067 50.3809 78.4552 50.736 84.2237 51.8096L85 52H32.4709V51.998Z" fill="white"/>
</svg>
