<svg width="346" height="141" viewBox="0 0 346 141" fill="none" xmlns="http://www.w3.org/2000/svg">
<path d="M47 85.481H50.595L61.3466 105.64L68.5367 92.1671C69.0967 91.1367 69.4775 90.2296 69.679 89.4456C69.8806 88.6616 69.9814 88.0121 69.9814 87.4969C69.9814 86.9593 69.9142 86.5449 69.7798 86.2537C69.6454 85.9625 69.4999 85.7945 69.3431 85.7497C69.2535 85.7497 69.2087 85.7049 69.2087 85.6154C69.1863 85.5706 69.1863 85.5258 69.2087 85.481H72.7029L60.1706 109H59.5659L47 85.481Z" fill="white"/>
<path d="M71.0889 100.668C71.0889 99.5252 71.2793 98.4276 71.66 97.3749C72.0408 96.2997 72.612 95.3589 73.3736 94.5526C74.1575 93.7238 75.1319 93.063 76.2967 92.5703C77.4614 92.0775 78.8277 91.8311 80.3957 91.8311C81.9636 91.8311 83.33 92.0775 84.4947 92.5703C85.6595 93.063 86.6226 93.7238 87.3842 94.5526C88.1458 95.3813 88.7169 96.3221 89.0977 97.3749C89.4785 98.4276 89.6689 99.5252 89.6689 100.668C89.6689 101.81 89.4785 102.919 89.0977 103.994C88.7169 105.047 88.1346 105.987 87.3506 106.816C86.589 107.622 85.6259 108.272 84.4611 108.765C83.3188 109.258 81.9636 109.504 80.3957 109.504C78.8277 109.504 77.4614 109.258 76.2967 108.765C75.1319 108.272 74.1575 107.611 73.3736 106.782C72.612 105.954 72.0408 105.013 71.66 103.96C71.2793 102.907 71.0889 101.81 71.0889 100.668ZM78.8501 92.5367C77.8422 92.5367 77.0022 92.7719 76.3303 93.2422C75.6583 93.7126 75.1431 94.3286 74.7847 95.0902C74.4263 95.8293 74.2135 96.6917 74.1463 97.6772C74.0791 98.6404 74.1351 99.6372 74.3143 100.668C74.5159 101.675 74.8407 102.672 75.2887 103.658C75.7367 104.621 76.2855 105.483 76.935 106.245C77.5846 106.984 78.335 107.589 79.1861 108.059C80.0373 108.53 80.9669 108.765 81.9748 108.765C82.9828 108.765 83.8115 108.53 84.4611 108.059C85.1331 107.589 85.6483 106.984 86.0066 106.245C86.365 105.483 86.5778 104.621 86.645 103.658C86.7122 102.672 86.645 101.675 86.4434 100.668C86.2418 99.6372 85.917 98.6404 85.4691 97.6772C85.0435 96.6917 84.5059 95.8293 83.8563 95.0902C83.2068 94.3286 82.4564 93.7126 81.6052 93.2422C80.7765 92.7719 79.8581 92.5367 78.8501 92.5367Z" fill="white"/>
<path d="M92.4817 100.668C92.4817 99.2788 92.7281 98.0468 93.2209 96.9717C93.7361 95.8741 94.408 94.9446 95.2368 94.183C96.0656 93.4214 97.0063 92.8502 98.0591 92.4695C99.1118 92.0663 100.187 91.8647 101.285 91.8647C102.248 91.8647 103.088 91.9655 103.804 92.1671C104.521 92.3687 105.126 92.6375 105.619 92.9734C106.112 93.287 106.492 93.6454 106.761 94.0486C107.03 94.4294 107.198 94.799 107.265 95.1573C107.355 95.7845 107.209 96.2773 106.828 96.6357C106.448 96.9941 106.011 97.1733 105.518 97.1733C105.137 97.1733 104.79 97.0501 104.476 96.8037C104.185 96.5573 104.006 96.1429 103.939 95.5605C103.894 95.2245 103.816 94.8886 103.704 94.5526C103.614 94.1942 103.435 93.8694 103.166 93.5782C102.92 93.2646 102.561 93.0182 102.091 92.839C101.621 92.6375 101.005 92.5367 100.243 92.5367C98.899 92.5367 97.8351 92.9286 97.0511 93.7126C96.2896 94.4966 95.7856 95.4821 95.5392 96.6693C95.2928 97.834 95.2928 99.1108 95.5392 100.5C95.808 101.866 96.2896 103.143 96.9839 104.33C97.6783 105.495 98.5855 106.469 99.7054 107.253C100.825 108.037 102.136 108.429 103.636 108.429C104.532 108.429 105.384 108.227 106.19 107.824C106.996 107.421 107.702 106.928 108.307 106.346C108.911 105.763 109.393 105.147 109.751 104.498C110.132 103.848 110.345 103.277 110.39 102.784C110.345 103.591 110.087 104.397 109.617 105.203C109.147 106.01 108.519 106.738 107.735 107.387C106.952 108.014 106.044 108.53 105.014 108.933C104.006 109.314 102.931 109.504 101.789 109.504C100.221 109.504 98.8542 109.258 97.6895 108.765C96.5247 108.272 95.5504 107.611 94.7664 106.782C94.0049 105.954 93.4337 105.013 93.0529 103.96C92.6721 102.907 92.4817 101.81 92.4817 100.668Z" fill="white"/>
<path d="M120.185 87.1945L122.302 90.1512H121.764L119.312 87.9673L116.859 90.1512H116.355L118.472 87.1945H120.185ZM114.339 98.3828C114.339 99.5252 114.518 100.69 114.877 101.877C115.258 103.064 115.784 104.151 116.456 105.136C117.15 106.099 117.979 106.894 118.942 107.522C119.905 108.126 120.98 108.429 122.168 108.429C123.243 108.429 124.206 108.205 125.057 107.757C125.908 107.286 126.636 106.738 127.241 106.11C127.846 105.483 128.316 104.856 128.652 104.229C128.988 103.602 129.179 103.131 129.223 102.818C129.134 103.624 128.854 104.431 128.383 105.237C127.913 106.021 127.297 106.738 126.535 107.387C125.774 108.014 124.889 108.53 123.881 108.933C122.873 109.314 121.787 109.504 120.622 109.504C119.054 109.504 117.688 109.258 116.523 108.765C115.358 108.272 114.384 107.611 113.6 106.782C112.838 105.954 112.267 105.013 111.886 103.96C111.506 102.907 111.315 101.81 111.315 100.668C111.315 99.1668 111.562 97.8676 112.054 96.7701C112.547 95.6725 113.197 94.7654 114.003 94.0486C114.81 93.3318 115.717 92.8054 116.725 92.4695C117.733 92.1111 118.763 91.9319 119.816 91.9319C120.6 91.9319 121.372 92.0663 122.134 92.3351C122.896 92.5815 123.601 92.9398 124.251 93.4102C124.9 93.8582 125.472 94.3958 125.964 95.023C126.457 95.6501 126.838 96.3445 127.107 97.1061C127.219 97.4869 127.174 97.8004 126.972 98.0468C126.793 98.2708 126.502 98.3828 126.099 98.3828H114.339ZM124.217 97.8788C124.105 97.4757 123.915 96.9717 123.646 96.3669C123.377 95.7621 123.03 95.1797 122.604 94.6198C122.179 94.0374 121.664 93.5446 121.059 93.1414C120.477 92.7383 119.816 92.5367 119.077 92.5367C118.293 92.5367 117.609 92.6823 117.027 92.9734C116.445 93.2422 115.952 93.623 115.549 94.1158C115.168 94.6086 114.877 95.1797 114.675 95.8293C114.474 96.4565 114.362 97.1397 114.339 97.8788H124.217Z" fill="white"/>
<path d="M141.7 92.9734L144.724 91.3271V109H141.7V92.9734ZM145.06 93.8806C145.329 93.5222 145.654 93.2198 146.034 92.9734C146.415 92.7047 146.83 92.4919 147.278 92.3351C147.748 92.1783 148.218 92.0663 148.689 91.9991C149.159 91.9095 149.618 91.8647 150.066 91.8647C151.455 91.8647 152.609 92.0327 153.527 92.3687C154.445 92.6823 155.196 93.119 155.778 93.679C156.383 94.2166 156.831 94.855 157.122 95.5941C157.436 96.3109 157.66 97.0837 157.794 97.9124C157.928 98.7188 157.996 99.5588 157.996 100.432C158.018 101.283 158.029 102.112 158.029 102.919V109H155.005V102.65C155.005 102.067 155.005 101.418 155.005 100.701C155.005 99.9619 154.96 99.2116 154.871 98.45C154.804 97.6884 154.669 96.9493 154.468 96.2325C154.288 95.5157 153.997 94.8774 153.594 94.3174C153.213 93.7574 152.709 93.3094 152.082 92.9734C151.455 92.6151 150.671 92.4359 149.73 92.4359C148.969 92.4359 148.319 92.4919 147.782 92.6039C147.244 92.6935 146.796 92.8166 146.438 92.9734C146.079 93.1078 145.788 93.2646 145.564 93.4438C145.362 93.6006 145.194 93.7462 145.06 93.8806Z" fill="white"/>
<path d="M162.14 100.668C162.14 99.5252 162.33 98.4276 162.711 97.3749C163.092 96.2997 163.663 95.3589 164.424 94.5526C165.208 93.7238 166.183 93.063 167.347 92.5703C168.512 92.0775 169.879 91.8311 171.447 91.8311C173.014 91.8311 174.381 92.0775 175.546 92.5703C176.71 93.063 177.673 93.7238 178.435 94.5526C179.197 95.3813 179.768 96.3221 180.149 97.3749C180.529 98.4276 180.72 99.5252 180.72 100.668C180.72 101.81 180.529 102.919 180.149 103.994C179.768 105.047 179.185 105.987 178.401 106.816C177.64 107.622 176.677 108.272 175.512 108.765C174.37 109.258 173.014 109.504 171.447 109.504C169.879 109.504 168.512 109.258 167.347 108.765C166.183 108.272 165.208 107.611 164.424 106.782C163.663 105.954 163.092 105.013 162.711 103.96C162.33 102.907 162.14 101.81 162.14 100.668ZM169.901 92.5367C168.893 92.5367 168.053 92.7719 167.381 93.2422C166.709 93.7126 166.194 94.3286 165.836 95.0902C165.477 95.8293 165.264 96.6917 165.197 97.6772C165.13 98.6404 165.186 99.6372 165.365 100.668C165.567 101.675 165.892 102.672 166.34 103.658C166.788 104.621 167.336 105.483 167.986 106.245C168.635 106.984 169.386 107.589 170.237 108.059C171.088 108.53 172.018 108.765 173.026 108.765C174.034 108.765 174.862 108.53 175.512 108.059C176.184 107.589 176.699 106.984 177.057 106.245C177.416 105.483 177.629 104.621 177.696 103.658C177.763 102.672 177.696 101.675 177.494 100.668C177.293 99.6372 176.968 98.6404 176.52 97.6772C176.094 96.6917 175.557 95.8293 174.907 95.0902C174.258 94.3286 173.507 93.7126 172.656 93.2422C171.827 92.7719 170.909 92.5367 169.901 92.5367Z" fill="white"/>
<path d="M193.606 100.668C193.606 99.2788 193.852 98.0468 194.345 96.9717C194.86 95.8741 195.532 94.9446 196.361 94.183C197.189 93.4214 198.13 92.8502 199.183 92.4695C200.236 92.0663 201.311 91.8647 202.408 91.8647C203.372 91.8647 204.212 91.9655 204.928 92.1671C205.645 92.3687 206.25 92.6375 206.743 92.9734C207.235 93.287 207.616 93.6454 207.885 94.0486C208.154 94.4294 208.322 94.799 208.389 95.1573C208.479 95.7845 208.333 96.2773 207.952 96.6357C207.571 96.9941 207.135 97.1733 206.642 97.1733C206.261 97.1733 205.914 97.0501 205.6 96.8037C205.309 96.5573 205.13 96.1429 205.063 95.5605C205.018 95.2245 204.94 94.8886 204.828 94.5526C204.738 94.1942 204.559 93.8694 204.29 93.5782C204.044 93.2646 203.685 93.0182 203.215 92.839C202.744 92.6375 202.128 92.5367 201.367 92.5367C200.023 92.5367 198.959 92.9286 198.175 93.7126C197.413 94.4966 196.909 95.4821 196.663 96.6693C196.417 97.834 196.417 99.1108 196.663 100.5C196.932 101.866 197.413 103.143 198.108 104.33C198.802 105.495 199.709 106.469 200.829 107.253C201.949 108.037 203.26 108.429 204.76 108.429C205.656 108.429 206.507 108.227 207.314 107.824C208.12 107.421 208.826 106.928 209.431 106.346C210.035 105.763 210.517 105.147 210.875 104.498C211.256 103.848 211.469 103.277 211.514 102.784C211.469 103.591 211.211 104.397 210.741 105.203C210.27 106.01 209.643 106.738 208.859 107.387C208.075 108.014 207.168 108.53 206.138 108.933C205.13 109.314 204.055 109.504 202.912 109.504C201.344 109.504 199.978 109.258 198.813 108.765C197.649 108.272 196.674 107.611 195.89 106.782C195.129 105.954 194.558 105.013 194.177 103.96C193.796 102.907 193.606 101.81 193.606 100.668Z" fill="white"/>
<path d="M215.463 98.3828C215.463 99.5252 215.642 100.69 216.001 101.877C216.381 103.064 216.908 104.151 217.58 105.136C218.274 106.099 219.103 106.894 220.066 107.522C221.029 108.126 222.104 108.429 223.292 108.429C224.367 108.429 225.33 108.205 226.181 107.757C227.032 107.286 227.76 106.738 228.365 106.11C228.97 105.483 229.44 104.856 229.776 104.229C230.112 103.602 230.302 103.131 230.347 102.818C230.258 103.624 229.978 104.431 229.507 105.237C229.037 106.021 228.421 106.738 227.659 107.387C226.898 108.014 226.013 108.53 225.005 108.933C223.997 109.314 222.911 109.504 221.746 109.504C220.178 109.504 218.812 109.258 217.647 108.765C216.482 108.272 215.508 107.611 214.724 106.782C213.962 105.954 213.391 105.013 213.01 103.96C212.63 102.907 212.439 101.81 212.439 100.668C212.439 99.1668 212.686 97.8676 213.178 96.7701C213.671 95.6725 214.321 94.7654 215.127 94.0486C215.933 93.3318 216.841 92.8054 217.849 92.4695C218.856 92.1111 219.887 91.9319 220.94 91.9319C221.724 91.9319 222.496 92.0663 223.258 92.3351C224.019 92.5815 224.725 92.9398 225.375 93.4102C226.024 93.8582 226.595 94.407 227.088 95.0566C227.581 95.6837 227.962 96.3781 228.23 97.1397C228.342 97.4981 228.298 97.8004 228.096 98.0468C227.917 98.2708 227.626 98.3828 227.223 98.3828H215.463ZM220.2 92.5367C219.416 92.5367 218.733 92.6823 218.151 92.9734C217.569 93.2422 217.076 93.623 216.673 94.1158C216.292 94.6086 216.001 95.1797 215.799 95.8293C215.597 96.4565 215.485 97.1397 215.463 97.8788H225.341C225.229 97.4757 225.039 96.9717 224.77 96.3669C224.501 95.7621 224.154 95.1797 223.728 94.6198C223.303 94.0374 222.788 93.5446 222.183 93.1414C221.6 92.7383 220.94 92.5367 220.2 92.5367Z" fill="white"/>
<path d="M232.751 92.9734L235.775 91.3271V109H232.751V92.9734ZM236.111 93.8806C236.38 93.5222 236.705 93.2198 237.085 92.9734C237.466 92.7047 237.88 92.4919 238.328 92.3351C238.799 92.1783 239.269 92.0663 239.74 91.9991C240.21 91.9095 240.669 91.8647 241.117 91.8647C242.506 91.8647 243.659 92.0327 244.578 92.3687C245.496 92.6823 246.247 93.119 246.829 93.679C247.434 94.2166 247.882 94.855 248.173 95.5941C248.486 96.3109 248.71 97.0837 248.845 97.9124C248.979 98.7188 249.046 99.5588 249.046 100.432C249.069 101.283 249.08 102.112 249.08 102.919V109H246.056V102.65C246.056 102.067 246.056 101.418 246.056 100.701C246.056 99.9619 246.011 99.2116 245.922 98.45C245.855 97.6884 245.72 96.9493 245.519 96.2325C245.339 95.5157 245.048 94.8774 244.645 94.3174C244.264 93.7574 243.76 93.3094 243.133 92.9734C242.506 92.6151 241.722 92.4359 240.781 92.4359C240.02 92.4359 239.37 92.4919 238.832 92.6039C238.295 92.6935 237.847 92.8166 237.488 92.9734C237.13 93.1078 236.839 93.2646 236.615 93.4438C236.413 93.6006 236.245 93.7462 236.111 93.8806Z" fill="white"/>
<path d="M255.744 86.9929C256.64 86.9929 257.368 87.2281 257.928 87.6985C258.51 88.1464 258.835 88.6728 258.902 89.2776C258.97 89.86 258.757 90.4423 258.264 91.0247C257.771 91.5847 256.931 91.9767 255.744 92.2007H264.144V92.7383H258.163V105.069C258.163 105.987 258.309 106.693 258.6 107.186C258.914 107.678 259.305 108.003 259.776 108.16C260.246 108.317 260.773 108.328 261.355 108.194C261.937 108.059 262.509 107.824 263.069 107.488C263.629 107.13 264.144 106.693 264.614 106.178C265.107 105.663 265.499 105.091 265.79 104.464C265.432 105.338 265.006 106.077 264.513 106.682C264.043 107.264 263.528 107.746 262.968 108.126C262.43 108.485 261.87 108.754 261.288 108.933C260.705 109.09 260.134 109.168 259.574 109.168C258.97 109.168 258.398 109.078 257.861 108.899C257.323 108.72 256.853 108.462 256.45 108.126C256.046 107.768 255.722 107.342 255.475 106.85C255.251 106.357 255.139 105.797 255.139 105.17V92.7383H252.384V92.2007H253.594C254.624 92.2007 255.442 91.9319 256.046 91.3943C256.651 90.8567 257.032 90.2632 257.189 89.6136C257.368 88.9416 257.334 88.3368 257.088 87.7993C256.842 87.2617 256.394 86.9929 255.744 86.9929Z" fill="white"/>
<path d="M268.679 92.9734L271.703 91.3271V109H268.679V92.9734ZM272.106 95.5269C272.397 94.9894 272.756 94.4742 273.181 93.9814C273.607 93.4886 274.066 93.0518 274.559 92.6711C275.074 92.2903 275.612 91.9879 276.172 91.7639C276.754 91.5175 277.336 91.3943 277.919 91.3943C278.322 91.3943 278.748 91.4615 279.196 91.5959C279.666 91.7527 279.968 92.0215 280.103 92.4023C280.26 92.783 280.271 93.1638 280.136 93.5446C280.024 93.903 279.789 94.2054 279.431 94.4518C279.072 94.6758 278.624 94.7206 278.087 94.5862C277.773 94.4966 277.516 94.3734 277.314 94.2166C277.112 94.0374 276.922 93.8694 276.743 93.7126C276.564 93.5334 276.385 93.3878 276.205 93.2758C276.026 93.1414 275.813 93.0742 275.567 93.0742C275.164 93.0742 274.637 93.287 273.988 93.7126C273.338 94.1382 272.711 94.743 272.106 95.5269Z" fill="white"/>
<path d="M281.342 100.668C281.342 99.5252 281.533 98.4276 281.914 97.3749C282.294 96.2997 282.866 95.3589 283.627 94.5526C284.411 93.7238 285.386 93.063 286.55 92.5703C287.715 92.0775 289.081 91.8311 290.649 91.8311C292.217 91.8311 293.584 92.0775 294.748 92.5703C295.913 93.063 296.876 93.7238 297.638 94.5526C298.399 95.3813 298.971 96.3221 299.351 97.3749C299.732 98.4276 299.923 99.5252 299.923 100.668C299.923 101.81 299.732 102.919 299.351 103.994C298.971 105.047 298.388 105.987 297.604 106.816C296.843 107.622 295.879 108.272 294.715 108.765C293.572 109.258 292.217 109.504 290.649 109.504C289.081 109.504 287.715 109.258 286.55 108.765C285.386 108.272 284.411 107.611 283.627 106.782C282.866 105.954 282.294 105.013 281.914 103.96C281.533 102.907 281.342 101.81 281.342 100.668ZM289.104 92.5367C288.096 92.5367 287.256 92.7719 286.584 93.2422C285.912 93.7126 285.397 94.3286 285.038 95.0902C284.68 95.8293 284.467 96.6917 284.4 97.6772C284.333 98.6404 284.389 99.6372 284.568 100.668C284.77 101.675 285.094 102.672 285.542 103.658C285.99 104.621 286.539 105.483 287.189 106.245C287.838 106.984 288.589 107.589 289.44 108.059C290.291 108.53 291.22 108.765 292.228 108.765C293.236 108.765 294.065 108.53 294.715 108.059C295.387 107.589 295.902 106.984 296.26 106.245C296.619 105.483 296.831 104.621 296.899 103.658C296.966 102.672 296.899 101.675 296.697 100.668C296.495 99.6372 296.171 98.6404 295.723 97.6772C295.297 96.6917 294.76 95.8293 294.11 95.0902C293.46 94.3286 292.71 93.7126 291.859 93.2422C291.03 92.7719 290.112 92.5367 289.104 92.5367Z" fill="white"/>
<path d="M118.463 123.335C117.209 123.335 116.201 123.738 115.44 124.545C114.7 125.351 114.174 126.359 113.86 127.568C113.569 128.778 113.491 130.088 113.625 131.5C113.782 132.911 114.118 134.221 114.633 135.431C115.171 136.64 115.888 137.648 116.783 138.454C117.702 139.261 118.777 139.664 120.009 139.664C121.129 139.664 122.058 139.485 122.798 139.126C123.537 138.746 124.119 138.197 124.545 137.48C124.119 138.466 123.425 139.216 122.462 139.731C121.498 140.246 120.267 140.504 118.766 140.504C117.265 140.504 115.977 140.258 114.902 139.765C113.827 139.25 112.942 138.578 112.248 137.749C111.576 136.92 111.072 135.979 110.736 134.927C110.422 133.851 110.265 132.765 110.265 131.668C110.265 130.57 110.422 129.495 110.736 128.442C111.072 127.367 111.587 126.415 112.281 125.586C112.976 124.757 113.86 124.097 114.936 123.604C116.011 123.089 117.287 122.831 118.766 122.831C120.289 122.831 121.554 123.066 122.562 123.537C123.57 123.985 124.377 124.567 124.982 125.284V116.447L128.005 114.801V140H124.982V130.458C124.802 129.54 124.522 128.655 124.142 127.804C123.761 126.93 123.29 126.169 122.73 125.519C122.193 124.847 121.566 124.321 120.849 123.94C120.132 123.537 119.337 123.335 118.463 123.335Z" fill="white"/>
<path d="M134.616 129.383C134.616 130.525 134.796 131.69 135.154 132.877C135.535 134.064 136.061 135.151 136.733 136.136C137.428 137.099 138.256 137.894 139.219 138.522C140.183 139.126 141.258 139.429 142.445 139.429C143.52 139.429 144.483 139.205 145.334 138.757C146.186 138.286 146.914 137.738 147.518 137.11C148.123 136.483 148.593 135.856 148.929 135.229C149.265 134.602 149.456 134.131 149.501 133.818C149.411 134.624 149.131 135.431 148.661 136.237C148.19 137.021 147.574 137.738 146.813 138.387C146.051 139.014 145.166 139.53 144.158 139.933C143.15 140.314 142.064 140.504 140.899 140.504C139.331 140.504 137.965 140.258 136.8 139.765C135.636 139.272 134.661 138.611 133.877 137.782C133.116 136.954 132.545 136.013 132.164 134.96C131.783 133.907 131.593 132.81 131.593 131.668C131.593 130.167 131.839 128.868 132.332 127.77C132.825 126.673 133.474 125.765 134.28 125.049C135.087 124.332 135.994 123.805 137.002 123.469C138.01 123.111 139.04 122.932 140.093 122.932C140.877 122.932 141.65 123.066 142.411 123.335C143.173 123.581 143.878 123.94 144.528 124.41C145.178 124.858 145.749 125.407 146.242 126.057C146.734 126.684 147.115 127.378 147.384 128.14C147.496 128.498 147.451 128.8 147.25 129.047C147.07 129.271 146.779 129.383 146.376 129.383H134.616ZM139.354 123.537C138.57 123.537 137.887 123.682 137.304 123.973C136.722 124.242 136.229 124.623 135.826 125.116C135.445 125.609 135.154 126.18 134.952 126.829C134.751 127.456 134.639 128.14 134.616 128.879H144.494C144.382 128.476 144.192 127.972 143.923 127.367C143.654 126.762 143.307 126.18 142.882 125.62C142.456 125.037 141.941 124.545 141.336 124.141C140.754 123.738 140.093 123.537 139.354 123.537Z" fill="white"/>
<path d="M163.053 117.993C163.949 117.993 164.677 118.228 165.237 118.698C165.819 119.146 166.144 119.673 166.211 120.278C166.278 120.86 166.065 121.442 165.573 122.025C165.08 122.585 164.24 122.977 163.053 123.201H171.452V123.738H165.472V136.069C165.472 136.987 165.617 137.693 165.909 138.186C166.222 138.678 166.614 139.003 167.084 139.16C167.555 139.317 168.081 139.328 168.664 139.194C169.246 139.059 169.817 138.824 170.377 138.488C170.937 138.13 171.452 137.693 171.923 137.178C172.415 136.663 172.807 136.091 173.099 135.464C172.74 136.338 172.315 137.077 171.822 137.682C171.352 138.264 170.836 138.746 170.276 139.126C169.739 139.485 169.179 139.754 168.596 139.933C168.014 140.09 167.443 140.168 166.883 140.168C166.278 140.168 165.707 140.078 165.169 139.899C164.632 139.72 164.161 139.462 163.758 139.126C163.355 138.768 163.03 138.342 162.784 137.85C162.56 137.357 162.448 136.797 162.448 136.17V123.738H159.693V123.201H160.902C161.933 123.201 162.75 122.932 163.355 122.394C163.96 121.857 164.341 121.263 164.497 120.614C164.677 119.942 164.643 119.337 164.397 118.799C164.15 118.262 163.702 117.993 163.053 117.993Z" fill="white"/>
<path d="M188.789 140V124.007L191.813 122.327V140H188.789ZM188.487 137.278C188.375 137.771 188.151 138.208 187.815 138.589C187.479 138.97 187.087 139.294 186.639 139.563C186.191 139.81 185.709 140 185.194 140.134C184.679 140.269 184.175 140.336 183.682 140.336C181.621 140.336 180.042 139.989 178.945 139.294C177.847 138.6 177.052 137.715 176.559 136.64C176.089 135.543 175.82 134.344 175.753 133.045C175.708 131.746 175.685 130.492 175.685 129.282V123.973L178.709 122.327V129.551C178.709 130.424 178.721 131.432 178.743 132.575C178.765 133.717 178.922 134.803 179.213 135.834C179.527 136.842 180.042 137.704 180.759 138.421C181.498 139.115 182.573 139.462 183.984 139.462C184.768 139.462 185.429 139.384 185.967 139.227C186.504 139.07 186.941 138.891 187.277 138.69C187.613 138.466 187.871 138.23 188.05 137.984C188.229 137.715 188.375 137.48 188.487 137.278Z" fill="white"/>
<path d="M204.461 123.335C203.207 123.335 202.199 123.738 201.437 124.545C200.698 125.351 200.172 126.359 199.858 127.568C199.567 128.778 199.489 130.088 199.623 131.5C199.78 132.911 200.116 134.221 200.631 135.431C201.169 136.64 201.885 137.648 202.781 138.454C203.7 139.261 204.775 139.664 206.007 139.664C207.127 139.664 208.056 139.485 208.796 139.126C209.535 138.746 210.117 138.197 210.543 137.48C210.117 138.466 209.423 139.216 208.46 139.731C207.496 140.246 206.264 140.504 204.764 140.504C203.263 140.504 201.975 140.258 200.9 139.765C199.825 139.25 198.94 138.578 198.246 137.749C197.574 136.92 197.07 135.979 196.734 134.927C196.42 133.851 196.263 132.765 196.263 131.668C196.263 130.57 196.42 129.495 196.734 128.442C197.07 127.367 197.585 126.415 198.279 125.586C198.974 124.757 199.858 124.097 200.933 123.604C202.009 123.089 203.285 122.831 204.764 122.831C206.287 122.831 207.552 123.066 208.56 123.537C209.568 123.985 210.375 124.567 210.979 125.284V116.447L214.003 114.801V140H210.979V130.458C210.8 129.54 210.52 128.655 210.139 127.804C209.759 126.93 209.288 126.169 208.728 125.519C208.191 124.847 207.564 124.321 206.847 123.94C206.13 123.537 205.335 123.335 204.461 123.335Z" fill="white"/>
<path d="M218.312 131.668C218.312 130.525 218.503 129.428 218.884 128.375C219.264 127.3 219.835 126.359 220.597 125.553C221.381 124.724 222.355 124.063 223.52 123.57C224.685 123.077 226.051 122.831 227.619 122.831C229.187 122.831 230.553 123.077 231.718 123.57C232.883 124.063 233.846 124.724 234.608 125.553C235.369 126.381 235.94 127.322 236.321 128.375C236.702 129.428 236.892 130.525 236.892 131.668C236.892 132.81 236.702 133.919 236.321 134.994C235.94 136.047 235.358 136.987 234.574 137.816C233.812 138.622 232.849 139.272 231.685 139.765C230.542 140.258 229.187 140.504 227.619 140.504C226.051 140.504 224.685 140.258 223.52 139.765C222.355 139.272 221.381 138.611 220.597 137.782C219.835 136.954 219.264 136.013 218.884 134.96C218.503 133.907 218.312 132.81 218.312 131.668ZM226.074 123.537C225.066 123.537 224.226 123.772 223.554 124.242C222.882 124.713 222.367 125.329 222.008 126.09C221.65 126.829 221.437 127.692 221.37 128.677C221.303 129.64 221.359 130.637 221.538 131.668C221.739 132.675 222.064 133.672 222.512 134.658C222.96 135.621 223.509 136.483 224.159 137.245C224.808 137.984 225.558 138.589 226.41 139.059C227.261 139.53 228.19 139.765 229.198 139.765C230.206 139.765 231.035 139.53 231.685 139.059C232.357 138.589 232.872 137.984 233.23 137.245C233.589 136.483 233.801 135.621 233.868 134.658C233.936 133.672 233.868 132.675 233.667 131.668C233.465 130.637 233.141 129.64 232.693 128.677C232.267 127.692 231.729 126.829 231.08 126.09C230.43 125.329 229.68 124.713 228.829 124.242C228 123.772 227.082 123.537 226.074 123.537Z" fill="white"/>
<path d="M10.708 17.1164C8.00115 11.8959 12.0305 5.57962 16.0067 3.37472C19.8061 1.28563 24.0079 0.590755 28.6166 1.40145C36.6753 2.73329 42.6065 8.47494 46.4633 18.4482L51.647 11.7801C47.6708 5.11191 40.3021 1.22773 29.5366 0.359129C24.1848 -0.0462161 17.8511 0.938194 13.4724 3.02728C5.9887 6.62194 2.07437 13.7533 3.56934 21.6375C4.77681 26.564 7.94365 30.2745 13.1274 32.8268C22.9154 37.5796 32.9334 38.9738 42.257 43.0317C47.0913 45.1208 49.3382 47.8424 49.0507 51.0896C48.0732 61.1208 33.8534 65.5841 24.1804 64.0785C15.3123 62.7467 8.98305 56.4839 5.1793 46.5106L0 53.1787C4.8918 61.5262 15.1973 64.4839 24.7554 65.1208C35.8659 65.8736 47.8432 63.0317 51.8151 52.5373C53.717 47.6108 53.31 42.6219 50.3201 38.7377C40.3596 26.6798 17.5061 30.2121 10.7124 17.1119M79.1579 30.7957C78.4679 25.7533 78.6979 20.9382 79.8479 16.5908C80.9403 12.1854 82.8997 8.70657 85.894 5.98051C88.7734 3.19655 92.7452 1.74888 97.522 1.51726C100.976 1.45935 104.431 2.44376 107.943 4.47494C111.397 6.62194 114.334 9.86915 116.753 14.3903C119.172 18.8536 120.495 24.4215 120.782 30.9159L79.1579 30.8001V30.7957ZM140.818 34.6531C131.875 49.7222 117.439 66.3413 98.5039 60.0785C93.7271 58.2789 89.4634 54.9738 85.8366 49.8736C82.2097 44.8268 80.0203 38.858 79.3304 31.7845L130.743 31.8424C131.03 28.0161 130.168 23.6108 128.036 18.6798C125.962 13.7533 122.22 9.34354 116.983 5.57516C111.742 1.8647 105.93 0.0116904 99.4239 0.0116904C93.7227 0.0695969 88.5434 1.57517 83.7047 4.64866C78.9279 7.72216 75.416 11.7222 73.0542 16.711C70.6348 21.6954 69.4848 27.0317 69.4848 32.8313C69.7723 39.4994 71.4398 45.1253 74.5491 49.8781C77.601 54.5729 81.4578 58.1097 86.0621 60.662C90.6089 63.1565 95.2177 64.4883 99.937 64.6041C119.301 65.5885 131.875 52.0651 140.823 36.8046M140.827 36.8001L140.933 64.3101H150.779L150.434 22.5061C150.951 8.41704 163.101 1.45935 172.655 1.63307C187.622 1.9226 190.502 13.8692 190.214 25.6954L190.042 64.368L199.945 64.3101V23.3168C199.887 8.1275 190.042 -0.282296 174.269 0.00723606C158.497 0.238862 152.106 10.4438 150.319 15.6598L140.818 34.6175V34.6487M226.195 17.1164C223.488 11.8959 227.518 5.57962 231.494 3.37472C235.293 1.28563 239.495 0.590755 244.104 1.40145C252.162 2.73329 258.093 8.47494 261.95 18.4482L267.134 11.7801C263.162 5.11191 255.794 1.22773 245.028 0.359129C239.672 -0.0462161 233.343 0.938194 228.964 3.02728C221.48 6.62194 217.566 13.7533 219.061 21.6375C220.268 26.564 223.435 30.2745 228.619 32.8268C238.407 37.5796 248.425 38.9738 257.749 43.0317C262.583 45.1208 264.83 47.8424 264.542 51.0896C263.565 61.1208 249.345 65.5841 239.672 64.0785C230.804 62.7467 224.475 56.4839 220.675 46.5106L215.496 53.1787C220.388 61.5262 230.693 64.4839 240.251 65.1208C251.362 65.8736 263.339 63.0317 267.311 52.5373C269.213 47.6108 268.806 42.6219 265.816 38.7377C255.855 26.6798 233.002 30.2121 226.208 17.1119M335.924 31.5529L294.702 31.4371C294.07 26.3903 294.242 21.6375 295.335 17.348C296.427 13.0006 298.387 9.52171 301.324 6.79565C304.26 4.0696 308.117 2.62194 312.952 2.39031C316.348 2.3324 319.745 3.31681 323.2 5.34799C326.654 7.43263 329.533 10.6843 331.953 15.1475C334.315 19.6108 335.637 25.1208 335.924 31.5573M345.827 32.4794C346.172 28.6531 345.253 24.3057 343.121 19.4326C341.046 14.5017 337.419 10.1542 332.183 6.44376C327.003 2.73329 321.187 0.875833 314.738 0.875833C309.152 0.933739 303.973 2.43931 299.254 5.5128C294.477 8.52839 290.965 12.5284 288.603 17.4549C286.241 22.3814 285.091 27.6598 285.091 33.4014C285.379 40.0117 287.051 45.6331 290.098 50.3324C293.207 54.9694 297.007 58.5061 301.496 61.0006C306.043 63.495 310.594 64.8268 315.256 64.9426C322.337 64.9426 328.613 63.2055 334.023 59.7222C339.432 56.1854 343.466 51.2589 345.996 44.7645L345.018 44.5908C341.909 51.9538 337.477 56.9426 331.661 59.6643C325.845 62.3324 319.918 62.6219 313.929 60.417C309.095 58.6754 304.888 55.3703 301.319 50.3279C297.692 45.3435 295.503 39.3703 294.813 32.4126L345.823 32.4705L345.827 32.4794Z" fill="#FFF8E9"/>
</svg>
