<svg width="346" height="147" viewBox="0 0 346 147" fill="none" xmlns="http://www.w3.org/2000/svg">
<path d="M1.17595 85.481H4.771L15.5225 105.64L22.7126 92.1671C23.2726 91.1368 23.6534 90.2296 23.855 89.4456C24.0566 88.6617 24.1574 88.0121 24.1574 87.4969C24.1574 86.9593 24.0902 86.5449 23.9558 86.2538C23.8214 85.9626 23.6758 85.7946 23.519 85.7498C23.4294 85.7498 23.3846 85.705 23.3846 85.6154C23.3622 85.5706 23.3622 85.5258 23.3846 85.481H26.8789L14.3466 109H13.7418L1.17595 85.481ZM25.2648 100.668C25.2648 99.5252 25.4552 98.4276 25.836 97.3749C26.2168 96.2997 26.788 95.359 27.5495 94.5526C28.3335 93.7238 29.3079 93.0631 30.4726 92.5703C31.6374 92.0775 33.0037 91.8311 34.5716 91.8311C36.1396 91.8311 37.5059 92.0775 38.6707 92.5703C39.8354 93.0631 40.7986 93.7238 41.5601 94.5526C42.3217 95.3814 42.8929 96.3221 43.2737 97.3749C43.6544 98.4276 43.8448 99.5252 43.8448 100.668C43.8448 101.81 43.6544 102.919 43.2737 103.994C42.8929 105.047 42.3105 105.987 41.5265 106.816C40.765 107.622 39.8018 108.272 38.6371 108.765C37.4947 109.258 36.1396 109.504 34.5716 109.504C33.0037 109.504 31.6374 109.258 30.4726 108.765C29.3079 108.272 28.3335 107.611 27.5495 106.782C26.788 105.954 26.2168 105.013 25.836 103.96C25.4552 102.907 25.2648 101.81 25.2648 100.668ZM33.0261 92.5367C32.0181 92.5367 31.1782 92.7719 30.5062 93.2423C29.8342 93.7126 29.3191 94.3286 28.9607 95.0902C28.6023 95.8294 28.3895 96.6917 28.3223 97.6773C28.2551 98.6404 28.3111 99.6372 28.4903 100.668C28.6919 101.676 29.0167 102.672 29.4646 103.658C29.9126 104.621 30.4614 105.483 31.111 106.245C31.7605 106.984 32.5109 107.589 33.3621 108.059C34.2132 108.53 35.1428 108.765 36.1508 108.765C37.1587 108.765 37.9875 108.53 38.6371 108.059C39.309 107.589 39.8242 106.984 40.1826 106.245C40.541 105.483 40.7538 104.621 40.821 103.658C40.8882 102.672 40.821 101.676 40.6194 100.668C40.4178 99.6372 40.093 98.6404 39.645 97.6773C39.2194 96.6917 38.6819 95.8294 38.0323 95.0902C37.3827 94.3286 36.6323 93.7126 35.7812 93.2423C34.9524 92.7719 34.0341 92.5367 33.0261 92.5367ZM46.6577 100.668C46.6577 99.2788 46.9041 98.0469 47.3968 96.9717C47.912 95.8742 48.584 94.9446 49.4128 94.183C50.2415 93.4215 51.1823 92.8503 52.235 92.4695C53.2878 92.0663 54.3629 91.8647 55.4605 91.8647C56.4237 91.8647 57.2636 91.9655 57.9804 92.1671C58.6972 92.3687 59.3019 92.6375 59.7947 92.9735C60.2875 93.2871 60.6683 93.6454 60.9371 94.0486C61.2059 94.4294 61.3738 94.799 61.441 95.1574C61.5306 95.7846 61.385 96.2773 61.0043 96.6357C60.6235 96.9941 60.1867 97.1733 59.6939 97.1733C59.3131 97.1733 58.966 97.0501 58.6524 96.8037C58.3612 96.5573 58.182 96.1429 58.1148 95.5606C58.07 95.2246 57.9916 94.8886 57.8796 94.5526C57.79 94.1942 57.6108 93.8694 57.342 93.5782C57.0956 93.2647 56.7372 93.0183 56.2669 92.8391C55.7965 92.6375 55.1805 92.5367 54.4189 92.5367C53.075 92.5367 52.011 92.9287 51.2271 93.7126C50.4655 94.4966 49.9615 95.4822 49.7151 96.6693C49.4688 97.8341 49.4688 99.1108 49.7151 100.5C49.9839 101.866 50.4655 103.143 51.1599 104.33C51.8543 105.495 52.7614 106.469 53.8814 107.253C55.0013 108.037 56.3117 108.429 57.8124 108.429C58.7084 108.429 59.5595 108.227 60.3659 107.824C61.1723 107.421 61.8778 106.928 62.4826 106.346C63.0874 105.763 63.569 105.147 63.9273 104.498C64.3081 103.848 64.5209 103.277 64.5657 102.784C64.5209 103.591 64.2633 104.397 63.7929 105.203C63.3226 106.01 62.6954 106.738 61.9114 107.387C61.1275 108.014 60.2203 108.53 59.1899 108.933C58.182 109.314 57.1068 109.504 55.9645 109.504C54.3965 109.504 53.0302 109.258 51.8654 108.765C50.7007 108.272 49.7263 107.611 48.9424 106.782C48.1808 105.954 47.6096 105.013 47.2288 103.96C46.8481 102.907 46.6577 101.81 46.6577 100.668ZM74.3613 87.1945L76.478 90.1512H75.9404L73.4877 87.9673L71.035 90.1512H70.531L72.6477 87.1945H74.3613ZM68.5151 98.3828C68.5151 99.5252 68.6943 100.69 69.0527 101.877C69.4335 103.064 69.9599 104.151 70.6318 105.136C71.3262 106.099 72.155 106.894 73.1181 107.522C74.0813 108.126 75.1564 108.429 76.3436 108.429C77.4187 108.429 78.3819 108.205 79.2331 107.757C80.0842 107.286 80.8122 106.738 81.417 106.111C82.0218 105.483 82.4921 104.856 82.8281 104.229C83.1641 103.602 83.3545 103.131 83.3993 102.818C83.3097 103.624 83.0297 104.431 82.5593 105.237C82.089 106.021 81.473 106.738 80.7114 107.387C79.9498 108.014 79.0651 108.53 78.0571 108.933C77.0492 109.314 75.9628 109.504 74.7981 109.504C73.2301 109.504 71.8638 109.258 70.699 108.765C69.5343 108.272 68.5599 107.611 67.776 106.782C67.0144 105.954 66.4432 105.013 66.0624 103.96C65.6816 102.907 65.4912 101.81 65.4912 100.668C65.4912 99.1668 65.7376 97.8677 66.2304 96.7701C66.7232 95.6726 67.3728 94.7654 68.1791 94.0486C68.9855 93.3319 69.8927 92.8055 70.9006 92.4695C71.9086 92.1111 72.9389 91.9319 73.9917 91.9319C74.7757 91.9319 75.5484 92.0663 76.31 92.3351C77.0716 92.5815 77.7771 92.9399 78.4267 93.4103C79.0763 93.8582 79.6475 94.3958 80.1402 95.023C80.633 95.6502 81.0138 96.3445 81.2826 97.1061C81.3946 97.4869 81.3498 97.8005 81.1482 98.0469C80.969 98.2709 80.6778 98.3828 80.2746 98.3828H68.5151ZM78.3931 97.8789C78.2811 97.4757 78.0907 96.9717 77.8219 96.3669C77.5531 95.7622 77.206 95.1798 76.7804 94.6198C76.3548 94.0374 75.8396 93.5447 75.2348 93.1415C74.6525 92.7383 73.9917 92.5367 73.2525 92.5367C72.4686 92.5367 71.7854 92.6823 71.203 92.9735C70.6206 93.2423 70.1279 93.623 69.7247 94.1158C69.3439 94.6086 69.0527 95.1798 68.8511 95.8294C68.6495 96.4565 68.5375 97.1397 68.5151 97.8789H78.3931ZM95.8762 92.9735L98.9001 91.3271V109H95.8762V92.9735ZM99.236 93.8806C99.5048 93.5223 99.8296 93.2199 100.21 92.9735C100.591 92.7047 101.006 92.4919 101.454 92.3351C101.924 92.1783 102.394 92.0663 102.865 91.9991C103.335 91.9095 103.794 91.8647 104.242 91.8647C105.631 91.8647 106.785 92.0327 107.703 92.3687C108.621 92.6823 109.372 93.1191 109.954 93.679C110.559 94.2166 111.007 94.855 111.298 95.5942C111.612 96.3109 111.836 97.0837 111.97 97.9125C112.104 98.7188 112.171 99.5588 112.171 100.432C112.194 101.284 112.205 102.112 112.205 102.919V109H109.181V102.65C109.181 102.067 109.181 101.418 109.181 100.701C109.181 99.962 109.136 99.2116 109.047 98.45C108.98 97.6885 108.845 96.9493 108.644 96.2325C108.464 95.5158 108.173 94.8774 107.77 94.3174C107.389 93.7574 106.885 93.3095 106.258 92.9735C105.631 92.6151 104.847 92.4359 103.906 92.4359C103.145 92.4359 102.495 92.4919 101.958 92.6039C101.42 92.6935 100.972 92.8167 100.614 92.9735C100.255 93.1079 99.964 93.2647 99.74 93.4439C99.5384 93.6006 99.3704 93.7462 99.236 93.8806ZM116.316 100.668C116.316 99.5252 116.506 98.4276 116.887 97.3749C117.268 96.2997 117.839 95.359 118.6 94.5526C119.384 93.7238 120.359 93.0631 121.523 92.5703C122.688 92.0775 124.055 91.8311 125.622 91.8311C127.19 91.8311 128.557 92.0775 129.722 92.5703C130.886 93.0631 131.849 93.7238 132.611 94.5526C133.373 95.3814 133.944 96.3221 134.325 97.3749C134.705 98.4276 134.896 99.5252 134.896 100.668C134.896 101.81 134.705 102.919 134.325 103.994C133.944 105.047 133.361 105.987 132.577 106.816C131.816 107.622 130.853 108.272 129.688 108.765C128.546 109.258 127.19 109.504 125.622 109.504C124.055 109.504 122.688 109.258 121.523 108.765C120.359 108.272 119.384 107.611 118.6 106.782C117.839 105.954 117.268 105.013 116.887 103.96C116.506 102.907 116.316 101.81 116.316 100.668ZM124.077 92.5367C123.069 92.5367 122.229 92.7719 121.557 93.2423C120.885 93.7126 120.37 94.3286 120.012 95.0902C119.653 95.8294 119.44 96.6917 119.373 97.6773C119.306 98.6404 119.362 99.6372 119.541 100.668C119.743 101.676 120.068 102.672 120.515 103.658C120.963 104.621 121.512 105.483 122.162 106.245C122.811 106.984 123.562 107.589 124.413 108.059C125.264 108.53 126.194 108.765 127.202 108.765C128.21 108.765 129.038 108.53 129.688 108.059C130.36 107.589 130.875 106.984 131.233 106.245C131.592 105.483 131.805 104.621 131.872 103.658C131.939 102.672 131.872 101.676 131.67 100.668C131.469 99.6372 131.144 98.6404 130.696 97.6773C130.27 96.6917 129.733 95.8294 129.083 95.0902C128.434 94.3286 127.683 93.7126 126.832 93.2423C126.003 92.7719 125.085 92.5367 124.077 92.5367ZM147.782 100.668C147.782 99.2788 148.028 98.0469 148.521 96.9717C149.036 95.8742 149.708 94.9446 150.537 94.183C151.365 93.4215 152.306 92.8503 153.359 92.4695C154.412 92.0663 155.487 91.8647 156.584 91.8647C157.548 91.8647 158.387 91.9655 159.104 92.1671C159.821 92.3687 160.426 92.6375 160.919 92.9735C161.411 93.2871 161.792 93.6454 162.061 94.0486C162.33 94.4294 162.498 94.799 162.565 95.1574C162.655 95.7846 162.509 96.2773 162.128 96.6357C161.747 96.9941 161.311 97.1733 160.818 97.1733C160.437 97.1733 160.09 97.0501 159.776 96.8037C159.485 96.5573 159.306 96.1429 159.239 95.5606C159.194 95.2246 159.115 94.8886 159.003 94.5526C158.914 94.1942 158.735 93.8694 158.466 93.5782C158.219 93.2647 157.861 93.0183 157.391 92.8391C156.92 92.6375 156.304 92.5367 155.543 92.5367C154.199 92.5367 153.135 92.9287 152.351 93.7126C151.589 94.4966 151.085 95.4822 150.839 96.6693C150.593 97.8341 150.593 99.1108 150.839 100.5C151.108 101.866 151.589 103.143 152.284 104.33C152.978 105.495 153.885 106.469 155.005 107.253C156.125 108.037 157.436 108.429 158.936 108.429C159.832 108.429 160.683 108.227 161.49 107.824C162.296 107.421 163.002 106.928 163.606 106.346C164.211 105.763 164.693 105.147 165.051 104.498C165.432 103.848 165.645 103.277 165.69 102.784C165.645 103.591 165.387 104.397 164.917 105.203C164.446 106.01 163.819 106.738 163.035 107.387C162.251 108.014 161.344 108.53 160.314 108.933C159.306 109.314 158.231 109.504 157.088 109.504C155.52 109.504 154.154 109.258 152.989 108.765C151.825 108.272 150.85 107.611 150.066 106.782C149.305 105.954 148.733 105.013 148.353 103.96C147.972 102.907 147.782 101.81 147.782 100.668ZM169.639 98.3828C169.639 99.5252 169.818 100.69 170.177 101.877C170.557 103.064 171.084 104.151 171.756 105.136C172.45 106.099 173.279 106.894 174.242 107.522C175.205 108.126 176.28 108.429 177.467 108.429C178.543 108.429 179.506 108.205 180.357 107.757C181.208 107.286 181.936 106.738 182.541 106.111C183.146 105.483 183.616 104.856 183.952 104.229C184.288 103.602 184.478 103.131 184.523 102.818C184.434 103.624 184.154 104.431 183.683 105.237C183.213 106.021 182.597 106.738 181.835 107.387C181.074 108.014 180.189 108.53 179.181 108.933C178.173 109.314 177.087 109.504 175.922 109.504C174.354 109.504 172.988 109.258 171.823 108.765C170.658 108.272 169.684 107.611 168.9 106.782C168.138 105.954 167.567 105.013 167.186 103.96C166.805 102.907 166.615 101.81 166.615 100.668C166.615 99.1668 166.861 97.8677 167.354 96.7701C167.847 95.6726 168.497 94.7654 169.303 94.0486C170.109 93.3319 171.017 92.8055 172.024 92.4695C173.032 92.1111 174.063 91.9319 175.116 91.9319C175.9 91.9319 176.672 92.0663 177.434 92.3351C178.195 92.5815 178.901 92.9399 179.551 93.4103C180.2 93.8582 180.771 94.407 181.264 95.0566C181.757 95.6838 182.138 96.3781 182.406 97.1397C182.518 97.4981 182.474 97.8005 182.272 98.0469C182.093 98.2709 181.802 98.3828 181.398 98.3828H169.639ZM174.376 92.5367C173.592 92.5367 172.909 92.6823 172.327 92.9735C171.744 93.2423 171.252 93.623 170.849 94.1158C170.468 94.6086 170.177 95.1798 169.975 95.8294C169.773 96.4565 169.661 97.1397 169.639 97.8789H179.517C179.405 97.4757 179.215 96.9717 178.946 96.3669C178.677 95.7622 178.33 95.1798 177.904 94.6198C177.479 94.0374 176.963 93.5447 176.359 93.1415C175.776 92.7383 175.116 92.5367 174.376 92.5367ZM186.927 92.9735L189.951 91.3271V109H186.927V92.9735ZM190.287 93.8806C190.556 93.5223 190.88 93.2199 191.261 92.9735C191.642 92.7047 192.056 92.4919 192.504 92.3351C192.975 92.1783 193.445 92.0663 193.916 91.9991C194.386 91.9095 194.845 91.8647 195.293 91.8647C196.682 91.8647 197.835 92.0327 198.754 92.3687C199.672 92.6823 200.422 93.1191 201.005 93.679C201.61 94.2166 202.058 94.855 202.349 95.5942C202.662 96.3109 202.886 97.0837 203.021 97.9125C203.155 98.7188 203.222 99.5588 203.222 100.432C203.245 101.284 203.256 102.112 203.256 102.919V109H200.232V102.65C200.232 102.067 200.232 101.418 200.232 100.701C200.232 99.962 200.187 99.2116 200.098 98.45C200.03 97.6885 199.896 96.9493 199.694 96.2325C199.515 95.5158 199.224 94.8774 198.821 94.3174C198.44 93.7574 197.936 93.3095 197.309 92.9735C196.682 92.6151 195.898 92.4359 194.957 92.4359C194.196 92.4359 193.546 92.4919 193.008 92.6039C192.471 92.6935 192.023 92.8167 191.664 92.9735C191.306 93.1079 191.015 93.2647 190.791 93.4439C190.589 93.6006 190.421 93.7462 190.287 93.8806ZM209.92 86.9929C210.816 86.9929 211.544 87.2281 212.104 87.6985C212.686 88.1465 213.011 88.6729 213.078 89.2776C213.145 89.86 212.933 90.4424 212.44 91.0248C211.947 91.5847 211.107 91.9767 209.92 92.2007H218.32V92.7383H212.339V105.069C212.339 105.987 212.485 106.693 212.776 107.186C213.089 107.678 213.481 108.003 213.952 108.16C214.422 108.317 214.949 108.328 215.531 108.194C216.113 108.059 216.685 107.824 217.244 107.488C217.804 107.13 218.32 106.693 218.79 106.178C219.283 105.663 219.675 105.091 219.966 104.464C219.608 105.338 219.182 106.077 218.689 106.682C218.219 107.264 217.704 107.746 217.144 108.126C216.606 108.485 216.046 108.754 215.464 108.933C214.881 109.09 214.31 109.168 213.75 109.168C213.145 109.168 212.574 109.078 212.037 108.899C211.499 108.72 211.029 108.462 210.626 108.126C210.222 107.768 209.898 107.342 209.651 106.85C209.427 106.357 209.315 105.797 209.315 105.17V92.7383H206.56V92.2007H207.77C208.8 92.2007 209.618 91.9319 210.222 91.3943C210.827 90.8568 211.208 90.2632 211.365 89.6136C211.544 88.9416 211.51 88.3369 211.264 87.7993C211.018 87.2617 210.57 86.9929 209.92 86.9929ZM222.855 92.9735L225.879 91.3271V109H222.855V92.9735ZM226.282 95.527C226.573 94.9894 226.932 94.4742 227.357 93.9814C227.783 93.4887 228.242 93.0519 228.735 92.6711C229.25 92.2903 229.788 91.9879 230.348 91.7639C230.93 91.5175 231.512 91.3943 232.095 91.3943C232.498 91.3943 232.924 91.4615 233.372 91.5959C233.842 91.7527 234.144 92.0215 234.279 92.4023C234.436 92.7831 234.447 93.1639 234.312 93.5447C234.2 93.903 233.965 94.2054 233.607 94.4518C233.248 94.6758 232.8 94.7206 232.263 94.5862C231.949 94.4966 231.692 94.3734 231.49 94.2166C231.288 94.0374 231.098 93.8694 230.919 93.7126C230.74 93.5335 230.56 93.3879 230.381 93.2759C230.202 93.1415 229.989 93.0743 229.743 93.0743C229.34 93.0743 228.813 93.2871 228.164 93.7126C227.514 94.1382 226.887 94.743 226.282 95.527ZM235.518 100.668C235.518 99.5252 235.709 98.4276 236.09 97.3749C236.47 96.2997 237.042 95.359 237.803 94.5526C238.587 93.7238 239.561 93.0631 240.726 92.5703C241.891 92.0775 243.257 91.8311 244.825 91.8311C246.393 91.8311 247.76 92.0775 248.924 92.5703C250.089 93.0631 251.052 93.7238 251.814 94.5526C252.575 95.3814 253.147 96.3221 253.527 97.3749C253.908 98.4276 254.098 99.5252 254.098 100.668C254.098 101.81 253.908 102.919 253.527 103.994C253.147 105.047 252.564 105.987 251.78 106.816C251.019 107.622 250.055 108.272 248.891 108.765C247.748 109.258 246.393 109.504 244.825 109.504C243.257 109.504 241.891 109.258 240.726 108.765C239.561 108.272 238.587 107.611 237.803 106.782C237.042 105.954 236.47 105.013 236.09 103.96C235.709 102.907 235.518 101.81 235.518 100.668ZM243.28 92.5367C242.272 92.5367 241.432 92.7719 240.76 93.2423C240.088 93.7126 239.573 94.3286 239.214 95.0902C238.856 95.8294 238.643 96.6917 238.576 97.6773C238.509 98.6404 238.565 99.6372 238.744 100.668C238.946 101.676 239.27 102.672 239.718 103.658C240.166 104.621 240.715 105.483 241.365 106.245C242.014 106.984 242.765 107.589 243.616 108.059C244.467 108.53 245.396 108.765 246.404 108.765C247.412 108.765 248.241 108.53 248.891 108.059C249.563 107.589 250.078 106.984 250.436 106.245C250.795 105.483 251.007 104.621 251.075 103.658C251.142 102.672 251.075 101.676 250.873 100.668C250.671 99.6372 250.347 98.6404 249.899 97.6773C249.473 96.6917 248.935 95.8294 248.286 95.0902C247.636 94.3286 246.886 93.7126 246.035 93.2423C245.206 92.7719 244.288 92.5367 243.28 92.5367ZM9.6092 123.335C8.35485 123.335 7.34689 123.738 6.58532 124.545C5.84615 125.351 5.31978 126.359 5.00619 127.569C4.715 128.778 4.6366 130.088 4.771 131.5C4.92779 132.911 5.26378 134.221 5.77896 135.431C6.31653 136.64 7.0333 137.648 7.92927 138.454C8.84763 139.261 9.92278 139.664 11.1547 139.664C12.2747 139.664 13.2042 139.485 13.9434 139.126C14.6826 138.746 15.265 138.197 15.6905 137.48C15.265 138.466 14.5706 139.216 13.6074 139.731C12.6443 140.246 11.4123 140.504 9.91158 140.504C8.41085 140.504 7.1229 140.258 6.04775 139.765C4.97259 139.25 4.08783 138.578 3.39346 137.749C2.72149 136.92 2.21751 135.979 1.88152 134.927C1.56793 133.851 1.41114 132.765 1.41114 131.668C1.41114 130.57 1.56793 129.495 1.88152 128.442C2.21751 127.367 2.73268 126.415 3.42706 125.586C4.12143 124.757 5.00619 124.097 6.08134 123.604C7.1565 123.089 8.43324 122.831 9.91158 122.831C11.4347 122.831 12.7003 123.066 13.7082 123.537C14.7162 123.985 15.5225 124.567 16.1273 125.284V116.447L19.1512 114.801V140H16.1273V130.458C15.9481 129.54 15.6681 128.655 15.2874 127.804C14.9066 126.93 14.4362 126.169 13.8762 125.519C13.3386 124.847 12.7115 124.321 11.9947 123.94C11.2779 123.537 10.4828 123.335 9.6092 123.335ZM25.7622 129.383C25.7622 130.525 25.9414 131.69 26.2998 132.877C26.6806 134.064 27.207 135.151 27.8789 136.136C28.5733 137.099 29.4021 137.894 30.3652 138.522C31.3284 139.126 32.4036 139.429 33.5907 139.429C34.6659 139.429 35.629 139.205 36.4802 138.757C37.3314 138.286 38.0593 137.738 38.6641 137.111C39.2689 136.483 39.7392 135.856 40.0752 135.229C40.4112 134.602 40.6016 134.131 40.6464 133.818C40.5568 134.624 40.2768 135.431 39.8064 136.237C39.3361 137.021 38.7201 137.738 37.9585 138.387C37.197 139.014 36.3122 139.53 35.3042 139.933C34.2963 140.314 33.2099 140.504 32.0452 140.504C30.4772 140.504 29.1109 140.258 27.9461 139.765C26.7814 139.272 25.807 138.611 25.0231 137.782C24.2615 136.954 23.6903 136.013 23.3095 134.96C22.9288 133.907 22.7384 132.81 22.7384 131.668C22.7384 130.167 22.9848 128.868 23.4775 127.77C23.9703 126.673 24.6199 125.765 25.4263 125.049C26.2326 124.332 27.1398 123.805 28.1477 123.469C29.1557 123.111 30.1861 122.932 31.2388 122.932C32.0228 122.932 32.7955 123.066 33.5571 123.335C34.3187 123.581 35.0242 123.94 35.6738 124.41C36.3234 124.858 36.8946 125.407 37.3873 126.057C37.8801 126.684 38.2609 127.378 38.5297 128.14C38.6417 128.498 38.5969 128.8 38.3953 129.047C38.2161 129.271 37.9249 129.383 37.5217 129.383H25.7622ZM30.4996 123.537C29.7157 123.537 29.0325 123.682 28.4501 123.973C27.8677 124.242 27.375 124.623 26.9718 125.116C26.591 125.609 26.2998 126.18 26.0982 126.829C25.8966 127.457 25.7846 128.14 25.7622 128.879H35.6402C35.5282 128.476 35.3378 127.972 35.069 127.367C34.8003 126.762 34.4531 126.18 34.0275 125.62C33.6019 125.037 33.0867 124.545 32.482 124.141C31.8996 123.738 31.2388 123.537 30.4996 123.537ZM54.1985 117.993C55.0944 117.993 55.8224 118.228 56.3824 118.698C56.9647 119.146 57.2895 119.673 57.3567 120.278C57.4239 120.86 57.2111 121.442 56.7183 122.025C56.2256 122.585 55.3856 122.977 54.1985 123.201H62.5981V123.738H56.6175V136.069C56.6175 136.987 56.7631 137.693 57.0543 138.186C57.3679 138.678 57.7599 139.003 58.2303 139.16C58.7007 139.317 59.227 139.328 59.8094 139.194C60.3918 139.059 60.963 138.824 61.5229 138.488C62.0829 138.13 62.5981 137.693 63.0685 137.178C63.5613 136.663 63.9532 136.091 64.2444 135.464C63.886 136.338 63.4605 137.077 62.9677 137.682C62.4973 138.264 61.9821 138.746 61.4221 139.126C60.8846 139.485 60.3246 139.754 59.7422 139.933C59.1598 140.09 58.5887 140.168 58.0287 140.168C57.4239 140.168 56.8527 140.078 56.3152 139.899C55.7776 139.72 55.3072 139.462 54.904 139.126C54.5008 138.768 54.1761 138.342 53.9297 137.85C53.7057 137.357 53.5937 136.797 53.5937 136.17V123.738H50.8386V123.201H52.0481C53.0785 123.201 53.8961 122.932 54.5008 122.394C55.1056 121.857 55.4864 121.263 55.6432 120.614C55.8224 119.942 55.7888 119.337 55.5424 118.799C55.296 118.262 54.848 117.993 54.1985 117.993ZM79.9347 140V124.007L82.9586 122.327V140H79.9347ZM79.6323 137.279C79.5203 137.771 79.2963 138.208 78.9603 138.589C78.6244 138.97 78.2324 139.294 77.7844 139.563C77.3364 139.81 76.8548 140 76.3397 140.134C75.8245 140.269 75.3205 140.336 74.8277 140.336C72.767 140.336 71.1879 139.989 70.0903 139.294C68.9928 138.6 68.1976 137.715 67.7048 136.64C67.2344 135.543 66.9656 134.344 66.8985 133.045C66.8537 131.746 66.8313 130.492 66.8313 129.282V123.973L69.8551 122.327V129.551C69.8551 130.424 69.8663 131.432 69.8887 132.575C69.9111 133.717 70.0679 134.803 70.3591 135.834C70.6727 136.842 71.1879 137.704 71.9046 138.421C72.6438 139.115 73.719 139.462 75.1301 139.462C75.9141 139.462 76.5748 139.384 77.1124 139.227C77.65 139.07 78.0868 138.891 78.4228 138.69C78.7588 138.466 79.0163 138.23 79.1955 137.984C79.3747 137.715 79.5203 137.48 79.6323 137.279ZM95.6071 123.335C94.3528 123.335 93.3448 123.738 92.5833 124.545C91.8441 125.351 91.3177 126.359 91.0041 127.569C90.7129 128.778 90.6345 130.088 90.7689 131.5C90.9257 132.911 91.2617 134.221 91.7769 135.431C92.3145 136.64 93.0312 137.648 93.9272 138.454C94.8456 139.261 95.9207 139.664 97.1527 139.664C98.2726 139.664 99.2022 139.485 99.9413 139.126C100.681 138.746 101.263 138.197 101.688 137.48C101.263 138.466 100.569 139.216 99.6054 139.731C98.6422 140.246 97.4103 140.504 95.9095 140.504C94.4088 140.504 93.1208 140.258 92.0457 139.765C90.9705 139.25 90.0858 138.578 89.3914 137.749C88.7194 136.92 88.2154 135.979 87.8795 134.927C87.5659 133.851 87.4091 132.765 87.4091 131.668C87.4091 130.57 87.5659 129.495 87.8795 128.442C88.2154 127.367 88.7306 126.415 89.425 125.586C90.1194 124.757 91.0041 124.097 92.0793 123.604C93.1544 123.089 94.4312 122.831 95.9095 122.831C97.4327 122.831 98.6982 123.066 99.7062 123.537C100.714 123.985 101.52 124.567 102.125 125.284V116.447L105.149 114.801V140H102.125V130.458C101.946 129.54 101.666 128.655 101.285 127.804C100.905 126.93 100.434 126.169 99.8741 125.519C99.3366 124.847 98.7094 124.321 97.9926 123.94C97.2759 123.537 96.4807 123.335 95.6071 123.335ZM109.458 131.668C109.458 130.525 109.649 129.428 110.029 128.375C110.41 127.3 110.981 126.359 111.743 125.553C112.527 124.724 113.501 124.063 114.666 123.57C115.831 123.078 117.197 122.831 118.765 122.831C120.333 122.831 121.699 123.078 122.864 123.57C124.029 124.063 124.992 124.724 125.753 125.553C126.515 126.381 127.086 127.322 127.467 128.375C127.848 129.428 128.038 130.525 128.038 131.668C128.038 132.81 127.848 133.919 127.467 134.994C127.086 136.047 126.504 136.987 125.72 137.816C124.958 138.622 123.995 139.272 122.83 139.765C121.688 140.258 120.333 140.504 118.765 140.504C117.197 140.504 115.831 140.258 114.666 139.765C113.501 139.272 112.527 138.611 111.743 137.782C110.981 136.954 110.41 136.013 110.029 134.96C109.649 133.907 109.458 132.81 109.458 131.668ZM117.219 123.537C116.211 123.537 115.371 123.772 114.7 124.242C114.028 124.713 113.512 125.329 113.154 126.09C112.796 126.829 112.583 127.692 112.516 128.677C112.448 129.64 112.504 130.637 112.684 131.668C112.885 132.676 113.21 133.672 113.658 134.658C114.106 135.621 114.655 136.483 115.304 137.245C115.954 137.984 116.704 138.589 117.555 139.059C118.407 139.53 119.336 139.765 120.344 139.765C121.352 139.765 122.181 139.53 122.83 139.059C123.502 138.589 124.018 137.984 124.376 137.245C124.734 136.483 124.947 135.621 125.014 134.658C125.081 133.672 125.014 132.676 124.813 131.668C124.611 130.637 124.286 129.64 123.838 128.677C123.413 127.692 122.875 126.829 122.226 126.09C121.576 125.329 120.826 124.713 119.975 124.242C119.146 123.772 118.227 123.537 117.219 123.537Z" fill="white"/>
<path d="M10.708 17.1164C8.00115 11.8959 12.0305 5.57962 16.0067 3.37472C19.8061 1.28563 24.0079 0.590755 28.6166 1.40145C36.6753 2.73329 42.6065 8.47494 46.4633 18.4482L51.647 11.7801C47.6708 5.11191 40.3021 1.22773 29.5366 0.359129C24.1848 -0.0462161 17.8511 0.938194 13.4724 3.02728C5.9887 6.62194 2.07437 13.7533 3.56934 21.6375C4.77681 26.564 7.94365 30.2745 13.1274 32.8268C22.9154 37.5796 32.9334 38.9738 42.257 43.0317C47.0913 45.1208 49.3382 47.8424 49.0507 51.0896C48.0732 61.1208 33.8534 65.5841 24.1804 64.0785C15.3123 62.7467 8.98305 56.4839 5.1793 46.5106L0 53.1787C4.8918 61.5262 15.1973 64.4839 24.7554 65.1208C35.8659 65.8736 47.8432 63.0317 51.8151 52.5373C53.717 47.6108 53.31 42.6219 50.3201 38.7377C40.3596 26.6798 17.5061 30.2121 10.7124 17.1119M79.1579 30.7957C78.4679 25.7533 78.6979 20.9382 79.8479 16.5908C80.9403 12.1854 82.8997 8.70657 85.894 5.98051C88.7734 3.19655 92.7452 1.74888 97.522 1.51726C100.976 1.45935 104.431 2.44376 107.943 4.47494C111.397 6.62194 114.334 9.86915 116.753 14.3903C119.172 18.8536 120.495 24.4215 120.782 30.9159L79.1579 30.8001V30.7957ZM140.818 34.6531C131.875 49.7222 117.439 66.3413 98.5039 60.0785C93.7271 58.2789 89.4634 54.9738 85.8366 49.8736C82.2097 44.8268 80.0203 38.858 79.3304 31.7845L130.743 31.8424C131.03 28.0161 130.168 23.6108 128.036 18.6798C125.962 13.7533 122.22 9.34354 116.983 5.57516C111.742 1.8647 105.93 0.0116904 99.4239 0.0116904C93.7227 0.0695969 88.5434 1.57517 83.7047 4.64866C78.9279 7.72216 75.416 11.7222 73.0542 16.711C70.6348 21.6954 69.4848 27.0317 69.4848 32.8313C69.7723 39.4994 71.4398 45.1253 74.5491 49.8781C77.601 54.5729 81.4578 58.1097 86.0621 60.662C90.6089 63.1565 95.2177 64.4883 99.937 64.6041C119.301 65.5885 131.875 52.0651 140.823 36.8046M140.827 36.8001L140.933 64.3101H150.779L150.434 22.5061C150.951 8.41704 163.101 1.45935 172.655 1.63307C187.622 1.9226 190.502 13.8692 190.214 25.6954L190.042 64.368L199.945 64.3101V23.3168C199.887 8.1275 190.042 -0.282296 174.269 0.00723606C158.497 0.238862 152.106 10.4438 150.319 15.6598L140.818 34.6175V34.6487M226.195 17.1164C223.488 11.8959 227.518 5.57962 231.494 3.37472C235.293 1.28563 239.495 0.590755 244.104 1.40145C252.162 2.73329 258.093 8.47494 261.95 18.4482L267.134 11.7801C263.162 5.11191 255.794 1.22773 245.028 0.359129C239.672 -0.0462161 233.343 0.938194 228.964 3.02728C221.48 6.62194 217.566 13.7533 219.061 21.6375C220.268 26.564 223.435 30.2745 228.619 32.8268C238.407 37.5796 248.425 38.9738 257.749 43.0317C262.583 45.1208 264.83 47.8424 264.542 51.0896C263.565 61.1208 249.345 65.5841 239.672 64.0785C230.804 62.7467 224.475 56.4839 220.675 46.5106L215.496 53.1787C220.388 61.5262 230.693 64.4839 240.251 65.1208C251.362 65.8736 263.339 63.0317 267.311 52.5373C269.213 47.6108 268.806 42.6219 265.816 38.7377C255.855 26.6798 233.002 30.2121 226.208 17.1119M335.924 31.5529L294.702 31.4371C294.07 26.3903 294.242 21.6375 295.335 17.348C296.427 13.0006 298.387 9.52171 301.324 6.79565C304.26 4.0696 308.117 2.62194 312.952 2.39031C316.348 2.3324 319.745 3.31681 323.2 5.34799C326.654 7.43263 329.533 10.6843 331.953 15.1475C334.315 19.6108 335.637 25.1208 335.924 31.5573M345.827 32.4794C346.172 28.6531 345.253 24.3057 343.121 19.4326C341.046 14.5017 337.419 10.1542 332.183 6.44376C327.003 2.73329 321.187 0.875833 314.738 0.875833C309.152 0.933739 303.973 2.43931 299.254 5.5128C294.477 8.52839 290.965 12.5284 288.603 17.4549C286.241 22.3814 285.091 27.6598 285.091 33.4014C285.379 40.0117 287.051 45.6331 290.098 50.3324C293.207 54.9694 297.007 58.5061 301.496 61.0006C306.043 63.495 310.594 64.8268 315.256 64.9426C322.337 64.9426 328.613 63.2055 334.023 59.7222C339.432 56.1854 343.466 51.2589 345.996 44.7645L345.018 44.5908C341.909 51.9538 337.477 56.9426 331.661 59.6643C325.845 62.3324 319.918 62.6219 313.929 60.417C309.095 58.6754 304.888 55.3703 301.319 50.3279C297.692 45.3435 295.503 39.3703 294.813 32.4126L345.823 32.4705L345.827 32.4794Z" fill="#FFF8E9"/>
</svg>
